NotoSansCuneiform-Regular.ufo
<glyph name="u12000" format="2">
  <advance width="727"/>
  <unicode hex="12000"/>
  <outline>
    <contour>
      <point x="513" y="-112" type="curve"/>
      <point x="539" y="-112" type="line"/>
      <point x="550" y="119"/>
      <point x="580" y="272"/>
      <point x="626" y="383" type="curve"/>
      <point x="593" y="377"/>
      <point x="563" y="374"/>
      <point x="534" y="373" type="curve"/>
      <point x="554" y="547"/>
      <point x="601" y="672"/>
      <point x="627" y="736" type="curve"/>
      <point x="593" y="729"/>
      <point x="560" y="727"/>
      <point x="527" y="727" type="curve" smooth="yes"/>
      <point x="487" y="727"/>
      <point x="449" y="731"/>
      <point x="411" y="736" type="curve"/>
      <point x="442" y="669"/>
      <point x="476" y="557"/>
      <point x="507" y="373" type="curve"/>
      <point x="474" y="373"/>
      <point x="442" y="377"/>
      <point x="410" y="383" type="curve"/>
      <point x="465" y="250"/>
      <point x="488" y="128"/>
    </contour>
    <contour>
      <point x="195" y="-112" type="curve"/>
      <point x="221" y="-112" type="line"/>
      <point x="221" y="299"/>
      <point x="270" y="569"/>
      <point x="316" y="736" type="curve"/>
      <point x="278" y="728"/>
      <point x="241" y="724"/>
      <point x="205" y="724" type="curve" smooth="yes"/>
      <point x="169" y="724"/>
      <point x="134" y="728"/>
      <point x="100" y="736" type="curve"/>
      <point x="146" y="569"/>
      <point x="195" y="298"/>
    </contour>
  </outline>
</glyph>
<glyph name="u12001" format="2">
  <advance width="1087"/>
  <unicode hex="12001"/>
  <outline>
    <contour>
      <point x="868" y="-112" type="curve"/>
      <point x="889" y="-112" type="line"/>
      <point x="900" y="119"/>
      <point x="936" y="266"/>
      <point x="986" y="383" type="curve"/>
      <point x="952" y="377"/>
      <point x="922" y="374"/>
      <point x="892" y="373" type="curve"/>
      <point x="912" y="547"/>
      <point x="961" y="672"/>
      <point x="987" y="736" type="curve"/>
      <point x="952" y="730"/>
      <point x="918" y="727"/>
      <point x="884" y="727" type="curve" smooth="yes"/>
      <point x="846" y="727"/>
      <point x="809" y="731"/>
      <point x="772" y="736" type="curve"/>
      <point x="803" y="669"/>
      <point x="834" y="557"/>
      <point x="865" y="373" type="curve"/>
      <point x="833" y="373"/>
      <point x="802" y="376"/>
      <point x="771" y="383" type="curve"/>
      <point x="826" y="250"/>
      <point x="843" y="128"/>
    </contour>
    <contour>
      <point x="195" y="-112" type="curve"/>
      <point x="221" y="-112" type="line"/>
      <point x="221" y="299"/>
      <point x="270" y="569"/>
      <point x="316" y="736" type="curve"/>
      <point x="278" y="728"/>
      <point x="241" y="724"/>
      <point x="205" y="724" type="curve" smooth="yes"/>
      <point x="169" y="724"/>
      <point x="134" y="728"/>
      <point x="100" y="736" type="curve"/>
      <point x="146" y="569"/>
      <point x="195" y="298"/>
    </contour>
    <contour>
      <point x="386" y="-62" type="curve"/>
      <point x="412" y="-62" type="line"/>
      <point x="412" y="349"/>
      <point x="455" y="443"/>
      <point x="502" y="571" type="curve"/>
      <point x="464" y="563"/>
      <point x="429" y="559"/>
      <point x="396" y="559" type="curve" smooth="yes"/>
      <point x="362" y="559"/>
      <point x="330" y="563"/>
      <point x="296" y="571" type="curve"/>
      <point x="343" y="443"/>
      <point x="386" y="348"/>
    </contour>
    <contour>
      <point x="631" y="-62" type="curve"/>
      <point x="653" y="-62" type="line"/>
      <point x="653" y="74"/>
      <point x="711" y="255"/>
      <point x="745" y="301" type="curve"/>
      <point x="709" y="294"/>
      <point x="681" y="291"/>
      <point x="654" y="290" type="curve"/>
      <point x="664" y="416"/>
      <point x="714" y="532"/>
      <point x="745" y="574" type="curve"/>
      <point x="704" y="566"/>
      <point x="672" y="563"/>
      <point x="641" y="563" type="curve" smooth="yes"/>
      <point x="608" y="563"/>
      <point x="577" y="567"/>
      <point x="538" y="571" type="curve"/>
      <point x="573" y="527"/>
      <point x="620" y="411"/>
      <point x="629" y="290" type="curve"/>
      <point x="600" y="291"/>
      <point x="572" y="294"/>
      <point x="538" y="298" type="curve"/>
      <point x="577" y="249"/>
      <point x="631" y="74"/>
    </contour>
  </outline>
</glyph>
<glyph name="u12002" format="2">
  <advance width="1105"/>
  <unicode hex="12002"/>
  <outline>
    <contour>
      <point x="886" y="-112" type="curve"/>
      <point x="907" y="-112" type="line"/>
      <point x="918" y="119"/>
      <point x="954" y="266"/>
      <point x="1004" y="383" type="curve"/>
      <point x="971" y="377"/>
      <point x="941" y="374"/>
      <point x="912" y="373" type="curve"/>
      <point x="932" y="547"/>
      <point x="979" y="672"/>
      <point x="1005" y="736" type="curve"/>
      <point x="971" y="729"/>
      <point x="938" y="727"/>
      <point x="905" y="727" type="curve" smooth="yes"/>
      <point x="865" y="727"/>
      <point x="827" y="731"/>
      <point x="789" y="736" type="curve"/>
      <point x="820" y="669"/>
      <point x="854" y="557"/>
      <point x="885" y="373" type="curve"/>
      <point x="852" y="373"/>
      <point x="821" y="377"/>
      <point x="789" y="383" type="curve"/>
      <point x="844" y="250"/>
      <point x="861" y="128"/>
    </contour>
    <contour>
      <point x="195" y="-112" type="curve"/>
      <point x="221" y="-112" type="line"/>
      <point x="221" y="299"/>
      <point x="270" y="569"/>
      <point x="316" y="736" type="curve"/>
      <point x="278" y="728"/>
      <point x="241" y="724"/>
      <point x="205" y="724" type="curve" smooth="yes"/>
      <point x="169" y="724"/>
      <point x="134" y="728"/>
      <point x="100" y="736" type="curve"/>
      <point x="146" y="569"/>
      <point x="195" y="298"/>
    </contour>
    <contour>
      <point x="814" y="134" type="curve"/>
      <point x="830" y="147" type="line"/>
      <point x="782" y="209"/>
      <point x="748" y="261"/>
      <point x="729" y="293" type="curve"/>
      <point x="755" y="336"/>
      <point x="781" y="389"/>
      <point x="820" y="459" type="curve"/>
      <point x="803" y="469" type="line"/>
      <point x="750" y="407"/>
      <point x="685" y="348"/>
      <point x="644" y="312" type="curve"/>
      <point x="470" y="326"/>
      <point x="380" y="354"/>
      <point x="284" y="394" type="curve"/>
      <point x="291" y="354"/>
      <point x="294" y="319"/>
      <point x="294" y="284" type="curve" smooth="yes"/>
      <point x="294" y="248"/>
      <point x="291" y="214"/>
      <point x="284" y="179" type="curve"/>
      <point x="401" y="226"/>
      <point x="471" y="250"/>
      <point x="649" y="272" type="curve"/>
      <point x="693" y="238"/>
      <point x="742" y="197"/>
    </contour>
  </outline>
</glyph>
<glyph name="u12003" format="2">
  <advance width="1245"/>
  <unicode hex="12003"/>
  <outline>
    <contour>
      <point x="853" y="-35" type="line"/>
      <point x="874" y="-35" type="line"/>
      <point x="874" y="155"/>
      <point x="913" y="448"/>
      <point x="949" y="536" type="curve"/>
      <point x="918" y="531"/>
      <point x="889" y="528"/>
      <point x="862" y="528" type="curve" smooth="yes"/>
      <point x="833" y="528"/>
      <point x="806" y="531"/>
      <point x="778" y="536" type="curve"/>
      <point x="797" y="488"/>
      <point x="814" y="408"/>
      <point x="827" y="316" type="curve"/>
      <point x="711" y="445"/>
      <point x="564" y="621"/>
      <point x="532" y="699" type="curve"/>
      <point x="496" y="648"/>
      <point x="460" y="612"/>
      <point x="416" y="582" type="curve"/>
      <point x="515" y="541"/>
      <point x="691" y="392"/>
      <point x="832" y="277" type="curve"/>
      <point x="843" y="187"/>
      <point x="850" y="90"/>
      <point x="852" y="5" type="curve"/>
      <point x="790" y="70" type="line"/>
      <point x="801" y="141"/>
      <point x="815" y="215"/>
      <point x="824" y="236" type="curve"/>
      <point x="808" y="233"/>
      <point x="792" y="231"/>
      <point x="777" y="231" type="curve" smooth="yes"/>
      <point x="759" y="231"/>
      <point x="743" y="233"/>
      <point x="726" y="236" type="curve"/>
      <point x="734" y="218"/>
      <point x="743" y="167"/>
      <point x="752" y="111" type="curve"/>
      <point x="710" y="155" type="line"/>
      <point x="720" y="222"/>
      <point x="733" y="288"/>
      <point x="742" y="308" type="curve"/>
      <point x="726" y="305"/>
      <point x="710" y="303"/>
      <point x="695" y="303" type="curve" smooth="yes"/>
      <point x="677" y="303"/>
      <point x="661" y="305"/>
      <point x="644" y="308" type="curve"/>
      <point x="651" y="292"/>
      <point x="659" y="251"/>
      <point x="667" y="202" type="curve"/>
      <point x="631" y="242" type="line"/>
      <point x="641" y="304"/>
      <point x="653" y="363"/>
      <point x="661" y="382" type="curve"/>
      <point x="645" y="379"/>
      <point x="629" y="377"/>
      <point x="614" y="377" type="curve" smooth="yes"/>
      <point x="596" y="377"/>
      <point x="580" y="379"/>
      <point x="563" y="382" type="curve"/>
      <point x="569" y="368"/>
      <point x="576" y="335"/>
      <point x="583" y="296" type="curve"/>
      <point x="550" y="332" type="line"/>
      <point x="559" y="390"/>
      <point x="570" y="442"/>
      <point x="578" y="459" type="curve"/>
      <point x="562" y="456"/>
      <point x="546" y="454"/>
      <point x="531" y="454" type="curve" smooth="yes"/>
      <point x="513" y="454"/>
      <point x="497" y="456"/>
      <point x="480" y="459" type="curve"/>
      <point x="485" y="448"/>
      <point x="490" y="425"/>
      <point x="496" y="396" type="curve"/>
      <point x="433" y="471"/>
      <point x="386" y="532"/>
      <point x="373" y="562" type="curve"/>
      <point x="338" y="511"/>
      <point x="302" y="477"/>
      <point x="260" y="448" type="curve"/>
      <point x="306" y="428"/>
      <point x="407" y="352"/>
      <point x="516" y="262" type="curve"/>
      <point x="525" y="205" type="line"/>
      <point x="534" y="205" type="line"/>
      <point x="535" y="217"/>
      <point x="536" y="230"/>
      <point x="538" y="244" type="curve"/>
      <point x="598" y="194" type="line"/>
      <point x="608" y="128" type="line"/>
      <point x="617" y="128" type="line"/>
      <point x="622" y="173" type="line"/>
      <point x="678" y="125" type="line"/>
      <point x="682" y="100"/>
      <point x="685" y="76"/>
      <point x="689" y="54" type="curve"/>
      <point x="698" y="54" type="line"/>
      <point x="699" y="69"/>
      <point x="701" y="86"/>
      <point x="703" y="103" type="curve"/>
      <point x="760" y="54" type="line"/>
      <point x="763" y="29"/>
      <point x="767" y="4"/>
      <point x="771" y="-18" type="curve"/>
      <point x="780" y="-18" type="line"/>
      <point x="781" y="-3"/>
      <point x="783" y="14"/>
      <point x="785" y="31" type="curve"/>
      <point x="853" y="-29" type="line"/>
    </contour>
    <contour>
      <point x="195" y="-112" type="curve"/>
      <point x="221" y="-112" type="line"/>
      <point x="221" y="299"/>
      <point x="270" y="569"/>
      <point x="316" y="736" type="curve"/>
      <point x="278" y="728"/>
      <point x="241" y="724"/>
      <point x="205" y="724" type="curve" smooth="yes"/>
      <point x="169" y="724"/>
      <point x="134" y="728"/>
      <point x="100" y="736" type="curve"/>
      <point x="146" y="569"/>
      <point x="195" y="298"/>
    </contour>
    <contour>
      <point x="1026" y="-112" type="curve"/>
      <point x="1047" y="-112" type="line"/>
      <point x="1058" y="119"/>
      <point x="1094" y="266"/>
      <point x="1144" y="383" type="curve"/>
      <point x="1111" y="377"/>
      <point x="1081" y="374"/>
      <point x="1052" y="373" type="curve"/>
      <point x="1072" y="547"/>
      <point x="1119" y="672"/>
      <point x="1145" y="736" type="curve"/>
      <point x="1111" y="729"/>
      <point x="1078" y="727"/>
      <point x="1045" y="727" type="curve" smooth="yes"/>
      <point x="1005" y="727"/>
      <point x="967" y="731"/>
      <point x="929" y="736" type="curve"/>
      <point x="960" y="669"/>
      <point x="994" y="557"/>
      <point x="1025" y="373" type="curve"/>
      <point x="992" y="373"/>
      <point x="961" y="377"/>
      <point x="929" y="383" type="curve"/>
      <point x="984" y="250"/>
      <point x="1001" y="128"/>
    </contour>
  </outline>
</glyph>
<glyph name="u12004" format="2">
  <advance width="1325"/>
  <unicode hex="12004"/>
  <outline>
    <contour>
      <point x="759" y="-62" type="curve"/>
      <point x="781" y="-62" type="line"/>
      <point x="781" y="66"/>
      <point x="832" y="235"/>
      <point x="867" y="292" type="curve"/>
      <point x="914" y="256"/>
      <point x="965" y="213"/>
      <point x="1044" y="144" type="curve"/>
      <point x="1060" y="157" type="line"/>
      <point x="1012" y="219"/>
      <point x="978" y="271"/>
      <point x="959" y="303" type="curve"/>
      <point x="985" y="346"/>
      <point x="1011" y="399"/>
      <point x="1050" y="469" type="curve"/>
      <point x="1033" y="479" type="line"/>
      <point x="969" y="404"/>
      <point x="888" y="334"/>
      <point x="852" y="303" type="curve"/>
      <point x="858" y="298" type="line"/>
      <point x="830" y="293"/>
      <point x="805" y="291"/>
      <point x="782" y="290" type="curve"/>
      <point x="792" y="416"/>
      <point x="842" y="532"/>
      <point x="873" y="574" type="curve"/>
      <point x="832" y="566"/>
      <point x="800" y="563"/>
      <point x="769" y="563" type="curve" smooth="yes"/>
      <point x="736" y="563"/>
      <point x="705" y="567"/>
      <point x="666" y="571" type="curve"/>
      <point x="701" y="527"/>
      <point x="748" y="411"/>
      <point x="757" y="290" type="curve"/>
      <point x="728" y="291"/>
      <point x="700" y="294"/>
      <point x="666" y="298" type="curve"/>
      <point x="705" y="249"/>
      <point x="759" y="74"/>
    </contour>
    <contour>
      <point x="195" y="-112" type="curve"/>
      <point x="221" y="-112" type="line"/>
      <point x="221" y="299"/>
      <point x="270" y="569"/>
      <point x="316" y="736" type="curve"/>
      <point x="278" y="728"/>
      <point x="241" y="724"/>
      <point x="205" y="724" type="curve" smooth="yes"/>
      <point x="169" y="724"/>
      <point x="134" y="728"/>
      <point x="100" y="736" type="curve"/>
      <point x="146" y="569"/>
      <point x="195" y="298"/>
    </contour>
    <contour>
      <point x="391" y="-62" type="curve"/>
      <point x="413" y="-62" type="line"/>
      <point x="413" y="74"/>
      <point x="471" y="255"/>
      <point x="505" y="301" type="curve"/>
      <point x="469" y="294"/>
      <point x="441" y="291"/>
      <point x="414" y="290" type="curve"/>
      <point x="424" y="416"/>
      <point x="474" y="532"/>
      <point x="505" y="574" type="curve"/>
      <point x="464" y="566"/>
      <point x="432" y="563"/>
      <point x="401" y="563" type="curve" smooth="yes"/>
      <point x="368" y="563"/>
      <point x="337" y="567"/>
      <point x="298" y="571" type="curve"/>
      <point x="333" y="527"/>
      <point x="380" y="411"/>
      <point x="389" y="290" type="curve"/>
      <point x="360" y="291"/>
      <point x="332" y="294"/>
      <point x="298" y="298" type="curve"/>
      <point x="337" y="249"/>
      <point x="391" y="74"/>
    </contour>
    <contour>
      <point x="651" y="-58" type="curve"/>
      <point x="667" y="-45" type="line"/>
      <point x="619" y="17"/>
      <point x="585" y="69"/>
      <point x="566" y="101" type="curve"/>
      <point x="592" y="144"/>
      <point x="618" y="197"/>
      <point x="657" y="267" type="curve"/>
      <point x="640" y="277" type="line"/>
      <point x="576" y="202"/>
      <point x="495" y="132"/>
      <point x="459" y="101" type="curve"/>
      <point x="510" y="63"/>
      <point x="564" y="19"/>
    </contour>
    <contour>
      <point x="1106" y="-112" type="curve"/>
      <point x="1127" y="-112" type="line"/>
      <point x="1138" y="119"/>
      <point x="1174" y="266"/>
      <point x="1224" y="383" type="curve"/>
      <point x="1191" y="377"/>
      <point x="1161" y="374"/>
      <point x="1132" y="373" type="curve"/>
      <point x="1152" y="547"/>
      <point x="1199" y="672"/>
      <point x="1225" y="736" type="curve"/>
      <point x="1191" y="729"/>
      <point x="1158" y="727"/>
      <point x="1125" y="727" type="curve" smooth="yes"/>
      <point x="1085" y="727"/>
      <point x="1047" y="731"/>
      <point x="1009" y="736" type="curve"/>
      <point x="1040" y="669"/>
      <point x="1074" y="557"/>
      <point x="1105" y="373" type="curve"/>
      <point x="1072" y="373"/>
      <point x="1041" y="377"/>
      <point x="1009" y="383" type="curve"/>
      <point x="1064" y="250"/>
      <point x="1081" y="128"/>
    </contour>
  </outline>
</glyph>
<glyph name="u12005" format="2">
  <advance width="1187"/>
  <unicode hex="12005"/>
  <outline>
    <contour>
      <point x="968" y="-112" type="curve"/>
      <point x="989" y="-112" type="line"/>
      <point x="1000" y="119"/>
      <point x="1036" y="266"/>
      <point x="1086" y="383" type="curve"/>
      <point x="1053" y="377"/>
      <point x="1023" y="374"/>
      <point x="994" y="373" type="curve"/>
      <point x="1014" y="547"/>
      <point x="1061" y="672"/>
      <point x="1087" y="736" type="curve"/>
      <point x="1053" y="729"/>
      <point x="1020" y="727"/>
      <point x="987" y="727" type="curve" smooth="yes"/>
      <point x="947" y="727"/>
      <point x="909" y="731"/>
      <point x="871" y="736" type="curve"/>
      <point x="902" y="669"/>
      <point x="936" y="557"/>
      <point x="967" y="373" type="curve"/>
      <point x="934" y="373"/>
      <point x="903" y="377"/>
      <point x="871" y="383" type="curve"/>
      <point x="880" y="360"/>
      <point x="889" y="337"/>
      <point x="896" y="314" type="curve"/>
      <point x="780" y="326"/>
      <point x="704" y="355"/>
      <point x="634" y="394" type="curve"/>
      <point x="641" y="354"/>
      <point x="644" y="319"/>
      <point x="644" y="284" type="curve" smooth="yes"/>
      <point x="644" y="248"/>
      <point x="641" y="214"/>
      <point x="634" y="179" type="curve"/>
      <point x="707" y="219"/>
      <point x="785" y="257"/>
      <point x="908" y="273" type="curve"/>
      <point x="935" y="174"/>
      <point x="950" y="62"/>
    </contour>
    <contour>
      <point x="195" y="-112" type="curve"/>
      <point x="221" y="-112" type="line"/>
      <point x="221" y="299"/>
      <point x="270" y="569"/>
      <point x="316" y="736" type="curve"/>
      <point x="278" y="728"/>
      <point x="241" y="724"/>
      <point x="205" y="724" type="curve" smooth="yes"/>
      <point x="169" y="724"/>
      <point x="134" y="728"/>
      <point x="100" y="736" type="curve"/>
      <point x="146" y="569"/>
      <point x="195" y="298"/>
    </contour>
    <contour>
      <point x="553" y="-62" type="curve"/>
      <point x="579" y="-62" type="line"/>
      <point x="579" y="257"/>
      <point x="637" y="468"/>
      <point x="674" y="571" type="curve"/>
      <point x="636" y="563"/>
      <point x="599" y="559"/>
      <point x="563" y="559" type="curve" smooth="yes"/>
      <point x="527" y="559"/>
      <point x="492" y="563"/>
      <point x="458" y="571" type="curve"/>
      <point x="467" y="551"/>
      <point x="476" y="527"/>
      <point x="485" y="500" type="curve"/>
      <point x="482" y="502" type="line"/>
      <point x="407" y="415"/>
      <point x="313" y="333"/>
      <point x="270" y="296" type="curve"/>
      <point x="330" y="252"/>
      <point x="393" y="201"/>
      <point x="495" y="111" type="curve"/>
      <point x="513" y="126" type="line"/>
      <point x="458" y="198"/>
      <point x="418" y="259"/>
      <point x="396" y="296" type="curve"/>
      <point x="424" y="344"/>
      <point x="452" y="401"/>
      <point x="493" y="476" type="curve"/>
      <point x="527" y="358"/>
      <point x="553" y="179"/>
    </contour>
  </outline>
</glyph>
<glyph name="u12006" format="2">
  <advance width="1387"/>
  <unicode hex="12006"/>
  <outline>
    <contour>
      <point x="195" y="-112" type="curve"/>
      <point x="221" y="-112" type="line"/>
      <point x="221" y="99"/>
      <point x="234" y="273"/>
      <point x="253" y="415" type="curve"/>
      <point x="270" y="379"/>
      <point x="283" y="340"/>
      <point x="291" y="292" type="curve"/>
      <point x="309" y="308"/>
      <point x="357" y="333"/>
      <point x="419" y="363" type="curve"/>
      <point x="439" y="313"/>
      <point x="454" y="258"/>
      <point x="466" y="193" type="curve"/>
      <point x="380" y="233"/>
      <point x="313" y="268"/>
      <point x="291" y="288" type="curve"/>
      <point x="281" y="227"/>
      <point x="263" y="181"/>
      <point x="238" y="137" type="curve"/>
      <point x="288" y="137"/>
      <point x="372" y="120"/>
      <point x="482" y="93" type="curve"/>
      <point x="488" y="46"/>
      <point x="493" y="-5"/>
      <point x="499" y="-62" type="curve"/>
      <point x="521" y="-62" type="line"/>
      <point x="523" y="-12"/>
      <point x="526" y="35"/>
      <point x="531" y="80" type="curve"/>
      <point x="701" y="37"/>
      <point x="898" y="-21"/>
      <point x="1009" y="-55" type="curve"/>
      <point x="1016" y="-31" type="line"/>
      <point x="991" y="-22" type="line"/>
      <point x="992" y="374"/>
      <point x="1044" y="538"/>
      <point x="1086" y="639" type="curve"/>
      <point x="1048" y="631"/>
      <point x="1011" y="627"/>
      <point x="975" y="627" type="curve" smooth="yes"/>
      <point x="939" y="627"/>
      <point x="904" y="631"/>
      <point x="870" y="639" type="curve"/>
      <point x="876" y="624"/>
      <point x="882" y="608"/>
      <point x="888" y="590" type="curve"/>
      <point x="682" y="531"/>
      <point x="369" y="449"/>
      <point x="256" y="443" type="curve"/>
      <point x="273" y="564"/>
      <point x="295" y="660"/>
      <point x="316" y="736" type="curve"/>
      <point x="278" y="728"/>
      <point x="241" y="724"/>
      <point x="205" y="724" type="curve" smooth="yes"/>
      <point x="169" y="724"/>
      <point x="134" y="728"/>
      <point x="100" y="736" type="curve"/>
      <point x="146" y="569"/>
      <point x="195" y="298"/>
    </contour>
    <contour>
      <point x="965" y="-13" type="curve"/>
      <point x="846" y="31"/>
      <point x="679" y="98"/>
      <point x="540" y="160" type="curve"/>
      <point x="552" y="245"/>
      <point x="569" y="316"/>
      <point x="589" y="366" type="curve"/>
      <point x="558" y="360"/>
      <point x="529" y="358"/>
      <point x="502" y="358" type="curve" smooth="yes"/>
      <point x="475" y="358"/>
      <point x="449" y="360"/>
      <point x="423" y="365" type="curve"/>
      <point x="554" y="426"/>
      <point x="749" y="505"/>
      <point x="898" y="561" type="curve"/>
      <point x="906" y="536"/>
      <point x="913" y="509"/>
      <point x="920" y="478" type="curve"/>
      <point x="892" y="502"/>
      <point x="869" y="523"/>
      <point x="859" y="536" type="curve"/>
      <point x="849" y="503"/>
      <point x="832" y="475"/>
      <point x="815" y="449" type="curve"/>
      <point x="838" y="448"/>
      <point x="880" y="439"/>
      <point x="931" y="424" type="curve"/>
      <point x="937" y="395"/>
      <point x="941" y="362"/>
      <point x="946" y="326" type="curve"/>
      <point x="889" y="367"/>
      <point x="832" y="413"/>
      <point x="817" y="432" type="curve"/>
      <point x="807" y="399"/>
      <point x="790" y="371"/>
      <point x="773" y="345" type="curve"/>
      <point x="801" y="344"/>
      <point x="876" y="319"/>
      <point x="949" y="295" type="curve"/>
      <point x="953" y="261"/>
      <point x="956" y="224"/>
      <point x="958" y="183" type="curve"/>
      <point x="888" y="230"/>
      <point x="794" y="300"/>
      <point x="775" y="323" type="curve"/>
      <point x="765" y="290"/>
      <point x="748" y="262"/>
      <point x="731" y="236" type="curve"/>
      <point x="763" y="235"/>
      <point x="875" y="194"/>
      <point x="959" y="165" type="curve"/>
      <point x="961" y="131"/>
      <point x="963" y="94"/>
      <point x="964" y="55" type="curve"/>
      <point x="885" y="106"/>
      <point x="749" y="198"/>
      <point x="730" y="221" type="curve"/>
      <point x="720" y="188"/>
      <point x="703" y="160"/>
      <point x="686" y="134" type="curve"/>
      <point x="718" y="133"/>
      <point x="873" y="70"/>
      <point x="964" y="38" type="curve"/>
      <point x="964" y="21"/>
      <point x="965" y="4"/>
    </contour>
    <contour>
      <point x="1168" y="-112" type="curve"/>
      <point x="1189" y="-112" type="line"/>
      <point x="1200" y="119"/>
      <point x="1236" y="266"/>
      <point x="1286" y="383" type="curve"/>
      <point x="1253" y="377"/>
      <point x="1223" y="374"/>
      <point x="1194" y="373" type="curve"/>
      <point x="1214" y="547"/>
      <point x="1261" y="672"/>
      <point x="1287" y="736" type="curve"/>
      <point x="1253" y="729"/>
      <point x="1220" y="727"/>
      <point x="1187" y="727" type="curve" smooth="yes"/>
      <point x="1147" y="727"/>
      <point x="1109" y="731"/>
      <point x="1071" y="736" type="curve"/>
      <point x="1102" y="669"/>
      <point x="1136" y="557"/>
      <point x="1167" y="373" type="curve"/>
      <point x="1134" y="373"/>
      <point x="1103" y="377"/>
      <point x="1071" y="383" type="curve"/>
      <point x="1126" y="250"/>
      <point x="1143" y="128"/>
    </contour>
  </outline>
</glyph>
<glyph name="u12007" format="2">
  <advance width="1617"/>
  <unicode hex="12007"/>
  <outline>
    <contour>
      <point x="195" y="-112" type="curve"/>
      <point x="221" y="-112" type="line"/>
      <point x="221" y="99"/>
      <point x="233" y="272"/>
      <point x="252" y="414" type="curve"/>
      <point x="295" y="386"/>
      <point x="333" y="358"/>
      <point x="387" y="310" type="curve"/>
      <point x="322" y="255"/>
      <point x="277" y="224"/>
      <point x="232" y="200" type="curve"/>
      <point x="269" y="176"/>
      <point x="294" y="150"/>
      <point x="314" y="117" type="curve"/>
      <point x="345" y="171"/>
      <point x="372" y="213"/>
      <point x="424" y="278" type="curve"/>
      <point x="537" y="173" type="line"/>
      <point x="466" y="143" type="line"/>
      <point x="513" y="110"/>
      <point x="550" y="74"/>
      <point x="589" y="20" type="curve"/>
      <point x="617" y="91"/>
      <point x="640" y="143"/>
      <point x="711" y="231" type="curve"/>
      <point x="708" y="214" type="line"/>
      <point x="751" y="231"/>
      <point x="796" y="247"/>
      <point x="848" y="259" type="curve"/>
      <point x="853" y="199"/>
      <point x="857" y="137"/>
      <point x="857" y="87" type="curve"/>
      <point x="875" y="87" type="line"/>
      <point x="875" y="139"/>
      <point x="878" y="204"/>
      <point x="885" y="267" type="curve"/>
      <point x="901" y="270"/>
      <point x="917" y="273"/>
      <point x="936" y="275" type="curve"/>
      <point x="943" y="210"/>
      <point x="947" y="142"/>
      <point x="947" y="87" type="curve"/>
      <point x="965" y="87" type="line"/>
      <point x="965" y="140"/>
      <point x="969" y="207"/>
      <point x="975" y="272" type="curve"/>
      <point x="1027" y="266" type="line"/>
      <point x="1033" y="203"/>
      <point x="1037" y="139"/>
      <point x="1037" y="87" type="curve"/>
      <point x="1055" y="87" type="line"/>
      <point x="1055" y="137"/>
      <point x="1058" y="199"/>
      <point x="1064" y="259" type="curve"/>
      <point x="1119" y="247" type="line"/>
      <point x="1124" y="191"/>
      <point x="1127" y="134"/>
      <point x="1127" y="87" type="curve"/>
      <point x="1145" y="87" type="line"/>
      <point x="1145" y="130"/>
      <point x="1148" y="183"/>
      <point x="1152" y="236" type="curve"/>
      <point x="1194" y="222"/>
      <point x="1231" y="205"/>
      <point x="1281" y="187" type="curve"/>
      <point x="1275" y="221"/>
      <point x="1272" y="256"/>
      <point x="1272" y="292" type="curve" smooth="yes"/>
      <point x="1272" y="327"/>
      <point x="1275" y="363"/>
      <point x="1281" y="402" type="curve"/>
      <point x="1241" y="387"/>
      <point x="1207" y="372"/>
      <point x="1166" y="358" type="curve"/>
      <point x="1174" y="413"/>
      <point x="1184" y="460"/>
      <point x="1194" y="484" type="curve"/>
      <point x="1172" y="480"/>
      <point x="1152" y="478"/>
      <point x="1133" y="478" type="curve" smooth="yes"/>
      <point x="1122" y="478"/>
      <point x="1112" y="479"/>
      <point x="1102" y="480" type="curve"/>
      <point x="1104" y="484" type="line"/>
      <point x="1099" y="483"/>
      <point x="1094" y="482"/>
      <point x="1090" y="482" type="curve" smooth="yes"/>
      <point x="1086" y="482"/>
      <point x="1082" y="483"/>
      <point x="1078" y="484" type="curve"/>
      <point x="1079" y="480" type="line"/>
      <point x="1066" y="479"/>
      <point x="1053" y="478"/>
      <point x="1041" y="478" type="curve" smooth="yes"/>
      <point x="1031" y="478"/>
      <point x="1021" y="479"/>
      <point x="1012" y="480" type="curve"/>
      <point x="1014" y="484" type="line"/>
      <point x="1009" y="483"/>
      <point x="1004" y="482"/>
      <point x="1000" y="482" type="curve" smooth="yes"/>
      <point x="996" y="482"/>
      <point x="992" y="483"/>
      <point x="988" y="484" type="curve"/>
      <point x="989" y="480" type="line"/>
      <point x="976" y="479"/>
      <point x="963" y="478"/>
      <point x="951" y="478" type="curve" smooth="yes"/>
      <point x="941" y="478"/>
      <point x="931" y="479"/>
      <point x="922" y="480" type="curve"/>
      <point x="924" y="484" type="line"/>
      <point x="919" y="483"/>
      <point x="914" y="482"/>
      <point x="910" y="482" type="curve" smooth="yes"/>
      <point x="906" y="482"/>
      <point x="902" y="483"/>
      <point x="898" y="484" type="curve"/>
      <point x="899" y="480" type="line"/>
      <point x="887" y="479"/>
      <point x="876" y="478"/>
      <point x="865" y="478" type="curve" smooth="yes"/>
      <point x="845" y="478"/>
      <point x="827" y="480"/>
      <point x="808" y="484" type="curve"/>
      <point x="820" y="453"/>
      <point x="831" y="399"/>
      <point x="839" y="338" type="curve"/>
      <point x="786" y="351"/>
      <point x="747" y="368"/>
      <point x="708" y="384" type="curve"/>
      <point x="710" y="373" type="line"/>
      <point x="640" y="460"/>
      <point x="617" y="512"/>
      <point x="589" y="583" type="curve"/>
      <point x="550" y="529"/>
      <point x="513" y="493"/>
      <point x="466" y="460" type="curve"/>
      <point x="488" y="450"/>
      <point x="508" y="443"/>
      <point x="526" y="435" type="curve"/>
      <point x="487" y="398"/>
      <point x="453" y="367"/>
      <point x="423" y="341" type="curve"/>
      <point x="367" y="413"/>
      <point x="336" y="462"/>
      <point x="311" y="511" type="curve"/>
      <point x="294" y="487"/>
      <point x="277" y="468"/>
      <point x="258" y="452" type="curve"/>
      <point x="275" y="569"/>
      <point x="296" y="662"/>
      <point x="316" y="736" type="curve"/>
      <point x="278" y="728"/>
      <point x="241" y="724"/>
      <point x="205" y="724" type="curve" smooth="yes"/>
      <point x="169" y="724"/>
      <point x="134" y="728"/>
      <point x="100" y="736" type="curve"/>
      <point x="146" y="569"/>
      <point x="195" y="298"/>
    </contour>
    <contour>
      <point x="556" y="182" type="curve"/>
      <point x="513" y="231"/>
      <point x="478" y="273"/>
      <point x="449" y="309" type="curve"/>
      <point x="475" y="341"/>
      <point x="508" y="379"/>
      <point x="548" y="425" type="curve"/>
      <point x="596" y="402"/>
      <point x="639" y="376"/>
      <point x="715" y="318" type="curve"/>
      <point x="716" y="307"/>
      <point x="716" y="295"/>
      <point x="716" y="284" type="curve"/>
      <point x="644" y="229"/>
      <point x="601" y="203"/>
    </contour>
    <contour>
      <point x="931" y="321" type="curve"/>
      <point x="892" y="327" type="line"/>
      <point x="898" y="370"/>
      <point x="904" y="410"/>
      <point x="911" y="440" type="curve"/>
      <point x="919" y="407"/>
      <point x="926" y="366"/>
    </contour>
    <contour>
      <point x="981" y="319" type="curve"/>
      <point x="987" y="365"/>
      <point x="993" y="408"/>
      <point x="1001" y="440" type="curve"/>
      <point x="1009" y="408"/>
      <point x="1016" y="367"/>
      <point x="1021" y="324" type="curve"/>
      <point x="1009" y="322"/>
      <point x="995" y="320"/>
    </contour>
    <contour>
      <point x="1073" y="333" type="curve"/>
      <point x="1078" y="374"/>
      <point x="1084" y="411"/>
      <point x="1091" y="440" type="curve"/>
      <point x="1097" y="412"/>
      <point x="1104" y="378"/>
      <point x="1109" y="341" type="curve"/>
      <point x="1097" y="338"/>
      <point x="1086" y="335"/>
    </contour>
    <contour>
      <point x="1398" y="-112" type="curve"/>
      <point x="1419" y="-112" type="line"/>
      <point x="1430" y="119"/>
      <point x="1466" y="266"/>
      <point x="1516" y="383" type="curve"/>
      <point x="1483" y="377"/>
      <point x="1453" y="374"/>
      <point x="1424" y="373" type="curve"/>
      <point x="1444" y="547"/>
      <point x="1491" y="672"/>
      <point x="1517" y="736" type="curve"/>
      <point x="1483" y="729"/>
      <point x="1450" y="727"/>
      <point x="1417" y="727" type="curve" smooth="yes"/>
      <point x="1377" y="727"/>
      <point x="1339" y="731"/>
      <point x="1301" y="736" type="curve"/>
      <point x="1332" y="669"/>
      <point x="1366" y="557"/>
      <point x="1397" y="373" type="curve"/>
      <point x="1364" y="373"/>
      <point x="1333" y="377"/>
      <point x="1301" y="383" type="curve"/>
      <point x="1356" y="250"/>
      <point x="1373" y="128"/>
    </contour>
  </outline>
</glyph>
<glyph name="u12008" format="2">
  <advance width="1447"/>
  <unicode hex="12008"/>
  <outline>
    <contour>
      <point x="1228" y="-112" type="curve"/>
      <point x="1249" y="-112" type="line"/>
      <point x="1260" y="119"/>
      <point x="1296" y="266"/>
      <point x="1346" y="383" type="curve"/>
      <point x="1313" y="377"/>
      <point x="1283" y="374"/>
      <point x="1254" y="373" type="curve"/>
      <point x="1274" y="547"/>
      <point x="1321" y="672"/>
      <point x="1347" y="736" type="curve"/>
      <point x="1313" y="729"/>
      <point x="1280" y="727"/>
      <point x="1247" y="727" type="curve" smooth="yes"/>
      <point x="1207" y="727"/>
      <point x="1169" y="731"/>
      <point x="1131" y="736" type="curve"/>
      <point x="1141" y="715"/>
      <point x="1151" y="689"/>
      <point x="1161" y="658" type="curve"/>
      <point x="1125" y="651"/>
      <point x="1089" y="647"/>
      <point x="1054" y="647" type="curve" smooth="yes"/>
      <point x="1018" y="647"/>
      <point x="984" y="651"/>
      <point x="950" y="659" type="curve"/>
      <point x="969" y="612"/>
      <point x="991" y="551"/>
      <point x="1008" y="459" type="curve"/>
      <point x="854" y="470"/>
      <point x="723" y="492"/>
      <point x="646" y="524" type="curve"/>
      <point x="651" y="493"/>
      <point x="654" y="464"/>
      <point x="654" y="437" type="curve" smooth="yes"/>
      <point x="654" y="409"/>
      <point x="651" y="382"/>
      <point x="646" y="354" type="curve"/>
      <point x="740" y="392"/>
      <point x="856" y="412"/>
      <point x="1014" y="428" type="curve"/>
      <point x="1025" y="364"/>
      <point x="1034" y="285"/>
      <point x="1039" y="187" type="curve"/>
      <point x="870" y="196"/>
      <point x="729" y="220"/>
      <point x="646" y="254" type="curve"/>
      <point x="651" y="223"/>
      <point x="654" y="194"/>
      <point x="654" y="167" type="curve" smooth="yes"/>
      <point x="654" y="139"/>
      <point x="651" y="112"/>
      <point x="646" y="84" type="curve"/>
      <point x="746" y="125"/>
      <point x="867" y="144"/>
      <point x="1041" y="161" type="curve"/>
      <point x="1043" y="106"/>
      <point x="1045" y="45"/>
      <point x="1045" y="-22" type="curve"/>
      <point x="1071" y="-22" type="line"/>
      <point x="1071" y="380"/>
      <point x="1122" y="550"/>
      <point x="1163" y="652" type="curve"/>
      <point x="1185" y="586"/>
      <point x="1207" y="495"/>
      <point x="1227" y="373" type="curve"/>
      <point x="1194" y="373"/>
      <point x="1163" y="377"/>
      <point x="1131" y="383" type="curve"/>
      <point x="1186" y="250"/>
      <point x="1203" y="128"/>
    </contour>
    <contour>
      <point x="234" y="237" type="curve"/>
      <point x="237" y="282"/>
      <point x="242" y="324"/>
      <point x="246" y="364" type="curve"/>
      <point x="255" y="348"/>
      <point x="262" y="331"/>
      <point x="268" y="311" type="curve"/>
      <point x="259" y="282"/>
      <point x="248" y="258"/>
    </contour>
    <contour>
      <point x="428" y="191" type="curve"/>
      <point x="357" y="238"/>
      <point x="306" y="277"/>
      <point x="272" y="311" type="curve"/>
      <point x="301" y="340"/>
      <point x="334" y="368"/>
      <point x="381" y="402" type="curve"/>
      <point x="399" y="348"/>
      <point x="417" y="275"/>
    </contour>
    <contour>
      <point x="195" y="-112" type="curve"/>
      <point x="221" y="-112" type="line"/>
      <point x="221" y="5"/>
      <point x="225" y="110"/>
      <point x="231" y="205" type="curve"/>
      <point x="288" y="191"/>
      <point x="351" y="167"/>
      <point x="435" y="129" type="curve"/>
      <point x="440" y="81"/>
      <point x="443" y="30"/>
      <point x="443" y="-22" type="curve"/>
      <point x="465" y="-22" type="line"/>
      <point x="465" y="25"/>
      <point x="467" y="70"/>
      <point x="470" y="113" type="curve"/>
      <point x="498" y="100"/>
      <point x="529" y="87"/>
      <point x="562" y="71" type="curve"/>
      <point x="562" y="42"/>
      <point x="563" y="10"/>
      <point x="563" y="-22" type="curve"/>
      <point x="589" y="-22" type="line"/>
      <point x="589" y="6"/>
      <point x="589" y="32"/>
      <point x="590" y="58" type="curve"/>
      <point x="623" y="42"/>
      <point x="658" y="25"/>
      <point x="697" y="7" type="curve"/>
      <point x="704" y="20" type="line"/>
      <point x="663" y="44"/>
      <point x="625" y="66"/>
      <point x="590" y="88" type="curve"/>
      <point x="599" y="420"/>
      <point x="646" y="566"/>
      <point x="684" y="659" type="curve"/>
      <point x="646" y="651"/>
      <point x="609" y="647"/>
      <point x="573" y="647" type="curve" smooth="yes"/>
      <point x="537" y="647"/>
      <point x="502" y="651"/>
      <point x="468" y="659" type="curve"/>
      <point x="482" y="624"/>
      <point x="498" y="581"/>
      <point x="512" y="523" type="curve"/>
      <point x="384" y="464"/>
      <point x="321" y="440"/>
      <point x="253" y="422" type="curve"/>
      <point x="271" y="553"/>
      <point x="294" y="656"/>
      <point x="316" y="736" type="curve"/>
      <point x="278" y="728"/>
      <point x="241" y="724"/>
      <point x="205" y="724" type="curve" smooth="yes"/>
      <point x="169" y="724"/>
      <point x="134" y="728"/>
      <point x="100" y="736" type="curve"/>
      <point x="146" y="569"/>
      <point x="195" y="298"/>
    </contour>
    <contour>
      <point x="561" y="106" type="curve"/>
      <point x="530" y="125"/>
      <point x="501" y="143"/>
      <point x="475" y="160" type="curve"/>
      <point x="486" y="263"/>
      <point x="507" y="352"/>
      <point x="533" y="421" type="curve"/>
      <point x="547" y="340"/>
      <point x="557" y="238"/>
    </contour>
    <contour>
      <point x="455" y="427" type="curve" smooth="yes"/>
      <point x="443" y="427"/>
      <point x="431" y="427"/>
      <point x="419" y="428" type="curve"/>
      <point x="447" y="448"/>
      <point x="480" y="469"/>
      <point x="519" y="493" type="curve"/>
      <point x="523" y="475"/>
      <point x="528" y="455"/>
      <point x="531" y="433" type="curve"/>
      <point x="506" y="429"/>
      <point x="481" y="427"/>
    </contour>
  </outline>
</glyph>
<glyph name="u12009" format="2">
  <advance width="1332"/>
  <unicode hex="12009"/>
  <outline>
    <contour>
      <point x="439" y="-144" type="curve"/>
      <point x="461" y="-144" type="line"/>
      <point x="462" y="-117"/>
      <point x="463" y="-82"/>
      <point x="465" y="-45" type="curve"/>
      <point x="508" y="-39"/>
      <point x="554" y="-34"/>
      <point x="605" y="-29" type="curve"/>
      <point x="605" y="-3" type="line"/>
      <point x="556" y="0"/>
      <point x="510" y="2"/>
      <point x="468" y="6" type="curve"/>
      <point x="472" y="87"/>
      <point x="478" y="179"/>
      <point x="485" y="267" type="curve"/>
      <point x="488" y="243"/>
      <point x="490" y="220"/>
      <point x="490" y="198" type="curve" smooth="yes"/>
      <point x="490" y="169"/>
      <point x="487" y="141"/>
      <point x="482" y="113" type="curve"/>
      <point x="544" y="139"/>
      <point x="628" y="160"/>
      <point x="747" y="174" type="curve"/>
      <point x="963" y="149"/>
      <point x="1053" y="81"/>
      <point x="1098" y="39" type="curve"/>
      <point x="1090" y="81"/>
      <point x="1086" y="140"/>
      <point x="1086" y="201" type="curve" smooth="yes"/>
      <point x="1086" y="234"/>
      <point x="1087" y="268"/>
      <point x="1090" y="300" type="curve"/>
      <point x="1103" y="171"/>
      <point x="1111" y="23"/>
      <point x="1111" y="-142" type="curve"/>
      <point x="1137" y="-142" type="line"/>
      <point x="1137" y="269"/>
      <point x="1186" y="569"/>
      <point x="1232" y="736" type="curve"/>
      <point x="1194" y="728"/>
      <point x="1157" y="724"/>
      <point x="1121" y="724" type="curve" smooth="yes"/>
      <point x="1085" y="724"/>
      <point x="1050" y="728"/>
      <point x="1016" y="736" type="curve"/>
      <point x="1039" y="640" type="line"/>
      <point x="636" y="641"/>
      <point x="264" y="689"/>
      <point x="100" y="735" type="curve"/>
      <point x="108" y="701"/>
      <point x="112" y="666"/>
      <point x="112" y="630" type="curve" smooth="yes"/>
      <point x="112" y="594"/>
      <point x="108" y="557"/>
      <point x="100" y="519" type="curve"/>
      <point x="127" y="526"/>
      <point x="162" y="534"/>
      <point x="201" y="542" type="curve"/>
      <point x="203" y="531"/>
      <point x="204" y="520"/>
      <point x="204" y="509" type="curve" smooth="yes"/>
      <point x="204" y="490"/>
      <point x="201" y="472"/>
      <point x="198" y="453" type="curve"/>
      <point x="198" y="450" type="line"/>
      <point x="199" y="450" type="line"/>
      <point x="202" y="435"/>
      <point x="204" y="420"/>
      <point x="204" y="406" type="curve" smooth="yes"/>
      <point x="204" y="387"/>
      <point x="201" y="369"/>
      <point x="198" y="350" type="curve"/>
      <point x="198" y="347" type="line"/>
      <point x="199" y="347" type="line"/>
      <point x="202" y="331"/>
      <point x="203" y="317"/>
      <point x="203" y="302" type="curve" smooth="yes"/>
      <point x="203" y="284"/>
      <point x="201" y="266"/>
      <point x="198" y="248" type="curve"/>
      <point x="198" y="245" type="line"/>
      <point x="199" y="245" type="line"/>
      <point x="202" y="230"/>
      <point x="203" y="216"/>
      <point x="203" y="201" type="curve" smooth="yes"/>
      <point x="203" y="183"/>
      <point x="201" y="164"/>
      <point x="198" y="146" type="curve"/>
      <point x="198" y="143" type="line"/>
      <point x="199" y="143" type="line"/>
      <point x="202" y="127"/>
      <point x="204" y="112"/>
      <point x="204" y="97" type="curve" smooth="yes"/>
      <point x="204" y="81"/>
      <point x="202" y="66"/>
      <point x="200" y="50" type="curve"/>
      <point x="162" y="60"/>
      <point x="129" y="71"/>
      <point x="100" y="84" type="curve"/>
      <point x="107" y="44"/>
      <point x="110" y="9"/>
      <point x="110" y="-26" type="curve" smooth="yes"/>
      <point x="110" y="-62"/>
      <point x="107" y="-96"/>
      <point x="100" y="-131" type="curve"/>
      <point x="197" y="-91"/>
      <point x="293" y="-68"/>
      <point x="431" y="-49" type="curve"/>
      <point x="433" y="-85"/>
      <point x="436" y="-117"/>
    </contour>
    <contour>
      <point x="427" y="11" type="curve"/>
      <point x="346" y="20"/>
      <point x="276" y="31"/>
      <point x="216" y="46" type="curve"/>
      <point x="259" y="58"/>
      <point x="346" y="71"/>
      <point x="422" y="82" type="curve"/>
      <point x="423" y="58"/>
      <point x="425" y="34"/>
    </contour>
    <contour>
      <point x="420" y="103" type="line"/>
      <point x="338" y="115"/>
      <point x="238" y="133"/>
      <point x="203" y="145" type="curve"/>
      <point x="237" y="156"/>
      <point x="331" y="171"/>
      <point x="414" y="182" type="curve"/>
    </contour>
    <contour>
      <point x="412" y="208" type="line"/>
      <point x="331" y="219"/>
      <point x="236" y="235"/>
      <point x="203" y="247" type="curve"/>
      <point x="236" y="259"/>
      <point x="325" y="271"/>
      <point x="406" y="283" type="curve"/>
    </contour>
    <contour>
      <point x="404" y="311" type="line"/>
      <point x="324" y="322"/>
      <point x="235" y="337"/>
      <point x="203" y="349" type="curve"/>
      <point x="233" y="360"/>
      <point x="317" y="372"/>
      <point x="396" y="383" type="curve"/>
    </contour>
    <contour>
      <point x="393" y="417" type="line"/>
      <point x="314" y="428"/>
      <point x="230" y="441"/>
      <point x="202" y="451" type="curve"/>
      <point x="230" y="461"/>
      <point x="308" y="473"/>
      <point x="384" y="484" type="curve"/>
    </contour>
    <contour>
      <point x="378" y="522" type="curve"/>
      <point x="323" y="530"/>
      <point x="266" y="539"/>
      <point x="230" y="547" type="curve"/>
      <point x="272" y="555"/>
      <point x="317" y="562"/>
      <point x="368" y="569" type="curve"/>
      <point x="371" y="556"/>
      <point x="375" y="540"/>
    </contour>
    <contour>
      <point x="629" y="247" type="curve"/>
      <point x="567" y="257"/>
      <point x="520" y="269"/>
      <point x="486" y="282" type="curve"/>
      <point x="496" y="415"/>
      <point x="509" y="535"/>
      <point x="524" y="587" type="curve"/>
      <point x="568" y="592"/>
      <point x="613" y="596"/>
      <point x="660" y="599" type="curve"/>
      <point x="605" y="552"/>
      <point x="578" y="534"/>
      <point x="552" y="512" type="curve"/>
      <point x="594" y="483"/>
      <point x="612" y="466"/>
      <point x="674" y="409" type="curve"/>
      <point x="610" y="352"/>
      <point x="580" y="332"/>
      <point x="552" y="309" type="curve"/>
      <point x="582" y="289"/>
      <point x="600" y="274"/>
    </contour>
    <contour>
      <point x="770" y="229" type="curve"/>
      <point x="737" y="232"/>
      <point x="706" y="236"/>
      <point x="678" y="240" type="curve"/>
      <point x="664" y="264"/>
      <point x="653" y="287"/>
      <point x="640" y="309" type="curve"/>
      <point x="658" y="340"/>
      <point x="672" y="371"/>
      <point x="697" y="409" type="curve"/>
      <point x="698" y="411" type="line"/>
      <point x="672" y="448"/>
      <point x="658" y="481"/>
      <point x="640" y="512" type="curve"/>
      <point x="657" y="540"/>
      <point x="670" y="568"/>
      <point x="691" y="601" type="curve"/>
      <point x="789" y="607" type="line"/>
      <point x="729" y="553"/>
      <point x="700" y="535"/>
      <point x="673" y="512" type="curve"/>
      <point x="715" y="483"/>
      <point x="733" y="466"/>
      <point x="795" y="409" type="curve"/>
      <point x="731" y="352"/>
      <point x="701" y="332"/>
      <point x="673" y="309" type="curve"/>
      <point x="709" y="285"/>
      <point x="727" y="268"/>
    </contour>
    <contour>
      <point x="804" y="230" type="curve"/>
      <point x="787" y="258"/>
      <point x="776" y="284"/>
      <point x="761" y="309" type="curve"/>
      <point x="779" y="340"/>
      <point x="793" y="371"/>
      <point x="818" y="409" type="curve"/>
      <point x="819" y="411" type="line"/>
      <point x="793" y="448"/>
      <point x="779" y="481"/>
      <point x="761" y="512" type="curve"/>
      <point x="779" y="542"/>
      <point x="792" y="572"/>
      <point x="816" y="608" type="curve"/>
      <point x="849" y="610"/>
      <point x="882" y="611"/>
      <point x="916" y="612" type="curve"/>
      <point x="852" y="555"/>
      <point x="822" y="535"/>
      <point x="794" y="512" type="curve"/>
      <point x="836" y="483"/>
      <point x="854" y="466"/>
      <point x="916" y="409" type="curve"/>
      <point x="852" y="352"/>
      <point x="822" y="332"/>
      <point x="794" y="309" type="curve"/>
      <point x="825" y="288"/>
      <point x="843" y="273"/>
      <point x="874" y="245" type="curve"/>
      <point x="853" y="239"/>
      <point x="830" y="234"/>
    </contour>
    <contour>
      <point x="911" y="256" type="curve"/>
      <point x="901" y="274"/>
      <point x="892" y="292"/>
      <point x="882" y="309" type="curve"/>
      <point x="900" y="340"/>
      <point x="914" y="371"/>
      <point x="939" y="409" type="curve"/>
      <point x="940" y="411" type="line"/>
      <point x="914" y="448"/>
      <point x="900" y="481"/>
      <point x="882" y="512" type="curve"/>
      <point x="901" y="543"/>
      <point x="914" y="574"/>
      <point x="940" y="612" type="curve"/>
      <point x="974" y="613"/>
      <point x="1009" y="614"/>
      <point x="1044" y="614" type="curve"/>
      <point x="1059" y="540"/>
      <point x="1074" y="451"/>
      <point x="1085" y="349" type="curve"/>
      <point x="1041" y="317"/>
      <point x="993" y="282"/>
    </contour>
  </outline>
</glyph>
<glyph name="u1200B" format="2">
  <advance width="1448"/>
  <unicode hex="1200B"/>
  <outline>
    <contour>
      <point x="1227" y="-112" type="line"/>
      <point x="1253" y="-112" type="line"/>
      <point x="1253" y="299"/>
      <point x="1302" y="569"/>
      <point x="1348" y="736" type="curve"/>
      <point x="1310" y="728"/>
      <point x="1273" y="724"/>
      <point x="1237" y="724" type="curve" smooth="yes"/>
      <point x="1201" y="724"/>
      <point x="1166" y="728"/>
      <point x="1132" y="736" type="curve"/>
      <point x="1138" y="714"/>
      <point x="1144" y="692"/>
      <point x="1150" y="667" type="curve"/>
      <point x="868" y="584"/>
      <point x="697" y="568"/>
      <point x="553" y="559" type="curve"/>
      <point x="570" y="530"/>
      <point x="585" y="501"/>
      <point x="596" y="471" type="curve"/>
      <point x="382" y="484"/>
      <point x="204" y="512"/>
      <point x="100" y="556" type="curve"/>
      <point x="107" y="516"/>
      <point x="110" y="481"/>
      <point x="110" y="446" type="curve" smooth="yes"/>
      <point x="110" y="410"/>
      <point x="107" y="376"/>
      <point x="100" y="341" type="curve"/>
      <point x="227" y="393"/>
      <point x="382" y="416"/>
      <point x="606" y="440" type="curve"/>
      <point x="615" y="412"/>
      <point x="620" y="383"/>
      <point x="623" y="355" type="curve"/>
      <point x="741" y="437"/>
      <point x="886" y="529"/>
      <point x="1157" y="634" type="curve"/>
      <point x="1171" y="567"/>
      <point x="1186" y="490"/>
      <point x="1197" y="400" type="curve"/>
      <point x="1101" y="410" type="line"/>
      <point x="1111" y="461"/>
      <point x="1123" y="506"/>
      <point x="1138" y="543" type="curve"/>
      <point x="1110" y="538"/>
      <point x="1083" y="535"/>
      <point x="1055" y="535" type="curve" smooth="yes"/>
      <point x="1028" y="535"/>
      <point x="999" y="538"/>
      <point x="968" y="543" type="curve"/>
      <point x="980" y="514"/>
      <point x="990" y="471"/>
      <point x="999" y="421" type="curve"/>
      <point x="929" y="430"/>
      <point x="869" y="438"/>
      <point x="853" y="445" type="curve"/>
      <point x="857" y="428"/>
      <point x="859" y="412"/>
      <point x="859" y="396" type="curve" smooth="yes"/>
      <point x="859" y="377"/>
      <point x="856" y="357"/>
      <point x="853" y="338" type="curve"/>
      <point x="870" y="345"/>
      <point x="935" y="353"/>
      <point x="1009" y="361" type="curve"/>
      <point x="1012" y="344"/>
      <point x="1014" y="327"/>
      <point x="1016" y="309" type="curve"/>
      <point x="939" y="318"/>
      <point x="870" y="327"/>
      <point x="853" y="334" type="curve"/>
      <point x="857" y="317"/>
      <point x="859" y="301"/>
      <point x="859" y="285" type="curve" smooth="yes"/>
      <point x="859" y="266"/>
      <point x="856" y="247"/>
      <point x="853" y="228" type="curve"/>
      <point x="871" y="236"/>
      <point x="943" y="245"/>
      <point x="1023" y="253" type="curve"/>
      <point x="1028" y="198" type="line"/>
      <point x="946" y="207"/>
      <point x="871" y="217"/>
      <point x="853" y="224" type="curve"/>
      <point x="857" y="207"/>
      <point x="859" y="191"/>
      <point x="859" y="175" type="curve" smooth="yes"/>
      <point x="859" y="156"/>
      <point x="856" y="137"/>
      <point x="853" y="118" type="curve"/>
      <point x="872" y="126"/>
      <point x="949" y="136"/>
      <point x="1032" y="144" type="curve"/>
      <point x="1034" y="118"/>
      <point x="1035" y="92"/>
      <point x="1036" y="66" type="curve"/>
      <point x="1058" y="66" type="line"/>
      <point x="1065" y="148" type="line"/>
      <point x="1123" y="154"/>
      <point x="1180" y="159"/>
      <point x="1219" y="164" type="curve"/>
      <point x="1223" y="89"/>
      <point x="1226" y="8"/>
      <point x="1227" y="-79" type="curve"/>
      <point x="854" y="49"/>
      <point x="762" y="130"/>
      <point x="623" y="227" type="curve"/>
      <point x="620" y="198"/>
      <point x="614" y="169"/>
      <point x="606" y="140" type="curve"/>
      <point x="388" y="152"/>
      <point x="206" y="182"/>
      <point x="100" y="226" type="curve"/>
      <point x="107" y="186"/>
      <point x="110" y="151"/>
      <point x="110" y="116" type="curve" smooth="yes"/>
      <point x="110" y="80"/>
      <point x="107" y="46"/>
      <point x="100" y="11" type="curve"/>
      <point x="225" y="62"/>
      <point x="377" y="85"/>
      <point x="595" y="109" type="curve"/>
      <point x="584" y="80"/>
      <point x="570" y="51"/>
      <point x="553" y="23" type="curve"/>
      <point x="722" y="12"/>
      <point x="850" y="19"/>
      <point x="1227" y="-106" type="curve"/>
    </contour>
    <contour>
      <point x="1218" y="178" type="line"/>
      <point x="1070" y="193" type="line"/>
      <point x="1078" y="259" type="line"/>
      <point x="1127" y="264"/>
      <point x="1175" y="268"/>
      <point x="1211" y="273" type="curve"/>
    </contour>
    <contour>
      <point x="1209" y="289" type="curve"/>
      <point x="1083" y="301" type="line"/>
      <point x="1086" y="325"/>
      <point x="1090" y="348"/>
      <point x="1094" y="370" type="curve"/>
      <point x="1199" y="381" type="line"/>
      <point x="1203" y="352"/>
      <point x="1206" y="321"/>
    </contour>
  </outline>
</glyph>
<glyph name="u1200C" format="2">
  <advance width="1448"/>
  <unicode hex="1200C"/>
  <outline>
    <contour>
      <point x="1227" y="-112" type="line"/>
      <point x="1253" y="-112" type="line"/>
      <point x="1253" y="299"/>
      <point x="1302" y="569"/>
      <point x="1348" y="736" type="curve"/>
      <point x="1310" y="728"/>
      <point x="1273" y="724"/>
      <point x="1237" y="724" type="curve" smooth="yes"/>
      <point x="1201" y="724"/>
      <point x="1166" y="728"/>
      <point x="1132" y="736" type="curve"/>
      <point x="1138" y="714"/>
      <point x="1144" y="692"/>
      <point x="1150" y="667" type="curve"/>
      <point x="868" y="584"/>
      <point x="697" y="568"/>
      <point x="553" y="559" type="curve"/>
      <point x="570" y="530"/>
      <point x="585" y="501"/>
      <point x="596" y="471" type="curve"/>
      <point x="382" y="484"/>
      <point x="204" y="512"/>
      <point x="100" y="556" type="curve"/>
      <point x="107" y="516"/>
      <point x="110" y="481"/>
      <point x="110" y="446" type="curve" smooth="yes"/>
      <point x="110" y="410"/>
      <point x="107" y="376"/>
      <point x="100" y="341" type="curve"/>
      <point x="227" y="393"/>
      <point x="382" y="416"/>
      <point x="606" y="440" type="curve"/>
      <point x="615" y="412"/>
      <point x="620" y="383"/>
      <point x="623" y="355" type="curve"/>
      <point x="662" y="382"/>
      <point x="704" y="411"/>
      <point x="753" y="440" type="curve"/>
      <point x="756" y="425"/>
      <point x="757" y="408"/>
      <point x="757" y="393" type="curve" smooth="yes"/>
      <point x="757" y="374"/>
      <point x="755" y="357"/>
      <point x="753" y="347" type="curve"/>
      <point x="773" y="352"/>
      <point x="858" y="368"/>
      <point x="979" y="378" type="curve"/>
      <point x="983" y="352"/>
      <point x="986" y="325"/>
      <point x="987" y="304" type="curve"/>
      <point x="956" y="310" type="line"/>
      <point x="960" y="338"/>
      <point x="964" y="361"/>
      <point x="967" y="368" type="curve"/>
      <point x="959" y="366"/>
      <point x="951" y="366"/>
      <point x="944" y="366" type="curve" smooth="yes"/>
      <point x="932" y="366"/>
      <point x="920" y="367"/>
      <point x="908" y="368" type="curve"/>
      <point x="916" y="348"/>
      <point x="932" y="225"/>
      <point x="933" y="176" type="curve"/>
      <point x="888" y="180"/>
      <point x="841" y="191"/>
      <point x="805" y="201" type="curve"/>
      <point x="810" y="259"/>
      <point x="822" y="336"/>
      <point x="827" y="350" type="curve"/>
      <point x="819" y="348"/>
      <point x="811" y="348"/>
      <point x="804" y="348" type="curve" smooth="yes"/>
      <point x="792" y="348"/>
      <point x="780" y="349"/>
      <point x="768" y="350" type="curve"/>
      <point x="774" y="335"/>
      <point x="785" y="262"/>
      <point x="790" y="205" type="curve"/>
      <point x="773" y="210"/>
      <point x="760" y="215"/>
      <point x="753" y="218" type="curve"/>
      <point x="756" y="204"/>
      <point x="757" y="187"/>
      <point x="757" y="172" type="curve" smooth="yes"/>
      <point x="757" y="159"/>
      <point x="756" y="146"/>
      <point x="755" y="135" type="curve"/>
      <point x="708" y="166"/>
      <point x="668" y="195"/>
      <point x="623" y="227" type="curve"/>
      <point x="620" y="198"/>
      <point x="614" y="169"/>
      <point x="606" y="140" type="curve"/>
      <point x="388" y="152"/>
      <point x="206" y="182"/>
      <point x="100" y="226" type="curve"/>
      <point x="107" y="186"/>
      <point x="110" y="151"/>
      <point x="110" y="116" type="curve" smooth="yes"/>
      <point x="110" y="80"/>
      <point x="107" y="46"/>
      <point x="100" y="11" type="curve"/>
      <point x="225" y="62"/>
      <point x="377" y="85"/>
      <point x="595" y="109" type="curve"/>
      <point x="584" y="80"/>
      <point x="570" y="51"/>
      <point x="553" y="23" type="curve"/>
      <point x="722" y="12"/>
      <point x="850" y="19"/>
      <point x="1227" y="-106" type="curve"/>
    </contour>
    <contour>
      <point x="1227" y="-79" type="curve"/>
      <point x="988" y="3"/>
      <point x="864" y="66"/>
      <point x="770" y="126" type="curve"/>
      <point x="813" y="138"/>
      <point x="904" y="163"/>
      <point x="973" y="163" type="curve"/>
      <point x="973" y="174" type="line"/>
      <point x="963" y="174"/>
      <point x="952" y="174"/>
      <point x="942" y="175" type="curve"/>
      <point x="942" y="206"/>
      <point x="949" y="264"/>
      <point x="955" y="308" type="curve"/>
      <point x="956" y="301"/>
      <point x="956" y="295"/>
      <point x="956" y="288" type="curve" smooth="yes"/>
      <point x="956" y="275"/>
      <point x="955" y="262"/>
      <point x="955" y="250" type="curve"/>
      <point x="972" y="258"/>
      <point x="1098" y="274"/>
      <point x="1163" y="276" type="curve"/>
      <point x="1165" y="253"/>
      <point x="1166" y="233"/>
      <point x="1166" y="221" type="curve"/>
      <point x="1175" y="221" type="line"/>
      <point x="1175" y="251"/>
      <point x="1182" y="329"/>
      <point x="1189" y="388" type="curve"/>
      <point x="1199" y="388" type="line"/>
      <point x="1215" y="258"/>
      <point x="1226" y="104"/>
    </contour>
    <contour>
      <point x="1047" y="296" type="curve"/>
      <point x="1029" y="298"/>
      <point x="1012" y="301"/>
      <point x="997" y="303" type="curve"/>
      <point x="999" y="325"/>
      <point x="1002" y="354"/>
      <point x="1006" y="380" type="curve"/>
      <point x="1017" y="381"/>
      <point x="1027" y="382"/>
      <point x="1038" y="382" type="curve"/>
      <point x="1042" y="352"/>
      <point x="1046" y="319"/>
    </contour>
    <contour>
      <point x="1106" y="290" type="curve"/>
      <point x="1089" y="291"/>
      <point x="1073" y="293"/>
      <point x="1056" y="295" type="curve"/>
      <point x="1056" y="319"/>
      <point x="1061" y="353"/>
      <point x="1066" y="384" type="curve"/>
      <point x="1076" y="384"/>
      <point x="1086" y="385"/>
      <point x="1096" y="385" type="curve"/>
      <point x="1102" y="352"/>
      <point x="1106" y="314"/>
    </contour>
    <contour>
      <point x="1162" y="286" type="curve"/>
      <point x="1149" y="286"/>
      <point x="1132" y="288"/>
      <point x="1115" y="289" type="curve"/>
      <point x="1115" y="314"/>
      <point x="1120" y="352"/>
      <point x="1125" y="386" type="curve"/>
      <point x="1134" y="387"/>
      <point x="1143" y="387"/>
      <point x="1152" y="387" type="curve"/>
      <point x="1156" y="355"/>
      <point x="1160" y="318"/>
    </contour>
    <contour>
      <point x="1128" y="400" type="line"/>
      <point x="1132" y="426"/>
      <point x="1137" y="447"/>
      <point x="1140" y="455" type="curve"/>
      <point x="1132" y="453"/>
      <point x="1124" y="453"/>
      <point x="1117" y="453" type="curve" smooth="yes"/>
      <point x="1105" y="453"/>
      <point x="1093" y="454"/>
      <point x="1081" y="455" type="curve"/>
      <point x="1084" y="447"/>
      <point x="1089" y="426"/>
      <point x="1093" y="401" type="curve"/>
      <point x="1069" y="403" type="line"/>
      <point x="1074" y="427"/>
      <point x="1078" y="447"/>
      <point x="1081" y="455" type="curve"/>
      <point x="1073" y="453"/>
      <point x="1065" y="453"/>
      <point x="1058" y="453" type="curve" smooth="yes"/>
      <point x="1046" y="453"/>
      <point x="1034" y="454"/>
      <point x="1022" y="455" type="curve"/>
      <point x="1025" y="447"/>
      <point x="1030" y="428"/>
      <point x="1034" y="405" type="curve"/>
      <point x="1011" y="407" type="line"/>
      <point x="1015" y="429"/>
      <point x="1019" y="448"/>
      <point x="1022" y="455" type="curve"/>
      <point x="1014" y="453"/>
      <point x="1006" y="453"/>
      <point x="999" y="453" type="curve" smooth="yes"/>
      <point x="987" y="453"/>
      <point x="975" y="454"/>
      <point x="963" y="455" type="curve"/>
      <point x="966" y="448"/>
      <point x="970" y="431"/>
      <point x="974" y="410" type="curve"/>
      <point x="862" y="420"/>
      <point x="782" y="434"/>
      <point x="757" y="442" type="curve"/>
      <point x="854" y="501"/>
      <point x="978" y="564"/>
      <point x="1157" y="634" type="curve"/>
      <point x="1168" y="581"/>
      <point x="1180" y="521"/>
      <point x="1190" y="453" type="curve"/>
      <point x="1187" y="453"/>
      <point x="1183" y="453"/>
      <point x="1180" y="453" type="curve" smooth="yes"/>
      <point x="1167" y="453"/>
      <point x="1154" y="454"/>
      <point x="1141" y="455" type="curve"/>
      <point x="1144" y="448"/>
      <point x="1147" y="427"/>
      <point x="1151" y="400" type="curve"/>
    </contour>
    <contour>
      <point x="1190" y="399" type="line"/>
      <point x="1194" y="424" type="line"/>
      <point x="1197" y="399" type="line"/>
    </contour>
  </outline>
</glyph>
<glyph name="u1200D" format="2">
  <advance width="1517"/>
  <unicode hex="1200D"/>
  <outline>
    <contour>
      <point x="1227" y="-112" type="line"/>
      <point x="1253" y="-112" type="line"/>
      <point x="1253" y="34"/>
      <point x="1259" y="162"/>
      <point x="1269" y="274" type="curve"/>
      <point x="1417" y="299" type="line"/>
      <point x="1417" y="309" type="line"/>
      <point x="1376" y="311"/>
      <point x="1322" y="317"/>
      <point x="1274" y="324" type="curve"/>
      <point x="1292" y="502"/>
      <point x="1321" y="637"/>
      <point x="1348" y="736" type="curve"/>
      <point x="1310" y="728"/>
      <point x="1273" y="724"/>
      <point x="1237" y="724" type="curve" smooth="yes"/>
      <point x="1201" y="724"/>
      <point x="1166" y="728"/>
      <point x="1132" y="736" type="curve"/>
      <point x="1138" y="714"/>
      <point x="1144" y="692"/>
      <point x="1150" y="667" type="curve"/>
      <point x="868" y="584"/>
      <point x="697" y="568"/>
      <point x="553" y="559" type="curve"/>
      <point x="570" y="530"/>
      <point x="585" y="501"/>
      <point x="596" y="471" type="curve"/>
      <point x="382" y="484"/>
      <point x="204" y="512"/>
      <point x="100" y="556" type="curve"/>
      <point x="107" y="516"/>
      <point x="110" y="481"/>
      <point x="110" y="446" type="curve" smooth="yes"/>
      <point x="110" y="410"/>
      <point x="107" y="376"/>
      <point x="100" y="341" type="curve"/>
      <point x="227" y="393"/>
      <point x="382" y="416"/>
      <point x="606" y="440" type="curve"/>
      <point x="615" y="412"/>
      <point x="620" y="383"/>
      <point x="623" y="355" type="curve"/>
      <point x="741" y="437"/>
      <point x="886" y="529"/>
      <point x="1157" y="634" type="curve"/>
      <point x="1163" y="604"/>
      <point x="1170" y="572"/>
      <point x="1176" y="537" type="curve"/>
      <point x="1161" y="536"/>
      <point x="1146" y="535"/>
      <point x="1131" y="535" type="curve" smooth="yes"/>
      <point x="1104" y="535"/>
      <point x="1075" y="537"/>
      <point x="1044" y="543" type="curve"/>
      <point x="1052" y="523"/>
      <point x="1061" y="494"/>
      <point x="1069" y="461" type="curve"/>
      <point x="988" y="468"/>
      <point x="888" y="483"/>
      <point x="864" y="493" type="curve"/>
      <point x="867" y="480"/>
      <point x="868" y="468"/>
      <point x="868" y="455" type="curve" smooth="yes"/>
      <point x="868" y="435"/>
      <point x="865" y="415"/>
      <point x="864" y="396" type="curve"/>
      <point x="890" y="409"/>
      <point x="989" y="425"/>
      <point x="1073" y="439" type="curve"/>
      <point x="1079" y="413"/>
      <point x="1085" y="384"/>
      <point x="1090" y="354" type="curve"/>
      <point x="1006" y="361"/>
      <point x="891" y="377"/>
      <point x="864" y="388" type="curve"/>
      <point x="867" y="375"/>
      <point x="868" y="363"/>
      <point x="868" y="350" type="curve" smooth="yes"/>
      <point x="868" y="330"/>
      <point x="865" y="310"/>
      <point x="864" y="291" type="curve"/>
      <point x="892" y="305"/>
      <point x="1005" y="322"/>
      <point x="1092" y="337" type="curve"/>
      <point x="1097" y="309"/>
      <point x="1101" y="279"/>
      <point x="1105" y="248" type="curve"/>
      <point x="1020" y="254"/>
      <point x="892" y="271"/>
      <point x="864" y="283" type="curve"/>
      <point x="867" y="270"/>
      <point x="868" y="258"/>
      <point x="868" y="245" type="curve" smooth="yes"/>
      <point x="868" y="225"/>
      <point x="865" y="205"/>
      <point x="864" y="186" type="curve"/>
      <point x="893" y="201"/>
      <point x="1017" y="219"/>
      <point x="1106" y="234" type="curve"/>
      <point x="1109" y="204"/>
      <point x="1112" y="173"/>
      <point x="1114" y="142" type="curve"/>
      <point x="1030" y="148"/>
      <point x="893" y="166"/>
      <point x="864" y="178" type="curve"/>
      <point x="867" y="165"/>
      <point x="868" y="153"/>
      <point x="868" y="140" type="curve" smooth="yes"/>
      <point x="868" y="120"/>
      <point x="865" y="100"/>
      <point x="864" y="81" type="curve"/>
      <point x="894" y="97"/>
      <point x="1026" y="115"/>
      <point x="1115" y="131" type="curve"/>
      <point x="1117" y="92"/>
      <point x="1119" y="53"/>
      <point x="1119" y="16" type="curve"/>
      <point x="1139" y="16" type="line"/>
      <point x="1139" y="120"/>
      <point x="1149" y="235"/>
      <point x="1165" y="335" type="curve"/>
      <point x="1166" y="326"/>
      <point x="1167" y="316"/>
      <point x="1167" y="307" type="curve" smooth="yes"/>
      <point x="1167" y="287"/>
      <point x="1164" y="267"/>
      <point x="1163" y="248" type="curve"/>
      <point x="1172" y="252"/>
      <point x="1189" y="257"/>
      <point x="1212" y="262" type="curve"/>
      <point x="1220" y="161"/>
      <point x="1226" y="48"/>
      <point x="1227" y="-79" type="curve"/>
      <point x="854" y="49"/>
      <point x="762" y="130"/>
      <point x="623" y="227" type="curve"/>
      <point x="620" y="198"/>
      <point x="614" y="169"/>
      <point x="606" y="140" type="curve"/>
      <point x="388" y="152"/>
      <point x="206" y="182"/>
      <point x="100" y="226" type="curve"/>
      <point x="107" y="186"/>
      <point x="110" y="151"/>
      <point x="110" y="116" type="curve" smooth="yes"/>
      <point x="110" y="80"/>
      <point x="107" y="46"/>
      <point x="100" y="11" type="curve"/>
      <point x="225" y="62"/>
      <point x="377" y="85"/>
      <point x="595" y="109" type="curve"/>
      <point x="584" y="80"/>
      <point x="570" y="51"/>
      <point x="553" y="23" type="curve"/>
      <point x="722" y="12"/>
      <point x="850" y="19"/>
      <point x="1227" y="-106" type="curve"/>
    </contour>
    <contour>
      <point x="1205" y="334" type="curve"/>
      <point x="1188" y="337"/>
      <point x="1174" y="341"/>
      <point x="1166" y="343" type="curve"/>
      <point x="1173" y="386"/>
      <point x="1181" y="426"/>
      <point x="1189" y="460" type="curve"/>
      <point x="1195" y="421"/>
      <point x="1200" y="379"/>
    </contour>
  </outline>
</glyph>
<glyph name="u1200E" format="2">
  <advance width="1448"/>
  <unicode hex="1200E"/>
  <outline>
    <contour>
      <point x="1227" y="-112" type="line"/>
      <point x="1253" y="-112" type="line"/>
      <point x="1253" y="299"/>
      <point x="1302" y="569"/>
      <point x="1348" y="736" type="curve"/>
      <point x="1310" y="728"/>
      <point x="1273" y="724"/>
      <point x="1237" y="724" type="curve" smooth="yes"/>
      <point x="1201" y="724"/>
      <point x="1166" y="728"/>
      <point x="1132" y="736" type="curve"/>
      <point x="1138" y="714"/>
      <point x="1144" y="692"/>
      <point x="1150" y="667" type="curve"/>
      <point x="868" y="584"/>
      <point x="697" y="568"/>
      <point x="553" y="559" type="curve"/>
      <point x="570" y="530"/>
      <point x="585" y="501"/>
      <point x="596" y="471" type="curve"/>
      <point x="382" y="484"/>
      <point x="204" y="512"/>
      <point x="100" y="556" type="curve"/>
      <point x="107" y="516"/>
      <point x="110" y="481"/>
      <point x="110" y="446" type="curve" smooth="yes"/>
      <point x="110" y="410"/>
      <point x="107" y="376"/>
      <point x="100" y="341" type="curve"/>
      <point x="227" y="393"/>
      <point x="382" y="416"/>
      <point x="606" y="440" type="curve"/>
      <point x="615" y="412"/>
      <point x="620" y="383"/>
      <point x="623" y="355" type="curve"/>
      <point x="741" y="437"/>
      <point x="886" y="529"/>
      <point x="1157" y="634" type="curve"/>
      <point x="1169" y="580"/>
      <point x="1180" y="518"/>
      <point x="1190" y="448" type="curve"/>
      <point x="1173" y="446"/>
      <point x="1157" y="445"/>
      <point x="1139" y="445" type="curve" smooth="yes"/>
      <point x="1112" y="445"/>
      <point x="1083" y="448"/>
      <point x="1051" y="453" type="curve"/>
      <point x="1065" y="417"/>
      <point x="1080" y="376"/>
      <point x="1093" y="326" type="curve"/>
      <point x="1031" y="399"/>
      <point x="950" y="495"/>
      <point x="940" y="518" type="curve"/>
      <point x="921" y="489"/>
      <point x="895" y="470"/>
      <point x="872" y="449" type="curve"/>
      <point x="896" y="436"/>
      <point x="1021" y="344"/>
      <point x="1103" y="286" type="curve"/>
      <point x="1115" y="225"/>
      <point x="1124" y="153"/>
      <point x="1126" y="66" type="curve"/>
      <point x="1107" y="86"/>
      <point x="1089" y="107"/>
      <point x="1071" y="128" type="curve"/>
      <point x="1076" y="184"/>
      <point x="1083" y="243"/>
      <point x="1088" y="255" type="curve"/>
      <point x="1079" y="253"/>
      <point x="1071" y="253"/>
      <point x="1063" y="253" type="curve" smooth="yes"/>
      <point x="1053" y="253"/>
      <point x="1045" y="253"/>
      <point x="1036" y="254" type="curve"/>
      <point x="1038" y="276"/>
      <point x="1041" y="292"/>
      <point x="1043" y="298" type="curve"/>
      <point x="1035" y="296"/>
      <point x="1027" y="296"/>
      <point x="1020" y="296" type="curve" smooth="yes"/>
      <point x="1008" y="296"/>
      <point x="997" y="297"/>
      <point x="985" y="298" type="curve"/>
      <point x="987" y="316"/>
      <point x="990" y="330"/>
      <point x="992" y="335" type="curve"/>
      <point x="984" y="333"/>
      <point x="976" y="333"/>
      <point x="969" y="333" type="curve" smooth="yes"/>
      <point x="957" y="333"/>
      <point x="945" y="334"/>
      <point x="933" y="335" type="curve"/>
      <point x="936" y="328"/>
      <point x="939" y="308"/>
      <point x="943" y="282" type="curve"/>
      <point x="929" y="299" type="line"/>
      <point x="932" y="335"/>
      <point x="936" y="364"/>
      <point x="939" y="372" type="curve"/>
      <point x="931" y="370"/>
      <point x="923" y="370"/>
      <point x="916" y="370" type="curve" smooth="yes"/>
      <point x="904" y="370"/>
      <point x="892" y="371"/>
      <point x="880" y="372" type="curve"/>
      <point x="881" y="369"/>
      <point x="883" y="364"/>
      <point x="884" y="356" type="curve"/>
      <point x="849" y="403"/>
      <point x="825" y="437"/>
      <point x="820" y="448" type="curve"/>
      <point x="800" y="425"/>
      <point x="756" y="377"/>
      <point x="733" y="357" type="curve"/>
      <point x="748" y="350"/>
      <point x="818" y="297"/>
      <point x="899" y="232" type="curve"/>
      <point x="907" y="155" type="line"/>
      <point x="916" y="155" type="line"/>
      <point x="921" y="215" type="line"/>
      <point x="953" y="189" type="line"/>
      <point x="960" y="118" type="line"/>
      <point x="969" y="118" type="line"/>
      <point x="973" y="173" type="line"/>
      <point x="984" y="164"/>
      <point x="994" y="155"/>
      <point x="1005" y="147" type="curve"/>
      <point x="1007" y="120"/>
      <point x="1009" y="96"/>
      <point x="1011" y="81" type="curve"/>
      <point x="1020" y="81" type="line"/>
      <point x="1021" y="93"/>
      <point x="1023" y="111"/>
      <point x="1024" y="131" type="curve"/>
      <point x="1050" y="110" type="line"/>
      <point x="1056" y="41" type="line"/>
      <point x="1064" y="41" type="line"/>
      <point x="1068" y="95" type="line"/>
      <point x="1088" y="77"/>
      <point x="1108" y="60"/>
      <point x="1126" y="45" type="curve"/>
      <point x="1146" y="45" type="line"/>
      <point x="1146" y="201"/>
      <point x="1170" y="310"/>
      <point x="1198" y="393" type="curve"/>
      <point x="1214" y="262"/>
      <point x="1226" y="106"/>
      <point x="1227" y="-79" type="curve"/>
      <point x="854" y="49"/>
      <point x="762" y="130"/>
      <point x="623" y="227" type="curve"/>
      <point x="620" y="198"/>
      <point x="614" y="169"/>
      <point x="606" y="140" type="curve"/>
      <point x="388" y="152"/>
      <point x="206" y="182"/>
      <point x="100" y="226" type="curve"/>
      <point x="107" y="186"/>
      <point x="110" y="151"/>
      <point x="110" y="116" type="curve" smooth="yes"/>
      <point x="110" y="80"/>
      <point x="107" y="46"/>
      <point x="100" y="11" type="curve"/>
      <point x="225" y="62"/>
      <point x="377" y="85"/>
      <point x="595" y="109" type="curve"/>
      <point x="584" y="80"/>
      <point x="570" y="51"/>
      <point x="553" y="23" type="curve"/>
      <point x="722" y="12"/>
      <point x="850" y="19"/>
      <point x="1227" y="-106" type="curve"/>
    </contour>
    <contour>
      <point x="1044" y="160" type="curve"/>
      <point x="1028" y="178" type="line"/>
      <point x="1034" y="236" type="line"/>
      <point x="1037" y="218"/>
      <point x="1041" y="190"/>
    </contour>
    <contour>
      <point x="997" y="215" type="curve"/>
      <point x="979" y="237" type="line"/>
      <point x="985" y="295" type="line"/>
      <point x="989" y="283"/>
      <point x="993" y="252"/>
    </contour>
  </outline>
</glyph>
<glyph name="u1200F" format="2">
  <advance width="1448"/>
  <unicode hex="1200F"/>
  <outline>
    <contour>
      <point x="1227" y="-112" type="line"/>
      <point x="1253" y="-112" type="line"/>
      <point x="1253" y="299"/>
      <point x="1302" y="569"/>
      <point x="1348" y="736" type="curve"/>
      <point x="1310" y="728"/>
      <point x="1273" y="724"/>
      <point x="1237" y="724" type="curve" smooth="yes"/>
      <point x="1201" y="724"/>
      <point x="1166" y="728"/>
      <point x="1132" y="736" type="curve"/>
      <point x="1138" y="714"/>
      <point x="1144" y="692"/>
      <point x="1150" y="667" type="curve"/>
      <point x="868" y="584"/>
      <point x="697" y="568"/>
      <point x="553" y="559" type="curve"/>
      <point x="570" y="530"/>
      <point x="585" y="501"/>
      <point x="596" y="471" type="curve"/>
      <point x="382" y="484"/>
      <point x="204" y="512"/>
      <point x="100" y="556" type="curve"/>
      <point x="107" y="516"/>
      <point x="110" y="481"/>
      <point x="110" y="446" type="curve" smooth="yes"/>
      <point x="110" y="410"/>
      <point x="107" y="376"/>
      <point x="100" y="341" type="curve"/>
      <point x="227" y="393"/>
      <point x="382" y="416"/>
      <point x="606" y="440" type="curve"/>
      <point x="615" y="412"/>
      <point x="620" y="383"/>
      <point x="623" y="355" type="curve"/>
      <point x="691" y="402"/>
      <point x="769" y="453"/>
      <point x="875" y="508" type="curve"/>
      <point x="886" y="474"/>
      <point x="901" y="395"/>
      <point x="911" y="323" type="curve"/>
      <point x="898" y="324"/>
      <point x="885" y="325"/>
      <point x="871" y="329" type="curve"/>
      <point x="885" y="294"/>
      <point x="918" y="127"/>
      <point x="919" y="43" type="curve"/>
      <point x="782" y="109"/>
      <point x="712" y="165"/>
      <point x="623" y="227" type="curve"/>
      <point x="620" y="198"/>
      <point x="614" y="169"/>
      <point x="606" y="140" type="curve"/>
      <point x="388" y="152"/>
      <point x="206" y="182"/>
      <point x="100" y="226" type="curve"/>
      <point x="107" y="186"/>
      <point x="110" y="151"/>
      <point x="110" y="116" type="curve" smooth="yes"/>
      <point x="110" y="80"/>
      <point x="107" y="46"/>
      <point x="100" y="11" type="curve"/>
      <point x="225" y="62"/>
      <point x="377" y="85"/>
      <point x="595" y="109" type="curve"/>
      <point x="584" y="80"/>
      <point x="570" y="51"/>
      <point x="553" y="23" type="curve"/>
      <point x="722" y="12"/>
      <point x="850" y="19"/>
      <point x="1227" y="-106" type="curve"/>
    </contour>
    <contour>
      <point x="1227" y="-79" type="curve"/>
      <point x="1099" y="-35"/>
      <point x="1005" y="2"/>
      <point x="930" y="38" type="curve"/>
      <point x="930" y="73"/>
      <point x="936" y="124"/>
      <point x="944" y="174" type="curve"/>
      <point x="967" y="154"/>
      <point x="991" y="131"/>
      <point x="1039" y="88" type="curve"/>
      <point x="1052" y="99" type="line"/>
      <point x="1027" y="137"/>
      <point x="1012" y="171"/>
      <point x="994" y="202" type="curve"/>
      <point x="1028" y="265" type="line"/>
      <point x="1043" y="197"/>
      <point x="1059" y="95"/>
      <point x="1059" y="38" type="curve"/>
      <point x="1070" y="38" type="line"/>
      <point x="1070" y="103"/>
      <point x="1090" y="225"/>
      <point x="1106" y="290" type="curve"/>
      <point x="1128" y="272"/>
      <point x="1151" y="250"/>
      <point x="1194" y="211" type="curve"/>
      <point x="1207" y="222" type="line"/>
      <point x="1182" y="260"/>
      <point x="1167" y="294"/>
      <point x="1149" y="325" type="curve"/>
      <point x="1164" y="352"/>
      <point x="1177" y="379"/>
      <point x="1196" y="410" type="curve"/>
      <point x="1213" y="276"/>
      <point x="1226" y="115"/>
    </contour>
    <contour>
      <point x="956" y="243" type="curve"/>
      <point x="964" y="283"/>
      <point x="972" y="315"/>
      <point x="978" y="329" type="curve"/>
      <point x="964" y="326"/>
      <point x="951" y="325"/>
      <point x="938" y="324" type="curve"/>
      <point x="948" y="404"/>
      <point x="967" y="494"/>
      <point x="978" y="519" type="curve"/>
      <point x="958" y="516"/>
      <point x="938" y="513"/>
      <point x="918" y="513" type="curve" smooth="yes"/>
      <point x="908" y="513"/>
      <point x="898" y="514"/>
      <point x="888" y="515" type="curve"/>
      <point x="962" y="553"/>
      <point x="1050" y="592"/>
      <point x="1157" y="634" type="curve"/>
      <point x="1169" y="576"/>
      <point x="1182" y="510"/>
      <point x="1192" y="434" type="curve"/>
      <point x="1136" y="384"/>
      <point x="1105" y="362"/>
      <point x="1080" y="342" type="curve"/>
      <point x="1091" y="417"/>
      <point x="1108" y="496"/>
      <point x="1118" y="519" type="curve"/>
      <point x="1099" y="516"/>
      <point x="1079" y="513"/>
      <point x="1060" y="513" type="curve" smooth="yes"/>
      <point x="1044" y="513"/>
      <point x="1028" y="515"/>
      <point x="1011" y="519" type="curve"/>
      <point x="1021" y="495"/>
      <point x="1040" y="404"/>
      <point x="1051" y="323" type="curve"/>
      <point x="1038" y="324"/>
      <point x="1025" y="325"/>
      <point x="1011" y="329" type="curve"/>
      <point x="1014" y="322"/>
      <point x="1017" y="311"/>
      <point x="1021" y="297" type="curve"/>
      <point x="993" y="273"/>
      <point x="973" y="256"/>
    </contour>
  </outline>
</glyph>
<glyph name="u12010" format="2">
  <advance width="1448"/>
  <unicode hex="12010"/>
  <outline>
    <contour>
      <point x="1227" y="-112" type="line"/>
      <point x="1253" y="-112" type="line"/>
      <point x="1253" y="41"/>
      <point x="1259" y="175"/>
      <point x="1270" y="291" type="curve"/>
      <point x="1286" y="293"/>
      <point x="1302" y="296"/>
      <point x="1316" y="299" type="curve"/>
      <point x="1316" y="309" type="line"/>
      <point x="1302" y="310"/>
      <point x="1288" y="310"/>
      <point x="1272" y="312" type="curve"/>
      <point x="1291" y="496"/>
      <point x="1320" y="635"/>
      <point x="1348" y="736" type="curve"/>
      <point x="1310" y="728"/>
      <point x="1273" y="724"/>
      <point x="1237" y="724" type="curve" smooth="yes"/>
      <point x="1201" y="724"/>
      <point x="1166" y="728"/>
      <point x="1132" y="736" type="curve"/>
      <point x="1138" y="714"/>
      <point x="1144" y="692"/>
      <point x="1150" y="667" type="curve"/>
      <point x="868" y="584"/>
      <point x="697" y="568"/>
      <point x="553" y="559" type="curve"/>
      <point x="570" y="530"/>
      <point x="585" y="501"/>
      <point x="596" y="471" type="curve"/>
      <point x="382" y="484"/>
      <point x="204" y="512"/>
      <point x="100" y="556" type="curve"/>
      <point x="107" y="516"/>
      <point x="110" y="481"/>
      <point x="110" y="446" type="curve" smooth="yes"/>
      <point x="110" y="410"/>
      <point x="107" y="376"/>
      <point x="100" y="341" type="curve"/>
      <point x="227" y="393"/>
      <point x="382" y="416"/>
      <point x="606" y="440" type="curve"/>
      <point x="615" y="412"/>
      <point x="620" y="383"/>
      <point x="623" y="355" type="curve"/>
      <point x="665" y="384"/>
      <point x="711" y="415"/>
      <point x="766" y="448" type="curve"/>
      <point x="766" y="443"/>
      <point x="767" y="438"/>
      <point x="767" y="433" type="curve" smooth="yes"/>
      <point x="767" y="416"/>
      <point x="765" y="399"/>
      <point x="763" y="383" type="curve"/>
      <point x="763" y="372" type="line"/>
      <point x="765" y="373" type="line"/>
      <point x="766" y="365"/>
      <point x="766" y="358"/>
      <point x="766" y="350" type="curve" smooth="yes"/>
      <point x="766" y="332"/>
      <point x="764" y="315"/>
      <point x="763" y="299" type="curve"/>
      <point x="763" y="287" type="line"/>
      <point x="765" y="288" type="line"/>
      <point x="766" y="280"/>
      <point x="766" y="273"/>
      <point x="766" y="265" type="curve" smooth="yes"/>
      <point x="766" y="247"/>
      <point x="764" y="230"/>
      <point x="763" y="213" type="curve"/>
      <point x="763" y="202" type="line"/>
      <point x="765" y="203" type="line"/>
      <point x="766" y="195"/>
      <point x="766" y="188"/>
      <point x="766" y="180" type="curve" smooth="yes"/>
      <point x="766" y="163"/>
      <point x="764" y="146"/>
      <point x="763" y="130" type="curve"/>
      <point x="713" y="162"/>
      <point x="671" y="194"/>
      <point x="623" y="227" type="curve"/>
      <point x="620" y="198"/>
      <point x="614" y="169"/>
      <point x="606" y="140" type="curve"/>
      <point x="388" y="152"/>
      <point x="206" y="182"/>
      <point x="100" y="226" type="curve"/>
      <point x="107" y="186"/>
      <point x="110" y="151"/>
      <point x="110" y="116" type="curve" smooth="yes"/>
      <point x="110" y="80"/>
      <point x="107" y="46"/>
      <point x="100" y="11" type="curve"/>
      <point x="225" y="62"/>
      <point x="377" y="85"/>
      <point x="595" y="109" type="curve"/>
      <point x="584" y="80"/>
      <point x="570" y="51"/>
      <point x="553" y="23" type="curve"/>
      <point x="722" y="12"/>
      <point x="850" y="19"/>
      <point x="1227" y="-106" type="curve"/>
    </contour>
    <contour>
      <point x="1010" y="178" type="curve"/>
      <point x="937" y="183"/>
      <point x="828" y="197"/>
      <point x="780" y="208" type="curve"/>
      <point x="812" y="218"/>
      <point x="870" y="228"/>
      <point x="929" y="238" type="curve"/>
      <point x="944" y="224"/>
      <point x="962" y="207"/>
      <point x="988" y="184" type="curve"/>
      <point x="1001" y="195" type="line"/>
      <point x="989" y="212"/>
      <point x="980" y="229"/>
      <point x="971" y="245" type="curve"/>
      <point x="1003" y="250" type="line"/>
      <point x="1006" y="227"/>
      <point x="1008" y="202"/>
    </contour>
    <contour>
      <point x="884" y="276" type="line"/>
      <point x="842" y="282"/>
      <point x="804" y="288"/>
      <point x="780" y="293" type="curve"/>
      <point x="802" y="300"/>
      <point x="835" y="307"/>
      <point x="872" y="313" type="curve"/>
      <point x="854" y="298" type="line"/>
    </contour>
    <contour>
      <point x="1227" y="-79" type="curve"/>
      <point x="993" y="1"/>
      <point x="870" y="63"/>
      <point x="776" y="122" type="curve"/>
      <point x="820" y="136"/>
      <point x="932" y="153"/>
      <point x="1011" y="167" type="curve"/>
      <point x="1015" y="116"/>
      <point x="1018" y="64"/>
      <point x="1018" y="16" type="curve"/>
      <point x="1038" y="16" type="line"/>
      <point x="1038" y="120"/>
      <point x="1048" y="235"/>
      <point x="1064" y="335" type="curve"/>
      <point x="1065" y="326"/>
      <point x="1066" y="316"/>
      <point x="1066" y="307" type="curve" smooth="yes"/>
      <point x="1066" y="287"/>
      <point x="1063" y="267"/>
      <point x="1062" y="248" type="curve"/>
      <point x="1082" y="258"/>
      <point x="1144" y="270"/>
      <point x="1210" y="281" type="curve"/>
      <point x="1219" y="175"/>
      <point x="1226" y="56"/>
    </contour>
    <contour>
      <point x="926" y="356" type="curve"/>
      <point x="869" y="362"/>
      <point x="811" y="371"/>
      <point x="780" y="378" type="curve"/>
      <point x="821" y="390"/>
      <point x="905" y="404"/>
      <point x="977" y="416" type="curve"/>
      <point x="980" y="402" type="line"/>
      <point x="958" y="383"/>
      <point x="941" y="368"/>
    </contour>
    <contour>
      <point x="1001" y="264" type="line"/>
      <point x="959" y="267" type="line"/>
      <point x="954" y="278"/>
      <point x="948" y="288"/>
      <point x="943" y="298" type="curve"/>
      <point x="948" y="308"/>
      <point x="953" y="318"/>
      <point x="959" y="328" type="curve"/>
      <point x="992" y="333" type="line"/>
    </contour>
    <contour>
      <point x="989" y="350" type="line"/>
      <point x="983" y="350"/>
      <point x="977" y="351"/>
      <point x="971" y="351" type="curve"/>
      <point x="975" y="359"/>
      <point x="980" y="367"/>
      <point x="985" y="375" type="curve"/>
    </contour>
    <contour>
      <point x="973" y="436" type="curve"/>
      <point x="909" y="442"/>
      <point x="832" y="452"/>
      <point x="789" y="461" type="curve"/>
      <point x="834" y="487"/>
      <point x="885" y="514"/>
      <point x="943" y="542" type="curve"/>
      <point x="953" y="517"/>
      <point x="964" y="481"/>
    </contour>
    <contour>
      <point x="1206" y="319" type="curve"/>
      <point x="1146" y="327"/>
      <point x="1087" y="336"/>
      <point x="1065" y="343" type="curve"/>
      <point x="1079" y="429"/>
      <point x="1096" y="502"/>
      <point x="1113" y="543" type="curve"/>
      <point x="1085" y="538"/>
      <point x="1057" y="535"/>
      <point x="1028" y="535" type="curve" smooth="yes"/>
      <point x="1002" y="535"/>
      <point x="975" y="537"/>
      <point x="945" y="542" type="curve"/>
      <point x="1006" y="572"/>
      <point x="1076" y="602"/>
      <point x="1157" y="634" type="curve"/>
      <point x="1176" y="549"/>
      <point x="1193" y="445"/>
    </contour>
  </outline>
</glyph>
<glyph name="u12011" format="2">
  <advance width="1448"/>
  <unicode hex="12011"/>
  <outline>
    <contour>
      <point x="1227" y="-112" type="line"/>
      <point x="1253" y="-112" type="line"/>
      <point x="1253" y="299"/>
      <point x="1302" y="569"/>
      <point x="1348" y="736" type="curve"/>
      <point x="1310" y="728"/>
      <point x="1273" y="724"/>
      <point x="1237" y="724" type="curve" smooth="yes"/>
      <point x="1201" y="724"/>
      <point x="1166" y="728"/>
      <point x="1132" y="736" type="curve"/>
      <point x="1138" y="714"/>
      <point x="1144" y="692"/>
      <point x="1150" y="667" type="curve"/>
      <point x="868" y="584"/>
      <point x="697" y="568"/>
      <point x="553" y="559" type="curve"/>
      <point x="570" y="530"/>
      <point x="585" y="501"/>
      <point x="596" y="471" type="curve"/>
      <point x="382" y="484"/>
      <point x="204" y="512"/>
      <point x="100" y="556" type="curve"/>
      <point x="107" y="516"/>
      <point x="110" y="481"/>
      <point x="110" y="446" type="curve" smooth="yes"/>
      <point x="110" y="410"/>
      <point x="107" y="376"/>
      <point x="100" y="341" type="curve"/>
      <point x="227" y="393"/>
      <point x="382" y="416"/>
      <point x="606" y="440" type="curve"/>
      <point x="615" y="412"/>
      <point x="620" y="383"/>
      <point x="623" y="355" type="curve"/>
      <point x="741" y="437"/>
      <point x="886" y="529"/>
      <point x="1157" y="634" type="curve"/>
      <point x="1167" y="588"/>
      <point x="1177" y="537"/>
      <point x="1186" y="479" type="curve"/>
      <point x="1169" y="476"/>
      <point x="1153" y="475"/>
      <point x="1137" y="475" type="curve" smooth="yes"/>
      <point x="1121" y="475"/>
      <point x="1104" y="476"/>
      <point x="1087" y="481" type="curve"/>
      <point x="1099" y="452"/>
      <point x="1111" y="423"/>
      <point x="1126" y="375" type="curve"/>
      <point x="1113" y="376"/>
      <point x="1100" y="378"/>
      <point x="1087" y="381" type="curve"/>
      <point x="1102" y="346"/>
      <point x="1117" y="310"/>
      <point x="1136" y="240" type="curve"/>
      <point x="1146" y="240" type="line"/>
      <point x="1165" y="310"/>
      <point x="1179" y="345"/>
      <point x="1194" y="381" type="curve"/>
      <point x="1181" y="379"/>
      <point x="1168" y="377"/>
      <point x="1156" y="376" type="curve"/>
      <point x="1168" y="415"/>
      <point x="1178" y="442"/>
      <point x="1188" y="467" type="curve"/>
      <point x="1209" y="323"/>
      <point x="1225" y="143"/>
      <point x="1227" y="-79" type="curve"/>
      <point x="854" y="49"/>
      <point x="762" y="130"/>
      <point x="623" y="227" type="curve"/>
      <point x="620" y="198"/>
      <point x="614" y="169"/>
      <point x="606" y="140" type="curve"/>
      <point x="388" y="152"/>
      <point x="206" y="182"/>
      <point x="100" y="226" type="curve"/>
      <point x="107" y="186"/>
      <point x="110" y="151"/>
      <point x="110" y="116" type="curve" smooth="yes"/>
      <point x="110" y="80"/>
      <point x="107" y="46"/>
      <point x="100" y="11" type="curve"/>
      <point x="225" y="62"/>
      <point x="377" y="85"/>
      <point x="595" y="109" type="curve"/>
      <point x="584" y="80"/>
      <point x="570" y="51"/>
      <point x="553" y="23" type="curve"/>
      <point x="722" y="12"/>
      <point x="850" y="19"/>
      <point x="1227" y="-106" type="curve"/>
    </contour>
    <contour>
      <point x="897" y="240" type="curve"/>
      <point x="907" y="240" type="line"/>
      <point x="926" y="310"/>
      <point x="940" y="345"/>
      <point x="955" y="381" type="curve"/>
      <point x="942" y="379"/>
      <point x="929" y="377"/>
      <point x="917" y="376" type="curve"/>
      <point x="931" y="423"/>
      <point x="943" y="451"/>
      <point x="955" y="481" type="curve"/>
      <point x="936" y="478"/>
      <point x="916" y="475"/>
      <point x="897" y="475" type="curve" smooth="yes"/>
      <point x="881" y="475"/>
      <point x="865" y="477"/>
      <point x="848" y="481" type="curve"/>
      <point x="860" y="452"/>
      <point x="872" y="423"/>
      <point x="887" y="375" type="curve"/>
      <point x="874" y="376"/>
      <point x="861" y="378"/>
      <point x="848" y="381" type="curve"/>
      <point x="863" y="346"/>
      <point x="878" y="310"/>
    </contour>
    <contour>
      <point x="1012" y="59" type="curve"/>
      <point x="1034" y="59" type="line"/>
      <point x="1034" y="103"/>
      <point x="1090" y="201"/>
      <point x="1128" y="253" type="curve"/>
      <point x="1089" y="246"/>
      <point x="1057" y="243"/>
      <point x="1027" y="242" type="curve"/>
      <point x="1046" y="311"/>
      <point x="1060" y="345"/>
      <point x="1075" y="381" type="curve"/>
      <point x="1062" y="379"/>
      <point x="1049" y="377"/>
      <point x="1037" y="376" type="curve"/>
      <point x="1051" y="423"/>
      <point x="1063" y="451"/>
      <point x="1075" y="481" type="curve"/>
      <point x="1056" y="478"/>
      <point x="1036" y="475"/>
      <point x="1017" y="475" type="curve" smooth="yes"/>
      <point x="1001" y="475"/>
      <point x="985" y="477"/>
      <point x="968" y="481" type="curve"/>
      <point x="980" y="452"/>
      <point x="992" y="423"/>
      <point x="1007" y="375" type="curve"/>
      <point x="994" y="376"/>
      <point x="981" y="378"/>
      <point x="968" y="381" type="curve"/>
      <point x="983" y="346"/>
      <point x="998" y="311"/>
      <point x="1016" y="242" type="curve"/>
      <point x="983" y="243"/>
      <point x="952" y="246"/>
      <point x="915" y="250" type="curve"/>
      <point x="953" y="198"/>
      <point x="1012" y="115"/>
    </contour>
  </outline>
</glyph>
<glyph name="u12012" format="2">
  <advance width="1448"/>
  <unicode hex="12012"/>
  <outline>
    <contour>
      <point x="1227" y="-112" type="line"/>
      <point x="1253" y="-112" type="line"/>
      <point x="1253" y="299"/>
      <point x="1302" y="569"/>
      <point x="1348" y="736" type="curve"/>
      <point x="1310" y="728"/>
      <point x="1273" y="724"/>
      <point x="1237" y="724" type="curve" smooth="yes"/>
      <point x="1201" y="724"/>
      <point x="1166" y="728"/>
      <point x="1132" y="736" type="curve"/>
      <point x="1138" y="714"/>
      <point x="1144" y="692"/>
      <point x="1150" y="667" type="curve"/>
      <point x="868" y="584"/>
      <point x="697" y="568"/>
      <point x="553" y="559" type="curve"/>
      <point x="570" y="530"/>
      <point x="585" y="501"/>
      <point x="596" y="471" type="curve"/>
      <point x="382" y="484"/>
      <point x="204" y="512"/>
      <point x="100" y="556" type="curve"/>
      <point x="107" y="516"/>
      <point x="110" y="481"/>
      <point x="110" y="446" type="curve" smooth="yes"/>
      <point x="110" y="410"/>
      <point x="107" y="376"/>
      <point x="100" y="341" type="curve"/>
      <point x="227" y="393"/>
      <point x="382" y="416"/>
      <point x="606" y="440" type="curve"/>
      <point x="615" y="412"/>
      <point x="620" y="383"/>
      <point x="623" y="355" type="curve"/>
      <point x="741" y="437"/>
      <point x="886" y="529"/>
      <point x="1157" y="634" type="curve"/>
      <point x="1165" y="596"/>
      <point x="1174" y="554"/>
      <point x="1181" y="508" type="curve"/>
      <point x="1166" y="506"/>
      <point x="1151" y="504"/>
      <point x="1136" y="504" type="curve" smooth="yes"/>
      <point x="1120" y="504"/>
      <point x="1103" y="506"/>
      <point x="1086" y="510" type="curve"/>
      <point x="1089" y="502"/>
      <point x="1093" y="481"/>
      <point x="1097" y="454" type="curve"/>
      <point x="1002" y="465"/>
      <point x="880" y="483"/>
      <point x="853" y="495" type="curve"/>
      <point x="857" y="478"/>
      <point x="858" y="462"/>
      <point x="858" y="446" type="curve" smooth="yes"/>
      <point x="858" y="432"/>
      <point x="857" y="417"/>
      <point x="855" y="403" type="curve"/>
      <point x="838" y="405" type="line"/>
      <point x="847" y="383"/>
      <point x="857" y="266"/>
      <point x="864" y="200" type="curve"/>
      <point x="859" y="201"/>
      <point x="856" y="203"/>
      <point x="853" y="204" type="curve"/>
      <point x="857" y="187"/>
      <point x="859" y="171"/>
      <point x="859" y="155" type="curve" smooth="yes"/>
      <point x="859" y="136"/>
      <point x="856" y="117"/>
      <point x="853" y="98" type="curve"/>
      <point x="887" y="113"/>
      <point x="1034" y="131"/>
      <point x="1130" y="144" type="curve"/>
      <point x="1131" y="130"/>
      <point x="1133" y="118"/>
      <point x="1134" y="109" type="curve"/>
      <point x="1144" y="109" type="line"/>
      <point x="1155" y="191"/>
      <point x="1171" y="405"/>
      <point x="1185" y="484" type="curve"/>
      <point x="1208" y="337"/>
      <point x="1225" y="151"/>
      <point x="1227" y="-79" type="curve"/>
      <point x="854" y="49"/>
      <point x="762" y="130"/>
      <point x="623" y="227" type="curve"/>
      <point x="620" y="198"/>
      <point x="614" y="169"/>
      <point x="606" y="140" type="curve"/>
      <point x="388" y="152"/>
      <point x="206" y="182"/>
      <point x="100" y="226" type="curve"/>
      <point x="107" y="186"/>
      <point x="110" y="151"/>
      <point x="110" y="116" type="curve" smooth="yes"/>
      <point x="110" y="80"/>
      <point x="107" y="46"/>
      <point x="100" y="11" type="curve"/>
      <point x="225" y="62"/>
      <point x="377" y="85"/>
      <point x="595" y="109" type="curve"/>
      <point x="584" y="80"/>
      <point x="570" y="51"/>
      <point x="553" y="23" type="curve"/>
      <point x="722" y="12"/>
      <point x="850" y="19"/>
      <point x="1227" y="-106" type="curve"/>
    </contour>
    <contour>
      <point x="1129" y="157" type="curve"/>
      <point x="1051" y="166"/>
      <point x="931" y="184"/>
      <point x="876" y="197" type="curve"/>
      <point x="883" y="256"/>
      <point x="895" y="369"/>
      <point x="903" y="400" type="curve"/>
      <point x="955" y="409"/>
      <point x="1034" y="419"/>
      <point x="1100" y="427" type="curve"/>
      <point x="1110" y="348"/>
      <point x="1121" y="233"/>
    </contour>
  </outline>
</glyph>
<glyph name="u12013" format="2">
  <advance width="1448"/>
  <unicode hex="12013"/>
  <outline>
    <contour>
      <point x="1227" y="-112" type="line"/>
      <point x="1253" y="-112" type="line"/>
      <point x="1253" y="299"/>
      <point x="1302" y="569"/>
      <point x="1348" y="736" type="curve"/>
      <point x="1310" y="728"/>
      <point x="1273" y="724"/>
      <point x="1237" y="724" type="curve" smooth="yes"/>
      <point x="1201" y="724"/>
      <point x="1166" y="728"/>
      <point x="1132" y="736" type="curve"/>
      <point x="1138" y="714"/>
      <point x="1144" y="692"/>
      <point x="1150" y="667" type="curve"/>
      <point x="868" y="584"/>
      <point x="697" y="568"/>
      <point x="553" y="559" type="curve"/>
      <point x="570" y="530"/>
      <point x="585" y="501"/>
      <point x="596" y="471" type="curve"/>
      <point x="382" y="484"/>
      <point x="204" y="512"/>
      <point x="100" y="556" type="curve"/>
      <point x="107" y="516"/>
      <point x="110" y="481"/>
      <point x="110" y="446" type="curve" smooth="yes"/>
      <point x="110" y="410"/>
      <point x="107" y="376"/>
      <point x="100" y="341" type="curve"/>
      <point x="227" y="393"/>
      <point x="382" y="416"/>
      <point x="606" y="440" type="curve"/>
      <point x="615" y="412"/>
      <point x="620" y="383"/>
      <point x="623" y="355" type="curve"/>
      <point x="741" y="437"/>
      <point x="886" y="529"/>
      <point x="1157" y="634" type="curve"/>
      <point x="1165" y="596"/>
      <point x="1174" y="554"/>
      <point x="1181" y="509" type="curve"/>
      <point x="1178" y="511" type="line"/>
      <point x="1105" y="446"/>
      <point x="1074" y="426"/>
      <point x="1044" y="400" type="curve"/>
      <point x="1086" y="372"/>
      <point x="1109" y="343"/>
      <point x="1171" y="286" type="curve"/>
      <point x="1142" y="287"/>
      <point x="1105" y="289"/>
      <point x="1064" y="292" type="curve"/>
      <point x="1024" y="358"/>
      <point x="969" y="464"/>
      <point x="963" y="493" type="curve"/>
      <point x="942" y="470"/>
      <point x="916" y="453"/>
      <point x="892" y="439" type="curve"/>
      <point x="902" y="434"/>
      <point x="920" y="420"/>
      <point x="941" y="400" type="curve"/>
      <point x="933" y="393"/>
      <point x="925" y="386"/>
      <point x="917" y="381" type="curve"/>
      <point x="908" y="387"/>
      <point x="899" y="394"/>
      <point x="891" y="402" type="curve"/>
      <point x="896" y="407"/>
      <point x="902" y="410"/>
      <point x="906" y="412" type="curve"/>
      <point x="882" y="426"/>
      <point x="856" y="443"/>
      <point x="835" y="466" type="curve"/>
      <point x="830" y="444"/>
      <point x="799" y="381"/>
      <point x="767" y="323" type="curve"/>
      <point x="715" y="330"/>
      <point x="676" y="337"/>
      <point x="664" y="342" type="curve"/>
      <point x="665" y="321"/>
      <point x="666" y="299"/>
      <point x="666" y="277" type="curve" smooth="yes"/>
      <point x="666" y="255"/>
      <point x="665" y="233"/>
      <point x="664" y="213" type="curve"/>
      <point x="703" y="228"/>
      <point x="1033" y="264"/>
      <point x="1175" y="268" type="curve"/>
      <point x="1108" y="209"/>
      <point x="1072" y="180"/>
      <point x="1044" y="155" type="curve"/>
      <point x="1089" y="125"/>
      <point x="1106" y="106"/>
      <point x="1178" y="41" type="curve"/>
      <point x="1191" y="52" type="line"/>
      <point x="1166" y="90"/>
      <point x="1151" y="124"/>
      <point x="1133" y="155" type="curve"/>
      <point x="1151" y="187"/>
      <point x="1172" y="230"/>
      <point x="1197" y="269" type="curve"/>
      <point x="1197" y="286" type="line"/>
      <point x="1172" y="324"/>
      <point x="1151" y="369"/>
      <point x="1133" y="400" type="curve"/>
      <point x="1149" y="429"/>
      <point x="1163" y="458"/>
      <point x="1184" y="492" type="curve"/>
      <point x="1207" y="344"/>
      <point x="1225" y="156"/>
      <point x="1227" y="-79" type="curve"/>
      <point x="854" y="49"/>
      <point x="762" y="130"/>
      <point x="623" y="227" type="curve"/>
      <point x="620" y="198"/>
      <point x="614" y="169"/>
      <point x="606" y="140" type="curve"/>
      <point x="388" y="152"/>
      <point x="206" y="182"/>
      <point x="100" y="226" type="curve"/>
      <point x="107" y="186"/>
      <point x="110" y="151"/>
      <point x="110" y="116" type="curve" smooth="yes"/>
      <point x="110" y="80"/>
      <point x="107" y="46"/>
      <point x="100" y="11" type="curve"/>
      <point x="225" y="62"/>
      <point x="377" y="85"/>
      <point x="595" y="109" type="curve"/>
      <point x="584" y="80"/>
      <point x="570" y="51"/>
      <point x="553" y="23" type="curve"/>
      <point x="722" y="12"/>
      <point x="850" y="19"/>
      <point x="1227" y="-106" type="curve"/>
    </contour>
    <contour>
      <point x="839" y="314" type="curve"/>
      <point x="801" y="319" type="line"/>
      <point x="832" y="350"/>
      <point x="862" y="380"/>
      <point x="884" y="397" type="curve"/>
      <point x="876" y="379"/>
      <point x="858" y="346"/>
    </contour>
    <contour>
      <point x="977" y="300" type="curve"/>
      <point x="940" y="303"/>
      <point x="903" y="307"/>
      <point x="868" y="311" type="curve"/>
      <point x="886" y="329"/>
      <point x="903" y="345"/>
      <point x="917" y="357" type="curve"/>
      <point x="933" y="343"/>
      <point x="954" y="321"/>
    </contour>
    <contour>
      <point x="1047" y="294" type="curve"/>
      <point x="1005" y="297" type="line"/>
      <point x="985" y="329"/>
      <point x="964" y="365"/>
      <point x="953" y="388" type="curve"/>
      <point x="983" y="359"/>
      <point x="1017" y="324"/>
    </contour>
  </outline>
</glyph>
<glyph name="u12014" format="2">
  <advance width="1448"/>
  <unicode hex="12014"/>
  <outline>
    <contour>
      <point x="1227" y="-112" type="line"/>
      <point x="1253" y="-112" type="line"/>
      <point x="1253" y="299"/>
      <point x="1302" y="569"/>
      <point x="1348" y="736" type="curve"/>
      <point x="1310" y="728"/>
      <point x="1273" y="724"/>
      <point x="1237" y="724" type="curve" smooth="yes"/>
      <point x="1201" y="724"/>
      <point x="1166" y="728"/>
      <point x="1132" y="736" type="curve"/>
      <point x="1138" y="714"/>
      <point x="1144" y="692"/>
      <point x="1150" y="667" type="curve"/>
      <point x="868" y="584"/>
      <point x="697" y="568"/>
      <point x="553" y="559" type="curve"/>
      <point x="570" y="530"/>
      <point x="585" y="501"/>
      <point x="596" y="471" type="curve"/>
      <point x="382" y="484"/>
      <point x="204" y="512"/>
      <point x="100" y="556" type="curve"/>
      <point x="107" y="516"/>
      <point x="110" y="481"/>
      <point x="110" y="446" type="curve" smooth="yes"/>
      <point x="110" y="410"/>
      <point x="107" y="376"/>
      <point x="100" y="341" type="curve"/>
      <point x="227" y="393"/>
      <point x="382" y="416"/>
      <point x="606" y="440" type="curve"/>
      <point x="615" y="412"/>
      <point x="620" y="383"/>
      <point x="623" y="355" type="curve"/>
      <point x="741" y="437"/>
      <point x="886" y="529"/>
      <point x="1157" y="634" type="curve"/>
      <point x="1193" y="471"/>
      <point x="1225" y="239"/>
      <point x="1227" y="-79" type="curve"/>
      <point x="854" y="49"/>
      <point x="762" y="130"/>
      <point x="623" y="227" type="curve"/>
      <point x="620" y="198"/>
      <point x="614" y="169"/>
      <point x="606" y="140" type="curve"/>
      <point x="388" y="152"/>
      <point x="206" y="182"/>
      <point x="100" y="226" type="curve"/>
      <point x="107" y="186"/>
      <point x="110" y="151"/>
      <point x="110" y="116" type="curve" smooth="yes"/>
      <point x="110" y="80"/>
      <point x="107" y="46"/>
      <point x="100" y="11" type="curve"/>
      <point x="225" y="62"/>
      <point x="377" y="85"/>
      <point x="595" y="109" type="curve"/>
      <point x="584" y="80"/>
      <point x="570" y="51"/>
      <point x="553" y="23" type="curve"/>
      <point x="722" y="12"/>
      <point x="850" y="19"/>
      <point x="1227" y="-106" type="curve"/>
    </contour>
    <contour>
      <point x="935" y="111" type="curve"/>
      <point x="953" y="126" type="line"/>
      <point x="903" y="191"/>
      <point x="866" y="247"/>
      <point x="843" y="284" type="curve"/>
      <point x="898" y="243"/>
      <point x="959" y="193"/>
      <point x="1052" y="111" type="curve"/>
      <point x="1070" y="126" type="line"/>
      <point x="1020" y="191"/>
      <point x="983" y="247"/>
      <point x="960" y="284" type="curve"/>
      <point x="1015" y="243"/>
      <point x="1076" y="193"/>
      <point x="1169" y="111" type="curve"/>
      <point x="1187" y="126" type="line"/>
      <point x="1132" y="198"/>
      <point x="1092" y="259"/>
      <point x="1070" y="296" type="curve"/>
      <point x="1100" y="347"/>
      <point x="1130" y="409"/>
      <point x="1176" y="491" type="curve"/>
      <point x="1156" y="502" type="line"/>
      <point x="1090" y="426"/>
      <point x="1010" y="353"/>
      <point x="962" y="312" type="curve"/>
      <point x="989" y="360"/>
      <point x="1017" y="417"/>
      <point x="1059" y="491" type="curve"/>
      <point x="1039" y="502" type="line"/>
      <point x="973" y="426"/>
      <point x="893" y="353"/>
      <point x="845" y="312" type="curve"/>
      <point x="872" y="360"/>
      <point x="900" y="417"/>
      <point x="942" y="491" type="curve"/>
      <point x="922" y="502" type="line"/>
      <point x="847" y="415"/>
      <point x="753" y="333"/>
      <point x="710" y="296" type="curve"/>
      <point x="770" y="252"/>
      <point x="833" y="201"/>
    </contour>
  </outline>
</glyph>
<glyph name="u12015" format="2">
  <advance width="1448"/>
  <unicode hex="12015"/>
  <outline>
    <contour>
      <point x="1227" y="-112" type="line"/>
      <point x="1253" y="-112" type="line"/>
      <point x="1253" y="299"/>
      <point x="1302" y="569"/>
      <point x="1348" y="736" type="curve"/>
      <point x="1310" y="728"/>
      <point x="1273" y="724"/>
      <point x="1237" y="724" type="curve" smooth="yes"/>
      <point x="1201" y="724"/>
      <point x="1166" y="728"/>
      <point x="1132" y="736" type="curve"/>
      <point x="1138" y="714"/>
      <point x="1144" y="692"/>
      <point x="1150" y="667" type="curve"/>
      <point x="868" y="584"/>
      <point x="697" y="568"/>
      <point x="553" y="559" type="curve"/>
      <point x="570" y="530"/>
      <point x="585" y="501"/>
      <point x="596" y="471" type="curve"/>
      <point x="382" y="484"/>
      <point x="204" y="512"/>
      <point x="100" y="556" type="curve"/>
      <point x="107" y="516"/>
      <point x="110" y="481"/>
      <point x="110" y="446" type="curve" smooth="yes"/>
      <point x="110" y="410"/>
      <point x="107" y="376"/>
      <point x="100" y="341" type="curve"/>
      <point x="227" y="393"/>
      <point x="382" y="416"/>
      <point x="606" y="440" type="curve"/>
      <point x="615" y="412"/>
      <point x="620" y="383"/>
      <point x="623" y="355" type="curve"/>
      <point x="741" y="437"/>
      <point x="886" y="529"/>
      <point x="1157" y="634" type="curve"/>
      <point x="1167" y="586"/>
      <point x="1178" y="532"/>
      <point x="1187" y="471" type="curve"/>
      <point x="1146" y="502"/>
      <point x="1111" y="533"/>
      <point x="1099" y="548" type="curve"/>
      <point x="1089" y="515"/>
      <point x="1072" y="487"/>
      <point x="1055" y="461" type="curve"/>
      <point x="1080" y="460"/>
      <point x="1133" y="446"/>
      <point x="1193" y="427" type="curve"/>
      <point x="1198" y="395"/>
      <point x="1202" y="363"/>
      <point x="1205" y="328" type="curve"/>
      <point x="1142" y="372"/>
      <point x="1073" y="425"/>
      <point x="1057" y="444" type="curve"/>
      <point x="1047" y="411"/>
      <point x="1030" y="383"/>
      <point x="1013" y="357" type="curve"/>
      <point x="1041" y="356"/>
      <point x="1130" y="325"/>
      <point x="1208" y="298" type="curve"/>
      <point x="1212" y="262"/>
      <point x="1215" y="225"/>
      <point x="1217" y="185" type="curve"/>
      <point x="1145" y="233"/>
      <point x="1034" y="312"/>
      <point x="1015" y="335" type="curve"/>
      <point x="1005" y="302"/>
      <point x="988" y="274"/>
      <point x="971" y="248" type="curve"/>
      <point x="1004" y="247"/>
      <point x="1132" y="198"/>
      <point x="1218" y="169" type="curve"/>
      <point x="1224" y="56" type="line"/>
      <point x="1145" y="107"/>
      <point x="989" y="209"/>
      <point x="970" y="233" type="curve"/>
      <point x="960" y="200"/>
      <point x="943" y="172"/>
      <point x="926" y="146" type="curve"/>
      <point x="959" y="145"/>
      <point x="1134" y="73"/>
      <point x="1224" y="41" type="curve"/>
      <point x="1227" y="-79" type="line"/>
      <point x="854" y="49"/>
      <point x="762" y="130"/>
      <point x="623" y="227" type="curve"/>
      <point x="620" y="198"/>
      <point x="614" y="169"/>
      <point x="606" y="140" type="curve"/>
      <point x="388" y="152"/>
      <point x="206" y="182"/>
      <point x="100" y="226" type="curve"/>
      <point x="107" y="186"/>
      <point x="110" y="151"/>
      <point x="110" y="116" type="curve" smooth="yes"/>
      <point x="110" y="80"/>
      <point x="107" y="46"/>
      <point x="100" y="11" type="curve"/>
      <point x="225" y="62"/>
      <point x="377" y="85"/>
      <point x="595" y="109" type="curve"/>
      <point x="584" y="80"/>
      <point x="570" y="51"/>
      <point x="553" y="23" type="curve"/>
      <point x="722" y="12"/>
      <point x="850" y="19"/>
      <point x="1227" y="-106" type="curve"/>
    </contour>
  </outline>
</glyph>
<glyph name="u12016" format="2">
  <advance width="1760"/>
  <unicode hex="12016"/>
  <outline>
    <contour>
      <point x="577" y="-199" type="curve"/>
      <point x="716" y="-96"/>
      <point x="1205" y="119"/>
      <point x="1659" y="311" type="curve"/>
      <point x="1660" y="335" type="line"/>
      <point x="1206" y="527"/>
      <point x="725" y="739"/>
      <point x="586" y="842" type="curve"/>
      <point x="573" y="765"/>
      <point x="547" y="698"/>
      <point x="508" y="641" type="curve"/>
      <point x="706" y="620"/>
      <point x="1139" y="475"/>
      <point x="1617" y="324" type="curve"/>
      <point x="1137" y="172"/>
      <point x="697" y="22"/>
      <point x="499" y="2" type="curve"/>
      <point x="538" y="-55"/>
      <point x="564" y="-122"/>
    </contour>
    <contour>
      <point x="508" y="-120" type="curve"/>
      <point x="529" y="-105" type="line"/>
      <point x="415" y="79"/>
      <point x="335" y="235"/>
      <point x="292" y="319" type="curve"/>
      <point x="343" y="418"/>
      <point x="420" y="568"/>
      <point x="529" y="743" type="curve"/>
      <point x="508" y="758" type="line"/>
      <point x="335" y="573"/>
      <point x="222" y="440"/>
      <point x="100" y="319" type="curve"/>
      <point x="188" y="239"/>
      <point x="308" y="94"/>
    </contour>
  </outline>
</glyph>
<glyph name="u12017" format="2">
  <advance width="2051"/>
  <unicode hex="12017"/>
  <outline>
    <contour>
      <point x="564" y="-202" type="curve"/>
      <point x="650" y="-138"/>
      <point x="860" y="-29"/>
      <point x="1122" y="89" type="curve"/>
      <point x="1079" y="59"/>
      <point x="1045" y="41"/>
      <point x="1015" y="29" type="curve"/>
      <point x="1053" y="0"/>
      <point x="1086" y="-32"/>
      <point x="1118" y="-81" type="curve"/>
      <point x="1133" y="-48"/>
      <point x="1201" y="32"/>
      <point x="1285" y="123" type="curve"/>
      <point x="1319" y="98"/>
      <point x="1340" y="77"/>
      <point x="1403" y="20" type="curve"/>
      <point x="1417" y="31" type="line"/>
      <point x="1391" y="68"/>
      <point x="1377" y="102"/>
      <point x="1358" y="133" type="curve"/>
      <point x="1372" y="157"/>
      <point x="1384" y="181"/>
      <point x="1400" y="209" type="curve"/>
      <point x="1509" y="253" type="line"/>
      <point x="1605" y="168" type="line"/>
      <point x="1604" y="156"/>
      <point x="1602" y="145"/>
      <point x="1602" y="134" type="curve"/>
      <point x="1608" y="137"/>
      <point x="1618" y="140"/>
      <point x="1631" y="144" type="curve"/>
      <point x="1691" y="89" type="line"/>
      <point x="1708" y="103" type="line"/>
      <point x="1658" y="150" type="line"/>
      <point x="1688" y="157"/>
      <point x="1725" y="163"/>
      <point x="1762" y="169" type="curve"/>
      <point x="1741" y="112"/>
      <point x="1715" y="49"/>
      <point x="1684" y="-17" type="curve"/>
      <point x="1703" y="-27" type="line"/>
      <point x="1798" y="118"/>
      <point x="1869" y="216"/>
      <point x="1951" y="284" type="curve"/>
      <point x="1935" y="288"/>
      <point x="1920" y="294"/>
      <point x="1906" y="300" type="curve"/>
      <point x="1916" y="305" type="line"/>
      <point x="1844" y="456"/>
      <point x="1798" y="594"/>
      <point x="1787" y="679" type="curve"/>
      <point x="1740" y="642"/>
      <point x="1699" y="621"/>
      <point x="1649" y="606" type="curve"/>
      <point x="1689" y="573"/>
      <point x="1726" y="533"/>
      <point x="1764" y="484" type="curve"/>
      <point x="1695" y="492"/>
      <point x="1623" y="504"/>
      <point x="1602" y="513" type="curve"/>
      <point x="1604" y="500"/>
      <point x="1605" y="487"/>
      <point x="1605" y="475" type="curve" smooth="yes"/>
      <point x="1605" y="471"/>
      <point x="1605" y="467"/>
      <point x="1605" y="463" type="curve"/>
      <point x="1596" y="471" type="line"/>
      <point x="1565" y="444"/>
      <point x="1535" y="420"/>
      <point x="1507" y="396" type="curve"/>
      <point x="1473" y="410"/>
      <point x="1439" y="424"/>
      <point x="1405" y="439" type="curve"/>
      <point x="1386" y="469"/>
      <point x="1374" y="497"/>
      <point x="1358" y="523" type="curve"/>
      <point x="1377" y="555"/>
      <point x="1391" y="586"/>
      <point x="1417" y="625" type="curve"/>
      <point x="1403" y="633" type="line"/>
      <point x="1341" y="577"/>
      <point x="1309" y="554"/>
      <point x="1283" y="533" type="curve"/>
      <point x="1198" y="625"/>
      <point x="1131" y="702"/>
      <point x="1118" y="731" type="curve"/>
      <point x="1086" y="682"/>
      <point x="1053" y="650"/>
      <point x="1015" y="621" type="curve"/>
      <point x="1042" y="610"/>
      <point x="1078" y="591"/>
      <point x="1124" y="560" type="curve"/>
      <point x="868" y="675"/>
      <point x="661" y="779"/>
      <point x="576" y="842" type="curve"/>
      <point x="563" y="765"/>
      <point x="537" y="698"/>
      <point x="498" y="641" type="curve"/>
      <point x="614" y="629"/>
      <point x="807" y="580"/>
      <point x="1046" y="507" type="curve"/>
      <point x="984" y="514"/>
      <point x="916" y="524"/>
      <point x="899" y="530" type="curve"/>
      <point x="901" y="519"/>
      <point x="902" y="510"/>
      <point x="902" y="500" type="curve" smooth="yes"/>
      <point x="902" y="486"/>
      <point x="900" y="471"/>
      <point x="899" y="457" type="curve"/>
      <point x="913" y="463"/>
      <point x="955" y="469"/>
      <point x="1002" y="475" type="curve"/>
      <point x="1005" y="459"/>
      <point x="1008" y="433"/>
      <point x="1012" y="403" type="curve"/>
      <point x="929" y="410"/>
      <point x="823" y="426"/>
      <point x="798" y="436" type="curve"/>
      <point x="801" y="423"/>
      <point x="802" y="411"/>
      <point x="802" y="398" type="curve" smooth="yes"/>
      <point x="802" y="378"/>
      <point x="799" y="358"/>
      <point x="798" y="339" type="curve"/>
      <point x="825" y="353"/>
      <point x="929" y="369"/>
      <point x="1014" y="383" type="curve"/>
      <point x="1021" y="302" type="line"/>
      <point x="937" y="309"/>
      <point x="824" y="325"/>
      <point x="798" y="336" type="curve"/>
      <point x="801" y="323"/>
      <point x="802" y="311"/>
      <point x="802" y="298" type="curve" smooth="yes"/>
      <point x="802" y="278"/>
      <point x="799" y="258"/>
      <point x="798" y="239" type="curve"/>
      <point x="800" y="226"/>
      <point x="801" y="213"/>
      <point x="801" y="201" type="curve" smooth="yes"/>
      <point x="801" y="182"/>
      <point x="799" y="163"/>
      <point x="798" y="145" type="curve"/>
      <point x="826" y="160"/>
      <point x="943" y="177"/>
      <point x="1030" y="192" type="curve"/>
      <point x="1034" y="136" type="line"/>
      <point x="1037" y="136" type="line"/>
      <point x="797" y="62"/>
      <point x="602" y="11"/>
      <point x="486" y="-1" type="curve"/>
      <point x="525" y="-58"/>
      <point x="551" y="-125"/>
    </contour>
    <contour>
      <point x="508" y="-120" type="curve"/>
      <point x="529" y="-105" type="line"/>
      <point x="415" y="79"/>
      <point x="335" y="235"/>
      <point x="292" y="319" type="curve"/>
      <point x="343" y="418"/>
      <point x="420" y="568"/>
      <point x="529" y="743" type="curve"/>
      <point x="508" y="758" type="line"/>
      <point x="335" y="573"/>
      <point x="222" y="440"/>
      <point x="100" y="319" type="curve"/>
      <point x="188" y="239"/>
      <point x="308" y="94"/>
    </contour>
    <contour>
      <point x="1029" y="207" type="line"/>
      <point x="947" y="214"/>
      <point x="834" y="229"/>
      <point x="801" y="240" type="curve"/>
      <point x="834" y="254"/>
      <point x="939" y="270"/>
      <point x="1023" y="285" type="curve"/>
    </contour>
    <contour>
      <point x="1045" y="138" type="curve"/>
      <point x="1057" y="233"/>
      <point x="1078" y="448"/>
      <point x="1094" y="487" type="curve"/>
      <point x="1098" y="487"/>
      <point x="1102" y="488"/>
      <point x="1106" y="489" type="curve"/>
      <point x="1170" y="469"/>
      <point x="1237" y="448"/>
      <point x="1307" y="425" type="curve"/>
      <point x="1343" y="396"/>
      <point x="1382" y="364"/>
      <point x="1425" y="327" type="curve"/>
      <point x="1374" y="284"/>
      <point x="1329" y="248"/>
      <point x="1290" y="216" type="curve"/>
      <point x="1205" y="188"/>
      <point x="1123" y="162"/>
    </contour>
    <contour>
      <point x="1493" y="20" type="curve"/>
      <point x="1507" y="31" type="line"/>
      <point x="1481" y="68"/>
      <point x="1467" y="102"/>
      <point x="1448" y="133" type="curve"/>
      <point x="1467" y="165"/>
      <point x="1481" y="196"/>
      <point x="1507" y="235" type="curve"/>
      <point x="1493" y="243" type="line"/>
      <point x="1421" y="178"/>
      <point x="1390" y="158"/>
      <point x="1360" y="133" type="curve"/>
      <point x="1405" y="103"/>
      <point x="1422" y="85"/>
    </contour>
    <contour>
      <point x="1411" y="256" type="curve"/>
      <point x="1455" y="301" type="line"/>
      <point x="1480" y="279" type="line"/>
      <point x="1457" y="271"/>
      <point x="1434" y="263"/>
    </contour>
    <contour>
      <point x="1456" y="353" type="line"/>
      <point x="1444" y="364"/>
      <point x="1433" y="376"/>
      <point x="1422" y="388" type="curve"/>
      <point x="1476" y="370" type="line"/>
    </contour>
    <contour>
      <point x="1605" y="202" type="curve"/>
      <point x="1585" y="223"/>
      <point x="1563" y="244"/>
      <point x="1541" y="266" type="curve"/>
      <point x="1605" y="292" type="line"/>
      <point x="1605" y="271"/>
      <point x="1603" y="250"/>
      <point x="1602" y="231" type="curve"/>
      <point x="1602" y="230" type="line"/>
      <point x="1602" y="228" type="line" smooth="yes"/>
      <point x="1604" y="219"/>
      <point x="1605" y="211"/>
    </contour>
    <contour>
      <point x="1516" y="291" type="curve"/>
      <point x="1481" y="327" type="line"/>
      <point x="1511" y="358" type="line"/>
      <point x="1541" y="348"/>
      <point x="1571" y="337"/>
      <point x="1602" y="327" type="curve"/>
      <point x="1602" y="322" type="line"/>
      <point x="1603" y="322" type="line"/>
      <point x="1603" y="320" type="line"/>
      <point x="1574" y="310"/>
      <point x="1545" y="300"/>
    </contour>
    <contour>
      <point x="1773" y="202" type="curve"/>
      <point x="1704" y="209"/>
      <point x="1631" y="221"/>
      <point x="1605" y="229" type="curve"/>
      <point x="1633" y="241"/>
      <point x="1718" y="255"/>
      <point x="1794" y="268" type="curve"/>
      <point x="1789" y="247"/>
      <point x="1781" y="225"/>
    </contour>
    <contour>
      <point x="1493" y="410" type="curve"/>
      <point x="1507" y="421" type="line"/>
      <point x="1481" y="458"/>
      <point x="1467" y="492"/>
      <point x="1448" y="523" type="curve"/>
      <point x="1467" y="555"/>
      <point x="1481" y="586"/>
      <point x="1507" y="625" type="curve"/>
      <point x="1493" y="633" type="line"/>
      <point x="1421" y="568"/>
      <point x="1390" y="548"/>
      <point x="1360" y="523" type="curve"/>
      <point x="1405" y="493"/>
      <point x="1422" y="475"/>
    </contour>
    <contour>
      <point x="1605" y="356" type="curve"/>
      <point x="1582" y="365"/>
      <point x="1560" y="375"/>
      <point x="1538" y="384" type="curve"/>
      <point x="1604" y="449" type="line"/>
      <point x="1603" y="438"/>
      <point x="1602" y="427"/>
      <point x="1602" y="416" type="curve"/>
      <point x="1605" y="402"/>
      <point x="1606" y="388"/>
      <point x="1606" y="375" type="curve" smooth="yes"/>
      <point x="1606" y="368"/>
      <point x="1605" y="362"/>
    </contour>
    <contour>
      <point x="1801" y="293" type="curve"/>
      <point x="1749" y="299"/>
      <point x="1690" y="307"/>
      <point x="1649" y="315" type="curve"/>
      <point x="1653" y="337" type="line"/>
      <point x="1705" y="348"/>
      <point x="1784" y="360"/>
      <point x="1846" y="371" type="curve"/>
      <point x="1859" y="351"/>
      <point x="1874" y="330"/>
      <point x="1888" y="308" type="curve"/>
      <point x="1863" y="320"/>
      <point x="1839" y="336"/>
      <point x="1813" y="357" type="curve"/>
      <point x="1810" y="338"/>
      <point x="1806" y="317"/>
    </contour>
    <contour>
      <point x="1837" y="384" type="curve"/>
      <point x="1755" y="390"/>
      <point x="1639" y="406"/>
      <point x="1605" y="417" type="curve"/>
      <point x="1633" y="430"/>
      <point x="1711" y="444"/>
      <point x="1785" y="457" type="curve"/>
      <point x="1802" y="434"/>
      <point x="1819" y="410"/>
    </contour>
  </outline>
</glyph>
<glyph name="u12018" format="2">
  <advance width="1747"/>
  <unicode hex="12018"/>
  <outline>
    <contour>
      <point x="564" y="-199" type="curve"/>
      <point x="637" y="-145"/>
      <point x="798" y="-58"/>
      <point x="1005" y="38" type="curve"/>
      <point x="1007" y="20" type="line"/>
      <point x="1022" y="20" type="line"/>
      <point x="1022" y="26"/>
      <point x="1023" y="37"/>
      <point x="1024" y="46" type="curve"/>
      <point x="1036" y="52"/>
      <point x="1048" y="58"/>
      <point x="1060" y="63" type="curve"/>
      <point x="1069" y="-66" type="line"/>
      <point x="1084" y="-66" type="line"/>
      <point x="1086" y="-46"/>
      <point x="1088" y="-2"/>
      <point x="1091" y="45" type="curve"/>
      <point x="1098" y="39"/>
      <point x="1104" y="32"/>
      <point x="1111" y="27" type="curve"/>
      <point x="1115" y="-35"/>
      <point x="1118" y="-100"/>
      <point x="1121" y="-129" type="curve"/>
      <point x="1135" y="-129" type="line"/>
      <point x="1142" y="0" type="line"/>
      <point x="1212" y="-61" type="line"/>
      <point x="1234" y="-61" type="line"/>
      <point x="1240" y="8"/>
      <point x="1247" y="81"/>
      <point x="1255" y="150" type="curve"/>
      <point x="1379" y="203"/>
      <point x="1511" y="258"/>
      <point x="1646" y="310" type="curve"/>
      <point x="1647" y="336" type="line"/>
      <point x="1172" y="527"/>
      <point x="712" y="739"/>
      <point x="573" y="842" type="curve"/>
      <point x="560" y="765"/>
      <point x="534" y="698"/>
      <point x="495" y="641" type="curve"/>
      <point x="645" y="625"/>
      <point x="921" y="548"/>
      <point x="1259" y="440" type="curve"/>
      <point x="1249" y="439"/>
      <point x="1238" y="439"/>
      <point x="1227" y="439" type="curve" smooth="yes"/>
      <point x="1201" y="439"/>
      <point x="1174" y="441"/>
      <point x="1144" y="447" type="curve"/>
      <point x="1159" y="410"/>
      <point x="1171" y="348"/>
      <point x="1182" y="275" type="curve"/>
      <point x="1116" y="349"/>
      <point x="991" y="491"/>
      <point x="980" y="518" type="curve"/>
      <point x="961" y="489"/>
      <point x="935" y="470"/>
      <point x="912" y="449" type="curve"/>
      <point x="939" y="434"/>
      <point x="1106" y="308"/>
      <point x="1185" y="252" type="curve"/>
      <point x="1188" y="230"/>
      <point x="1191" y="208"/>
      <point x="1193" y="184" type="curve"/>
      <point x="1125" y="163" type="line"/>
      <point x="1116" y="163"/>
      <point x="1106" y="164"/>
      <point x="1097" y="165" type="curve"/>
      <point x="1099" y="194"/>
      <point x="1102" y="215"/>
      <point x="1104" y="221" type="curve"/>
      <point x="1096" y="219"/>
      <point x="1088" y="219"/>
      <point x="1081" y="219" type="curve" smooth="yes"/>
      <point x="1069" y="219"/>
      <point x="1057" y="220"/>
      <point x="1045" y="221" type="curve"/>
      <point x="1048" y="214"/>
      <point x="1051" y="183"/>
      <point x="1054" y="145" type="curve"/>
      <point x="1032" y="172" type="line"/>
      <point x="1035" y="222"/>
      <point x="1039" y="268"/>
      <point x="1042" y="277" type="curve"/>
      <point x="1034" y="275"/>
      <point x="1026" y="275"/>
      <point x="1019" y="275" type="curve" smooth="yes"/>
      <point x="1007" y="275"/>
      <point x="995" y="276"/>
      <point x="983" y="277" type="curve"/>
      <point x="985" y="271"/>
      <point x="988" y="249"/>
      <point x="991" y="221" type="curve"/>
      <point x="984" y="229"/>
      <point x="977" y="237"/>
      <point x="971" y="245" type="curve"/>
      <point x="974" y="290"/>
      <point x="977" y="326"/>
      <point x="980" y="333" type="curve"/>
      <point x="972" y="331"/>
      <point x="964" y="331"/>
      <point x="957" y="331" type="curve" smooth="yes"/>
      <point x="945" y="331"/>
      <point x="933" y="332"/>
      <point x="921" y="333" type="curve"/>
      <point x="923" y="329"/>
      <point x="924" y="316"/>
      <point x="926" y="299" type="curve"/>
      <point x="863" y="375"/>
      <point x="815" y="437"/>
      <point x="810" y="448" type="curve"/>
      <point x="790" y="425"/>
      <point x="746" y="377"/>
      <point x="723" y="357" type="curve"/>
      <point x="737" y="351"/>
      <point x="832" y="270"/>
      <point x="936" y="180" type="curve"/>
      <point x="940" y="107" type="line"/>
      <point x="745" y="51"/>
      <point x="586" y="12"/>
      <point x="486" y="2" type="curve"/>
      <point x="525" y="-55"/>
      <point x="551" y="-122"/>
    </contour>
    <contour>
      <point x="508" y="-120" type="curve"/>
      <point x="529" y="-105" type="line"/>
      <point x="415" y="79"/>
      <point x="335" y="235"/>
      <point x="292" y="319" type="curve"/>
      <point x="343" y="418"/>
      <point x="420" y="568"/>
      <point x="529" y="743" type="curve"/>
      <point x="508" y="758" type="line"/>
      <point x="335" y="573"/>
      <point x="222" y="440"/>
      <point x="100" y="319" type="curve"/>
      <point x="188" y="239"/>
      <point x="308" y="94"/>
    </contour>
    <contour>
      <point x="963" y="114" type="curve"/>
      <point x="963" y="127"/>
      <point x="964" y="140"/>
      <point x="965" y="155" type="curve"/>
      <point x="999" y="125" type="line"/>
      <point x="987" y="121"/>
      <point x="975" y="117"/>
    </contour>
    <contour>
      <point x="1107" y="82" type="line"/>
      <point x="1106" y="83"/>
      <point x="1106" y="83"/>
      <point x="1106" y="84" type="curve"/>
      <point x="1107" y="84" type="line"/>
    </contour>
    <contour>
      <point x="1211" y="-38" type="curve"/>
      <point x="1196" y="-21"/>
      <point x="1172" y="6"/>
      <point x="1144" y="39" type="curve"/>
      <point x="1146" y="62"/>
      <point x="1147" y="84"/>
      <point x="1149" y="103" type="curve"/>
      <point x="1165" y="111"/>
      <point x="1182" y="118"/>
      <point x="1199" y="126" type="curve"/>
      <point x="1204" y="70"/>
      <point x="1208" y="14"/>
    </contour>
    <contour>
      <point x="1097" y="154" type="curve"/>
      <point x="1097" y="163" type="line"/>
      <point x="1098" y="161"/>
      <point x="1099" y="158"/>
      <point x="1099" y="155" type="curve"/>
      <point x="1098" y="155"/>
      <point x="1098" y="154"/>
    </contour>
    <contour>
      <point x="1262" y="206" type="curve"/>
      <point x="1273" y="291"/>
      <point x="1287" y="369"/>
      <point x="1305" y="425" type="curve"/>
      <point x="1404" y="393"/>
      <point x="1507" y="358"/>
      <point x="1613" y="322" type="curve"/>
      <point x="1491" y="281"/>
      <point x="1373" y="242"/>
    </contour>
  </outline>
</glyph>
<glyph name="u12019" format="2">
  <advance width="1750"/>
  <unicode hex="12019"/>
  <outline>
    <contour>
      <point x="838" y="-265" type="curve"/>
      <point x="858" y="-265" type="line"/>
      <point x="876" y="-153"/>
      <point x="905" y="-93"/>
      <point x="926" y="-40" type="curve"/>
      <point x="902" y="-45"/>
      <point x="879" y="-46"/>
      <point x="856" y="-46" type="curve" smooth="yes"/>
      <point x="850" y="-46"/>
      <point x="843" y="-46"/>
      <point x="837" y="-46" type="curve"/>
      <point x="878" y="-26"/>
      <point x="922" y="-4"/>
      <point x="969" y="18" type="curve"/>
      <point x="996" y="20"/>
      <point x="1024" y="23"/>
      <point x="1053" y="26" type="curve"/>
      <point x="1103" y="-8"/>
      <point x="1125" y="-32"/>
      <point x="1209" y="-108" type="curve"/>
      <point x="1225" y="-94" type="line"/>
      <point x="1195" y="-49"/>
      <point x="1177" y="-8"/>
      <point x="1155" y="29" type="curve"/>
      <point x="1173" y="60"/>
      <point x="1188" y="91"/>
      <point x="1209" y="127" type="curve"/>
      <point x="1282" y="159" type="line"/>
      <point x="1284" y="131"/>
      <point x="1285" y="104"/>
      <point x="1286" y="78" type="curve"/>
      <point x="1225" y="29" type="line"/>
      <point x="1279" y="-7"/>
      <point x="1300" y="-30"/>
      <point x="1386" y="-108" type="curve"/>
      <point x="1402" y="-94" type="line"/>
      <point x="1372" y="-49"/>
      <point x="1354" y="-8"/>
      <point x="1332" y="29" type="curve"/>
      <point x="1354" y="68"/>
      <point x="1372" y="106"/>
      <point x="1402" y="153" type="curve"/>
      <point x="1386" y="162" type="line"/>
      <point x="1356" y="135"/>
      <point x="1331" y="115"/>
      <point x="1311" y="98" type="curve"/>
      <point x="1319" y="175" type="line"/>
      <point x="1425" y="220"/>
      <point x="1537" y="265"/>
      <point x="1650" y="309" type="curve"/>
      <point x="1647" y="318" type="line"/>
      <point x="1650" y="334" type="line"/>
      <point x="1550" y="374"/>
      <point x="1451" y="415"/>
      <point x="1355" y="455" type="curve"/>
      <point x="1365" y="503"/>
      <point x="1376" y="546"/>
      <point x="1389" y="578" type="curve"/>
      <point x="1361" y="573"/>
      <point x="1334" y="570"/>
      <point x="1306" y="570" type="curve" smooth="yes"/>
      <point x="1279" y="570"/>
      <point x="1250" y="573"/>
      <point x="1219" y="578" type="curve"/>
      <point x="1226" y="559"/>
      <point x="1233" y="535"/>
      <point x="1240" y="505" type="curve"/>
      <point x="1191" y="526" type="line"/>
      <point x="1197" y="545"/>
      <point x="1202" y="562"/>
      <point x="1209" y="578" type="curve"/>
      <point x="1180" y="573"/>
      <point x="1152" y="570"/>
      <point x="1122" y="570" type="curve" smooth="yes"/>
      <point x="1111" y="570"/>
      <point x="1101" y="570"/>
      <point x="1090" y="571" type="curve"/>
      <point x="848" y="680"/>
      <point x="654" y="778"/>
      <point x="573" y="839" type="curve"/>
      <point x="560" y="762"/>
      <point x="534" y="695"/>
      <point x="495" y="638" type="curve"/>
      <point x="614" y="625"/>
      <point x="814" y="574"/>
      <point x="1062" y="499" type="curve"/>
      <point x="1082" y="409"/>
      <point x="1096" y="281"/>
      <point x="1104" y="157" type="curve"/>
      <point x="1018" y="130"/>
      <point x="938" y="105"/>
      <point x="864" y="84" type="curve"/>
      <point x="776" y="97"/>
      <point x="700" y="113"/>
      <point x="657" y="131" type="curve"/>
      <point x="662" y="100"/>
      <point x="665" y="71"/>
      <point x="665" y="44" type="curve" smooth="yes"/>
      <point x="665" y="40"/>
      <point x="665" y="36"/>
      <point x="665" y="32" type="curve"/>
      <point x="642" y="26"/>
      <point x="620" y="22"/>
      <point x="599" y="17" type="curve"/>
      <point x="604" y="158"/>
      <point x="648" y="506"/>
      <point x="672" y="551" type="curve"/>
      <point x="641" y="546"/>
      <point x="612" y="543"/>
      <point x="585" y="543" type="curve" smooth="yes"/>
      <point x="557" y="543"/>
      <point x="530" y="546"/>
      <point x="502" y="551" type="curve"/>
      <point x="526" y="506"/>
      <point x="570" y="149"/>
      <point x="574" y="12" type="curve"/>
      <point x="541" y="6"/>
      <point x="511" y="1"/>
      <point x="486" y="-1" type="curve"/>
      <point x="525" y="-58"/>
      <point x="551" y="-125"/>
      <point x="564" y="-202" type="curve"/>
      <point x="608" y="-169"/>
      <point x="685" y="-124"/>
      <point x="784" y="-73" type="curve"/>
      <point x="803" y="-118"/>
      <point x="823" y="-176"/>
    </contour>
    <contour>
      <point x="508" y="-120" type="curve"/>
      <point x="529" y="-105" type="line"/>
      <point x="415" y="79"/>
      <point x="335" y="235"/>
      <point x="292" y="319" type="curve"/>
      <point x="343" y="418"/>
      <point x="420" y="568"/>
      <point x="529" y="743" type="curve"/>
      <point x="508" y="758" type="line"/>
      <point x="335" y="573"/>
      <point x="222" y="440"/>
      <point x="100" y="319" type="curve"/>
      <point x="188" y="239"/>
      <point x="308" y="94"/>
    </contour>
    <contour>
      <point x="640" y="219" type="curve"/>
      <point x="687" y="244"/>
      <point x="818" y="292"/>
      <point x="938" y="292" type="curve"/>
      <point x="938" y="316" type="line"/>
      <point x="818" y="316"/>
      <point x="687" y="364"/>
      <point x="640" y="389" type="curve"/>
      <point x="645" y="358"/>
      <point x="648" y="329"/>
      <point x="648" y="302" type="curve" smooth="yes"/>
      <point x="648" y="274"/>
      <point x="645" y="247"/>
    </contour>
    <contour>
      <point x="1087" y="61" type="line"/>
      <point x="1079" y="61"/>
      <point x="1072" y="62"/>
      <point x="1064" y="62" type="curve"/>
      <point x="1123" y="89" type="line"/>
    </contour>
    <contour>
      <point x="1135" y="166" type="curve"/>
      <point x="1145" y="273"/>
      <point x="1157" y="375"/>
      <point x="1175" y="459" type="curve"/>
      <point x="1177" y="448"/>
      <point x="1178" y="439"/>
      <point x="1178" y="429" type="curve" smooth="yes"/>
      <point x="1178" y="415"/>
      <point x="1176" y="401"/>
      <point x="1175" y="387" type="curve"/>
      <point x="1177" y="377"/>
      <point x="1178" y="367"/>
      <point x="1178" y="358" type="curve" smooth="yes"/>
      <point x="1178" y="344"/>
      <point x="1176" y="331"/>
      <point x="1175" y="317" type="curve"/>
      <point x="1177" y="307"/>
      <point x="1178" y="297"/>
      <point x="1178" y="288" type="curve" smooth="yes"/>
      <point x="1178" y="274"/>
      <point x="1176" y="261"/>
      <point x="1175" y="247" type="curve"/>
      <point x="1177" y="237"/>
      <point x="1177" y="227"/>
      <point x="1177" y="218" type="curve" smooth="yes"/>
      <point x="1177" y="205"/>
      <point x="1176" y="192"/>
      <point x="1175" y="179" type="curve"/>
      <point x="1161" y="175"/>
      <point x="1148" y="170"/>
    </contour>
    <contour>
      <point x="1277" y="227" type="curve"/>
      <point x="1237" y="233"/>
      <point x="1197" y="243"/>
      <point x="1179" y="248" type="curve"/>
      <point x="1196" y="255"/>
      <point x="1234" y="264"/>
      <point x="1273" y="270" type="curve"/>
      <point x="1275" y="256"/>
      <point x="1276" y="241"/>
    </contour>
    <contour>
      <point x="1270" y="298" type="line"/>
      <point x="1233" y="305"/>
      <point x="1196" y="313"/>
      <point x="1179" y="318" type="curve"/>
      <point x="1195" y="324"/>
      <point x="1230" y="333"/>
      <point x="1266" y="339" type="curve"/>
    </contour>
    <contour>
      <point x="1262" y="369" type="line"/>
      <point x="1227" y="376"/>
      <point x="1194" y="384"/>
      <point x="1179" y="388" type="curve"/>
      <point x="1194" y="394"/>
      <point x="1224" y="401"/>
      <point x="1257" y="407" type="curve"/>
    </contour>
    <contour>
      <point x="1230" y="446" type="curve"/>
      <point x="1205" y="451"/>
      <point x="1184" y="457"/>
      <point x="1175" y="460" type="curve"/>
      <point x="1175" y="461"/>
      <point x="1176" y="462"/>
      <point x="1176" y="463" type="curve"/>
      <point x="1194" y="458"/>
      <point x="1212" y="452"/>
    </contour>
    <contour>
      <point x="1324" y="227" type="curve"/>
      <point x="1325" y="244"/>
      <point x="1327" y="260"/>
      <point x="1329" y="276" type="curve"/>
      <point x="1335" y="277"/>
      <point x="1341" y="277"/>
      <point x="1347" y="277" type="curve"/>
      <point x="1347" y="290" type="line"/>
      <point x="1331" y="290" type="line"/>
      <point x="1338" y="347" type="line"/>
      <point x="1347" y="347" type="line"/>
      <point x="1347" y="360" type="line"/>
      <point x="1340" y="360" type="line"/>
      <point x="1347" y="408" type="line"/>
      <point x="1431" y="380"/>
      <point x="1517" y="352"/>
      <point x="1606" y="321" type="curve"/>
      <point x="1509" y="288"/>
      <point x="1415" y="257"/>
    </contour>
  </outline>
</glyph>
<glyph name="u1201A" format="2">
  <advance width="1750"/>
  <unicode hex="1201A"/>
  <outline>
    <contour>
      <point x="564" y="-199" type="curve"/>
      <point x="648" y="-136"/>
      <point x="853" y="-30"/>
      <point x="1109" y="86" type="curve"/>
      <point x="1155" y="45"/>
      <point x="1199" y="4"/>
      <point x="1238" y="-32" type="curve"/>
      <point x="1254" y="-17" type="line"/>
      <point x="1243" y="-3" type="line"/>
      <point x="1348" y="96"/>
      <point x="1485" y="221"/>
      <point x="1581" y="285" type="curve"/>
      <point x="1650" y="312" type="line"/>
      <point x="1647" y="321" type="line"/>
      <point x="1650" y="337" type="line"/>
      <point x="1611" y="352"/>
      <point x="1572" y="368"/>
      <point x="1533" y="384" type="curve"/>
      <point x="1536" y="387" type="line"/>
      <point x="1431" y="517"/>
      <point x="1355" y="641"/>
      <point x="1325" y="721" type="curve"/>
      <point x="1295" y="683"/>
      <point x="1266" y="656"/>
      <point x="1232" y="633" type="curve"/>
      <point x="1198" y="656"/>
      <point x="1170" y="683"/>
      <point x="1140" y="721" type="curve"/>
      <point x="1126" y="683"/>
      <point x="1102" y="636"/>
      <point x="1069" y="584" type="curve"/>
      <point x="837" y="689"/>
      <point x="652" y="783"/>
      <point x="573" y="842" type="curve"/>
      <point x="560" y="765"/>
      <point x="534" y="698"/>
      <point x="495" y="641" type="curve"/>
      <point x="608" y="629"/>
      <point x="794" y="582"/>
      <point x="1023" y="513" type="curve"/>
      <point x="995" y="473"/>
      <point x="964" y="430"/>
      <point x="929" y="387" type="curve"/>
      <point x="931" y="384" type="line"/>
      <point x="900" y="348"/>
      <point x="868" y="322"/>
      <point x="829" y="300" type="curve"/>
      <point x="882" y="274"/>
      <point x="963" y="212"/>
      <point x="1046" y="141" type="curve"/>
      <point x="802" y="66"/>
      <point x="603" y="14"/>
      <point x="486" y="2" type="curve"/>
      <point x="525" y="-55"/>
      <point x="551" y="-122"/>
    </contour>
    <contour>
      <point x="508" y="-120" type="curve"/>
      <point x="529" y="-105" type="line"/>
      <point x="415" y="79"/>
      <point x="335" y="235"/>
      <point x="292" y="319" type="curve"/>
      <point x="343" y="418"/>
      <point x="420" y="568"/>
      <point x="529" y="743" type="curve"/>
      <point x="508" y="758" type="line"/>
      <point x="335" y="573"/>
      <point x="222" y="440"/>
      <point x="100" y="319" type="curve"/>
      <point x="188" y="239"/>
      <point x="308" y="94"/>
    </contour>
    <contour>
      <point x="1227" y="16" type="curve"/>
      <point x="1155" y="106" type="line"/>
      <point x="1222" y="136"/>
      <point x="1293" y="167"/>
      <point x="1365" y="197" type="curve"/>
      <point x="1321" y="135"/>
      <point x="1271" y="71"/>
    </contour>
    <contour>
      <point x="1111" y="162" type="line"/>
      <point x="1110" y="162"/>
      <point x="1110" y="163"/>
      <point x="1109" y="163" type="curve"/>
      <point x="1233" y="260" type="line"/>
      <point x="1289" y="219" type="line"/>
    </contour>
    <contour>
      <point x="1099" y="176" type="curve"/>
      <point x="1037" y="256"/>
      <point x="981" y="333"/>
      <point x="956" y="382" type="curve"/>
      <point x="1001" y="425"/>
      <point x="1042" y="463"/>
      <point x="1081" y="496" type="curve"/>
      <point x="1303" y="425" type="line"/>
      <point x="1293" y="409"/>
      <point x="1261" y="368"/>
      <point x="1223" y="322" type="curve"/>
      <point x="1187" y="369"/>
      <point x="1155" y="414"/>
      <point x="1148" y="430" type="curve"/>
      <point x="1129" y="401"/>
      <point x="1103" y="382"/>
      <point x="1080" y="362" type="curve"/>
      <point x="1098" y="356"/>
      <point x="1144" y="324"/>
      <point x="1194" y="288" type="curve"/>
      <point x="1160" y="247"/>
      <point x="1125" y="206"/>
    </contour>
    <contour>
      <point x="1305" y="224" type="line"/>
      <point x="1290" y="240"/>
      <point x="1274" y="259"/>
      <point x="1257" y="280" type="curve"/>
      <point x="1310" y="321"/>
      <point x="1357" y="357"/>
      <point x="1373" y="362" type="curve"/>
      <point x="1351" y="380"/>
      <point x="1328" y="398"/>
      <point x="1309" y="423" type="curve"/>
      <point x="1364" y="406"/>
      <point x="1420" y="387"/>
      <point x="1477" y="368" type="curve"/>
      <point x="1461" y="338"/>
      <point x="1437" y="300"/>
      <point x="1408" y="258" type="curve"/>
    </contour>
    <contour>
      <point x="1486" y="404" type="curve"/>
      <point x="1368" y="453"/>
      <point x="1253" y="501"/>
      <point x="1147" y="549" type="curve"/>
      <point x="1176" y="570"/>
      <point x="1204" y="589"/>
      <point x="1232" y="605" type="curve"/>
      <point x="1311" y="562"/>
      <point x="1387" y="496"/>
    </contour>
  </outline>
</glyph>
<glyph name="u1201B" format="2">
  <advance width="1750"/>
  <unicode hex="1201B"/>
  <outline>
    <contour>
      <point x="564" y="-199" type="curve"/>
      <point x="703" y="-96"/>
      <point x="1166" y="125"/>
      <point x="1650" y="312" type="curve"/>
      <point x="1647" y="321" type="line"/>
      <point x="1650" y="337" type="line"/>
      <point x="1175" y="528"/>
      <point x="712" y="739"/>
      <point x="573" y="842" type="curve"/>
      <point x="560" y="765"/>
      <point x="534" y="698"/>
      <point x="495" y="641" type="curve"/>
      <point x="693" y="620"/>
      <point x="1115" y="492"/>
      <point x="1606" y="324" type="curve"/>
      <point x="1114" y="158"/>
      <point x="685" y="22"/>
      <point x="486" y="2" type="curve"/>
      <point x="525" y="-55"/>
      <point x="551" y="-122"/>
    </contour>
    <contour>
      <point x="508" y="-120" type="curve"/>
      <point x="529" y="-105" type="line"/>
      <point x="415" y="79"/>
      <point x="335" y="235"/>
      <point x="292" y="319" type="curve"/>
      <point x="343" y="418"/>
      <point x="420" y="568"/>
      <point x="529" y="743" type="curve"/>
      <point x="508" y="758" type="line"/>
      <point x="335" y="573"/>
      <point x="222" y="440"/>
      <point x="100" y="319" type="curve"/>
      <point x="188" y="239"/>
      <point x="308" y="94"/>
    </contour>
    <contour>
      <point x="629" y="216" type="curve"/>
      <point x="607" y="220"/>
      <point x="586" y="225"/>
      <point x="567" y="230" type="curve"/>
      <point x="577" y="287"/>
      <point x="588" y="338"/>
      <point x="597" y="359" type="curve"/>
      <point x="589" y="357"/>
      <point x="582" y="356"/>
      <point x="574" y="355" type="curve"/>
      <point x="579" y="403"/>
      <point x="586" y="448"/>
      <point x="593" y="482" type="curve"/>
      <point x="609" y="413"/>
      <point x="619" y="310"/>
    </contour>
    <contour>
      <point x="720" y="202" type="curve"/>
      <point x="696" y="205"/>
      <point x="674" y="208"/>
      <point x="652" y="212" type="curve"/>
      <point x="658" y="305"/>
      <point x="669" y="415"/>
      <point x="683" y="482" type="curve"/>
      <point x="700" y="410"/>
      <point x="710" y="300"/>
    </contour>
    <contour>
      <point x="495" y="83" type="curve"/>
      <point x="580" y="117"/>
      <point x="681" y="136"/>
      <point x="815" y="152" type="curve"/>
      <point x="815" y="151"/>
      <point x="816" y="150"/>
      <point x="816" y="149" type="curve"/>
      <point x="829" y="149" type="line"/>
      <point x="829" y="153" type="line"/>
      <point x="858" y="157"/>
      <point x="890" y="160"/>
      <point x="923" y="163" type="curve"/>
      <point x="923" y="182" type="line"/>
      <point x="979" y="131" type="line"/>
      <point x="987" y="139" type="line"/>
      <point x="927" y="237"/>
      <point x="864" y="345"/>
      <point x="850" y="389" type="curve"/>
      <point x="849" y="388"/>
      <point x="849" y="387"/>
      <point x="848" y="387" type="curve"/>
      <point x="856" y="447"/>
      <point x="865" y="499"/>
      <point x="876" y="526" type="curve"/>
      <point x="854" y="522"/>
      <point x="834" y="520"/>
      <point x="815" y="520" type="curve" smooth="yes"/>
      <point x="804" y="520"/>
      <point x="794" y="521"/>
      <point x="784" y="522" type="curve"/>
      <point x="786" y="526" type="line"/>
      <point x="781" y="525"/>
      <point x="776" y="524"/>
      <point x="772" y="524" type="curve" smooth="yes"/>
      <point x="768" y="524"/>
      <point x="764" y="525"/>
      <point x="760" y="526" type="curve"/>
      <point x="760" y="525"/>
      <point x="761" y="523"/>
      <point x="761" y="522" type="curve"/>
      <point x="748" y="521"/>
      <point x="735" y="520"/>
      <point x="723" y="520" type="curve" smooth="yes"/>
      <point x="713" y="520"/>
      <point x="703" y="521"/>
      <point x="694" y="522" type="curve"/>
      <point x="696" y="526" type="line"/>
      <point x="691" y="525"/>
      <point x="686" y="524"/>
      <point x="682" y="524" type="curve" smooth="yes"/>
      <point x="678" y="524"/>
      <point x="674" y="525"/>
      <point x="670" y="526" type="curve"/>
      <point x="670" y="525"/>
      <point x="671" y="523"/>
      <point x="671" y="522" type="curve"/>
      <point x="658" y="521"/>
      <point x="645" y="520"/>
      <point x="633" y="520" type="curve" smooth="yes"/>
      <point x="623" y="520"/>
      <point x="613" y="521"/>
      <point x="604" y="522" type="curve"/>
      <point x="606" y="526" type="line"/>
      <point x="601" y="525"/>
      <point x="596" y="524"/>
      <point x="592" y="524" type="curve" smooth="yes"/>
      <point x="588" y="524"/>
      <point x="584" y="525"/>
      <point x="580" y="526" type="curve"/>
      <point x="580" y="525"/>
      <point x="581" y="523"/>
      <point x="581" y="522" type="curve"/>
      <point x="569" y="521"/>
      <point x="558" y="520"/>
      <point x="547" y="520" type="curve" smooth="yes"/>
      <point x="527" y="520"/>
      <point x="509" y="522"/>
      <point x="490" y="526" type="curve"/>
      <point x="505" y="488"/>
      <point x="516" y="424"/>
      <point x="524" y="353" type="curve"/>
      <point x="513" y="354"/>
      <point x="502" y="356"/>
      <point x="490" y="359" type="curve"/>
      <point x="498" y="340"/>
      <point x="509" y="295"/>
      <point x="518" y="244" type="curve"/>
      <point x="495" y="253" type="line"/>
      <point x="500" y="222"/>
      <point x="503" y="193"/>
      <point x="503" y="166" type="curve" smooth="yes"/>
      <point x="503" y="138"/>
      <point x="500" y="111"/>
    </contour>
    <contour>
      <point x="919" y="185" type="curve"/>
      <point x="889" y="186"/>
      <point x="859" y="188"/>
      <point x="831" y="190" type="curve"/>
      <point x="832" y="210"/>
      <point x="833" y="231"/>
      <point x="835" y="252" type="curve"/>
      <point x="861" y="232"/>
      <point x="891" y="209"/>
    </contour>
    <contour>
      <point x="811" y="192" type="curve"/>
      <point x="787" y="194"/>
      <point x="764" y="196"/>
      <point x="741" y="199" type="curve"/>
      <point x="747" y="295"/>
      <point x="758" y="411"/>
      <point x="773" y="482" type="curve"/>
      <point x="783" y="442"/>
      <point x="790" y="390"/>
      <point x="796" y="336" type="curve"/>
      <point x="783" y="325"/>
      <point x="768" y="315"/>
      <point x="751" y="307" type="curve"/>
      <point x="763" y="301"/>
      <point x="781" y="289"/>
      <point x="803" y="274" type="curve"/>
      <point x="806" y="246"/>
      <point x="809" y="219"/>
    </contour>
  </outline>
</glyph>
<glyph name="u1201C" format="2">
  <advance width="1447"/>
  <unicode hex="1201C"/>
  <outline>
    <contour>
      <point x="1238" y="-121" type="curve"/>
      <point x="1264" y="-121" type="line"/>
      <point x="1267" y="-2" type="line"/>
      <point x="1298" y="-5" type="line"/>
      <point x="1300" y="21" type="line"/>
      <point x="1268" y="26" type="line"/>
      <point x="1283" y="411"/>
      <point x="1306" y="578"/>
      <point x="1347" y="727" type="curve"/>
      <point x="1309" y="719"/>
      <point x="1272" y="715"/>
      <point x="1236" y="715" type="curve" smooth="yes"/>
      <point x="1200" y="715"/>
      <point x="1165" y="719"/>
      <point x="1131" y="727" type="curve"/>
      <point x="1146" y="673"/>
      <point x="1158" y="624"/>
      <point x="1168" y="571" type="curve"/>
      <point x="975" y="556"/>
      <point x="835" y="550"/>
      <point x="725" y="550" type="curve" smooth="yes"/>
      <point x="609" y="550"/>
      <point x="525" y="557"/>
      <point x="445" y="570" type="curve"/>
      <point x="456" y="537"/>
      <point x="463" y="504"/>
      <point x="468" y="472" type="curve"/>
      <point x="311" y="487"/>
      <point x="183" y="512"/>
      <point x="100" y="547" type="curve"/>
      <point x="107" y="507"/>
      <point x="110" y="472"/>
      <point x="110" y="437" type="curve" smooth="yes"/>
      <point x="110" y="401"/>
      <point x="107" y="367"/>
      <point x="100" y="332" type="curve"/>
      <point x="200" y="373"/>
      <point x="317" y="396"/>
      <point x="472" y="415" type="curve"/>
      <point x="472" y="395"/>
      <point x="471" y="375"/>
      <point x="469" y="355" type="curve"/>
      <point x="512" y="372"/>
      <point x="551" y="387"/>
      <point x="593" y="401" type="curve"/>
      <point x="589" y="370"/>
      <point x="581" y="344"/>
      <point x="569" y="319" type="curve"/>
      <point x="618" y="316"/>
      <point x="696" y="304"/>
      <point x="789" y="288" type="curve"/>
      <point x="696" y="272"/>
      <point x="618" y="261"/>
      <point x="569" y="258" type="curve"/>
      <point x="581" y="233"/>
      <point x="589" y="206"/>
      <point x="593" y="176" type="curve"/>
      <point x="551" y="190"/>
      <point x="512" y="205"/>
      <point x="469" y="222" type="curve"/>
      <point x="471" y="200"/>
      <point x="472" y="177"/>
      <point x="472" y="155" type="curve"/>
      <point x="446" y="157"/>
      <point x="421" y="159"/>
      <point x="397" y="162" type="curve"/>
      <point x="405" y="217"/>
      <point x="416" y="262"/>
      <point x="431" y="298" type="curve"/>
      <point x="403" y="293"/>
      <point x="382" y="291"/>
      <point x="362" y="291" type="curve" smooth="yes"/>
      <point x="341" y="291"/>
      <point x="321" y="293"/>
      <point x="296" y="298" type="curve"/>
      <point x="312" y="258"/>
      <point x="323" y="218"/>
      <point x="331" y="172" type="curve"/>
      <point x="300" y="177"/>
      <point x="270" y="182"/>
      <point x="243" y="188" type="curve"/>
      <point x="250" y="231"/>
      <point x="260" y="268"/>
      <point x="272" y="298" type="curve"/>
      <point x="244" y="293"/>
      <point x="223" y="291"/>
      <point x="203" y="291" type="curve" smooth="yes"/>
      <point x="182" y="291"/>
      <point x="162" y="293"/>
      <point x="137" y="298" type="curve"/>
      <point x="149" y="269"/>
      <point x="158" y="239"/>
      <point x="165" y="207" type="curve"/>
      <point x="141" y="214"/>
      <point x="119" y="222"/>
      <point x="100" y="230" type="curve"/>
      <point x="107" y="190"/>
      <point x="110" y="155"/>
      <point x="110" y="120" type="curve" smooth="yes"/>
      <point x="110" y="84"/>
      <point x="107" y="50"/>
      <point x="100" y="15" type="curve"/>
      <point x="128" y="26"/>
      <point x="157" y="36"/>
      <point x="189" y="45" type="curve"/>
      <point x="200" y="-69" type="line"/>
      <point x="220" y="-69" type="line"/>
      <point x="222" y="-24"/>
      <point x="224" y="17"/>
      <point x="227" y="55" type="curve"/>
      <point x="263" y="64"/>
      <point x="302" y="73"/>
      <point x="344" y="80" type="curve"/>
      <point x="349" y="36"/>
      <point x="353" y="-12"/>
      <point x="359" y="-69" type="curve"/>
      <point x="379" y="-69" type="line"/>
      <point x="381" y="-12"/>
      <point x="384" y="40"/>
      <point x="389" y="87" type="curve"/>
      <point x="414" y="91"/>
      <point x="440" y="94"/>
      <point x="467" y="97" type="curve"/>
      <point x="462" y="67"/>
      <point x="455" y="37"/>
      <point x="445" y="7" type="curve"/>
      <point x="524" y="19"/>
      <point x="607" y="26"/>
      <point x="721" y="26" type="curve" smooth="yes"/>
      <point x="843" y="26"/>
      <point x="1001" y="18"/>
      <point x="1230" y="0" type="curve"/>
      <point x="1232" y="-38"/>
      <point x="1235" y="-77"/>
    </contour>
    <contour>
      <point x="1227" y="34" type="curve"/>
      <point x="918" y="90"/>
      <point x="761" y="124"/>
      <point x="635" y="162" type="curve"/>
      <point x="699" y="190"/>
      <point x="805" y="226"/>
      <point x="925" y="264" type="curve"/>
      <point x="1015" y="247"/>
      <point x="1113" y="228"/>
      <point x="1214" y="210" type="curve"/>
      <point x="1218" y="158"/>
      <point x="1223" y="100"/>
    </contour>
    <contour>
      <point x="925" y="313" type="line"/>
      <point x="805" y="350"/>
      <point x="699" y="387"/>
      <point x="635" y="414" type="curve"/>
      <point x="754" y="451"/>
      <point x="900" y="483"/>
      <point x="1176" y="533" type="curve"/>
      <point x="1185" y="484"/>
      <point x="1192" y="429"/>
      <point x="1199" y="363" type="curve"/>
    </contour>
    <contour>
      <point x="1212" y="228" type="curve"/>
      <point x="1144" y="247"/>
      <point x="1073" y="268"/>
      <point x="1004" y="288" type="curve"/>
      <point x="1069" y="308"/>
      <point x="1136" y="327"/>
      <point x="1201" y="345" type="curve"/>
      <point x="1205" y="310"/>
      <point x="1209" y="271"/>
    </contour>
  </outline>
</glyph>
<glyph name="u1201D" format="2">
  <advance width="1788"/>
  <unicode hex="1201D"/>
  <outline>
    <contour>
      <point x="1194" y="-112" type="line"/>
      <point x="1220" y="-112" type="line"/>
      <point x="1227" y="142"/>
      <point x="1237" y="316"/>
      <point x="1251" y="447" type="curve"/>
      <point x="1254" y="418"/>
      <point x="1256" y="388"/>
      <point x="1256" y="358" type="curve" smooth="yes"/>
      <point x="1256" y="314"/>
      <point x="1252" y="269"/>
      <point x="1243" y="224" type="curve"/>
      <point x="1330" y="260"/>
      <point x="1441" y="326"/>
      <point x="1688" y="350" type="curve"/>
      <point x="1688" y="377" type="line"/>
      <point x="1438" y="418"/>
      <point x="1344" y="462"/>
      <point x="1257" y="503" type="curve"/>
      <point x="1269" y="597"/>
      <point x="1284" y="668"/>
      <point x="1303" y="736" type="curve"/>
      <point x="1265" y="728"/>
      <point x="1228" y="724"/>
      <point x="1192" y="724" type="curve" smooth="yes"/>
      <point x="1156" y="724"/>
      <point x="1121" y="728"/>
      <point x="1087" y="736" type="curve"/>
      <point x="1098" y="694"/>
      <point x="1108" y="655"/>
      <point x="1117" y="615" type="curve"/>
      <point x="980" y="626"/>
      <point x="869" y="648"/>
      <point x="798" y="677" type="curve"/>
      <point x="801" y="656"/>
      <point x="804" y="636"/>
      <point x="805" y="617" type="curve"/>
      <point x="662" y="628"/>
      <point x="525" y="649"/>
      <point x="458" y="677" type="curve"/>
      <point x="463" y="646"/>
      <point x="466" y="617"/>
      <point x="466" y="590" type="curve" smooth="yes"/>
      <point x="466" y="562"/>
      <point x="463" y="535"/>
      <point x="458" y="507" type="curve"/>
      <point x="539" y="540"/>
      <point x="665" y="559"/>
      <point x="806" y="574" type="curve"/>
      <point x="805" y="551"/>
      <point x="802" y="529"/>
      <point x="798" y="507" type="curve"/>
      <point x="885" y="542"/>
      <point x="986" y="562"/>
      <point x="1125" y="577" type="curve"/>
      <point x="1134" y="528"/>
      <point x="1143" y="475"/>
      <point x="1151" y="412" type="curve"/>
      <point x="999" y="423"/>
      <point x="875" y="445"/>
      <point x="798" y="477" type="curve"/>
      <point x="801" y="456"/>
      <point x="804" y="436"/>
      <point x="805" y="417" type="curve"/>
      <point x="662" y="428"/>
      <point x="525" y="449"/>
      <point x="458" y="477" type="curve"/>
      <point x="463" y="446"/>
      <point x="466" y="417"/>
      <point x="466" y="390" type="curve" smooth="yes"/>
      <point x="466" y="362"/>
      <point x="463" y="335"/>
      <point x="458" y="307" type="curve"/>
      <point x="539" y="340"/>
      <point x="665" y="359"/>
      <point x="806" y="374" type="curve"/>
      <point x="805" y="351"/>
      <point x="802" y="329"/>
      <point x="798" y="307" type="curve"/>
      <point x="891" y="345"/>
      <point x="1000" y="364"/>
      <point x="1155" y="381" type="curve"/>
      <point x="1160" y="332"/>
      <point x="1165" y="276"/>
      <point x="1170" y="211" type="curve"/>
      <point x="1009" y="221"/>
      <point x="878" y="244"/>
      <point x="798" y="277" type="curve"/>
      <point x="801" y="256"/>
      <point x="804" y="236"/>
      <point x="805" y="217" type="curve"/>
      <point x="662" y="228"/>
      <point x="525" y="249"/>
      <point x="458" y="277" type="curve"/>
      <point x="463" y="246"/>
      <point x="466" y="217"/>
      <point x="466" y="190" type="curve" smooth="yes"/>
      <point x="466" y="162"/>
      <point x="463" y="135"/>
      <point x="458" y="107" type="curve"/>
      <point x="539" y="140"/>
      <point x="665" y="159"/>
      <point x="806" y="174" type="curve"/>
      <point x="805" y="151"/>
      <point x="802" y="129"/>
      <point x="798" y="107" type="curve"/>
      <point x="895" y="146"/>
      <point x="1008" y="165"/>
      <point x="1173" y="182" type="curve"/>
      <point x="1185" y="10" type="line"/>
      <point x="1018" y="20"/>
      <point x="880" y="43"/>
      <point x="798" y="77" type="curve"/>
      <point x="801" y="56"/>
      <point x="804" y="36"/>
      <point x="805" y="17" type="curve"/>
      <point x="662" y="28"/>
      <point x="525" y="49"/>
      <point x="458" y="77" type="curve"/>
      <point x="463" y="46"/>
      <point x="466" y="17"/>
      <point x="466" y="-10" type="curve" smooth="yes"/>
      <point x="466" y="-38"/>
      <point x="463" y="-65"/>
      <point x="458" y="-93" type="curve"/>
      <point x="539" y="-60"/>
      <point x="665" y="-41"/>
      <point x="806" y="-26" type="curve"/>
      <point x="805" y="-48"/>
      <point x="802" y="-70"/>
      <point x="798" y="-93" type="curve"/>
      <point x="898" y="-52"/>
      <point x="1015" y="-33"/>
      <point x="1187" y="-16" type="curve"/>
    </contour>
    <contour>
      <point x="126" y="33" type="line"/>
      <point x="268" y="159"/>
      <point x="357" y="230"/>
      <point x="441" y="292" type="curve"/>
      <point x="380" y="344"/>
      <point x="249" y="458"/>
      <point x="144" y="580" type="curve"/>
      <point x="116" y="565" type="line"/>
      <point x="180" y="450"/>
      <point x="222" y="363"/>
      <point x="264" y="292" type="curve"/>
      <point x="233" y="240"/>
      <point x="177" y="155"/>
      <point x="100" y="54" type="curve"/>
    </contour>
  </outline>
</glyph>
<glyph name="u1201E" format="2">
  <advance width="1788"/>
  <unicode hex="1201E"/>
  <outline>
    <contour>
      <point x="472" y="-111" type="curve"/>
      <point x="639" y="-65"/>
      <point x="797" y="-42"/>
      <point x="1290" y="-28" type="curve"/>
      <point x="1290" y="-2" type="line"/>
      <point x="1266" y="0"/>
      <point x="1243" y="1"/>
      <point x="1220" y="2" type="curve"/>
      <point x="1227" y="228"/>
      <point x="1236" y="368"/>
      <point x="1248" y="470" type="curve"/>
      <point x="1253" y="433"/>
      <point x="1256" y="395"/>
      <point x="1256" y="356" type="curve" smooth="yes"/>
      <point x="1256" y="313"/>
      <point x="1252" y="269"/>
      <point x="1243" y="224" type="curve"/>
      <point x="1330" y="260"/>
      <point x="1441" y="326"/>
      <point x="1688" y="350" type="curve"/>
      <point x="1688" y="377" type="line"/>
      <point x="1434" y="418"/>
      <point x="1342" y="464"/>
      <point x="1253" y="505" type="curve"/>
      <point x="1266" y="597"/>
      <point x="1282" y="659"/>
      <point x="1303" y="736" type="curve"/>
      <point x="1265" y="728"/>
      <point x="1228" y="724"/>
      <point x="1192" y="724" type="curve" smooth="yes"/>
      <point x="1156" y="724"/>
      <point x="1121" y="728"/>
      <point x="1087" y="736" type="curve"/>
      <point x="1091" y="720" type="line"/>
      <point x="745" y="747"/>
      <point x="714" y="767"/>
      <point x="542" y="815" type="curve"/>
      <point x="550" y="781"/>
      <point x="553" y="747"/>
      <point x="553" y="711" type="curve" smooth="yes"/>
      <point x="553" y="695"/>
      <point x="553" y="679"/>
      <point x="551" y="662" type="curve"/>
      <point x="534" y="660"/>
      <point x="518" y="660"/>
      <point x="502" y="660" type="curve" smooth="yes"/>
      <point x="465" y="660"/>
      <point x="430" y="664"/>
      <point x="395" y="672" type="curve"/>
      <point x="442" y="502"/>
      <point x="462" y="440"/>
      <point x="488" y="100" type="curve"/>
      <point x="472" y="105" type="line"/>
      <point x="480" y="71"/>
      <point x="484" y="36"/>
      <point x="484" y="0" type="curve" smooth="yes"/>
      <point x="484" y="-36"/>
      <point x="480" y="-73"/>
    </contour>
    <contour>
      <point x="126" y="33" type="line"/>
      <point x="268" y="159"/>
      <point x="357" y="230"/>
      <point x="441" y="292" type="curve"/>
      <point x="380" y="344"/>
      <point x="249" y="458"/>
      <point x="144" y="580" type="curve"/>
      <point x="116" y="565" type="line"/>
      <point x="180" y="450"/>
      <point x="222" y="363"/>
      <point x="264" y="292" type="curve"/>
      <point x="233" y="240"/>
      <point x="177" y="155"/>
      <point x="100" y="54" type="curve"/>
    </contour>
    <contour>
      <point x="776" y="41" type="curve"/>
      <point x="679" y="54"/>
      <point x="610" y="68"/>
      <point x="534" y="88" type="curve"/>
      <point x="547" y="380"/>
      <point x="565" y="495"/>
      <point x="595" y="613" type="curve"/>
      <point x="652" y="629"/>
      <point x="703" y="641"/>
      <point x="776" y="651" type="curve"/>
      <point x="750" y="612"/>
      <point x="718" y="585"/>
      <point x="686" y="562" type="curve"/>
      <point x="724" y="547"/>
      <point x="798" y="498"/>
      <point x="880" y="440" type="curve"/>
      <point x="856" y="406"/>
      <point x="829" y="370"/>
      <point x="805" y="338" type="curve"/>
      <point x="791" y="361"/>
      <point x="782" y="379"/>
      <point x="777" y="392" type="curve"/>
      <point x="751" y="352"/>
      <point x="719" y="325"/>
      <point x="686" y="301" type="curve"/>
      <point x="725" y="286"/>
      <point x="800" y="241"/>
      <point x="884" y="184" type="curve"/>
      <point x="849" y="135"/>
      <point x="809" y="82"/>
    </contour>
    <contour>
      <point x="1192" y="4" type="curve"/>
      <point x="1010" y="17"/>
      <point x="887" y="27"/>
      <point x="791" y="39" type="curve"/>
      <point x="888" y="108"/>
      <point x="1017" y="210"/>
      <point x="1060" y="226" type="curve"/>
      <point x="1027" y="250"/>
      <point x="995" y="277"/>
      <point x="969" y="317" type="curve"/>
      <point x="961" y="298"/>
      <point x="932" y="254"/>
      <point x="897" y="203" type="curve"/>
      <point x="866" y="243"/>
      <point x="838" y="284"/>
      <point x="817" y="319" type="curve"/>
      <point x="910" y="386"/>
      <point x="1020" y="472"/>
      <point x="1060" y="487" type="curve"/>
      <point x="1027" y="511"/>
      <point x="995" y="538"/>
      <point x="969" y="578" type="curve"/>
      <point x="961" y="559"/>
      <point x="931" y="512"/>
      <point x="894" y="460" type="curve"/>
      <point x="838" y="536"/>
      <point x="791" y="617"/>
      <point x="777" y="651" type="curve"/>
      <point x="853" y="662"/>
      <point x="951" y="670"/>
      <point x="1104" y="676" type="curve"/>
      <point x="1145" y="527"/>
      <point x="1163" y="445"/>
    </contour>
  </outline>
</glyph>
<glyph name="u1201F" format="2">
  <advance width="1788"/>
  <unicode hex="1201F"/>
  <outline>
    <contour>
      <point x="472" y="-111" type="curve"/>
      <point x="639" y="-65"/>
      <point x="797" y="-42"/>
      <point x="1290" y="-28" type="curve"/>
      <point x="1290" y="-2" type="line"/>
      <point x="1266" y="0"/>
      <point x="1243" y="1"/>
      <point x="1220" y="2" type="curve"/>
      <point x="1227" y="228"/>
      <point x="1236" y="368"/>
      <point x="1248" y="470" type="curve"/>
      <point x="1253" y="433"/>
      <point x="1256" y="395"/>
      <point x="1256" y="356" type="curve" smooth="yes"/>
      <point x="1256" y="313"/>
      <point x="1252" y="269"/>
      <point x="1243" y="224" type="curve"/>
      <point x="1330" y="260"/>
      <point x="1441" y="326"/>
      <point x="1688" y="350" type="curve"/>
      <point x="1688" y="377" type="line"/>
      <point x="1434" y="418"/>
      <point x="1342" y="464"/>
      <point x="1253" y="505" type="curve"/>
      <point x="1266" y="597"/>
      <point x="1282" y="659"/>
      <point x="1303" y="736" type="curve"/>
      <point x="1265" y="728"/>
      <point x="1228" y="724"/>
      <point x="1192" y="724" type="curve" smooth="yes"/>
      <point x="1156" y="724"/>
      <point x="1121" y="728"/>
      <point x="1087" y="736" type="curve"/>
      <point x="1091" y="720" type="line"/>
      <point x="745" y="747"/>
      <point x="714" y="767"/>
      <point x="542" y="815" type="curve"/>
      <point x="550" y="781"/>
      <point x="553" y="747"/>
      <point x="553" y="711" type="curve" smooth="yes"/>
      <point x="553" y="695"/>
      <point x="553" y="679"/>
      <point x="551" y="662" type="curve"/>
      <point x="534" y="660"/>
      <point x="518" y="660"/>
      <point x="502" y="660" type="curve" smooth="yes"/>
      <point x="465" y="660"/>
      <point x="430" y="664"/>
      <point x="395" y="672" type="curve"/>
      <point x="442" y="502"/>
      <point x="462" y="440"/>
      <point x="488" y="100" type="curve"/>
      <point x="472" y="105" type="line"/>
      <point x="480" y="71"/>
      <point x="484" y="36"/>
      <point x="484" y="0" type="curve" smooth="yes"/>
      <point x="484" y="-36"/>
      <point x="480" y="-73"/>
    </contour>
    <contour>
      <point x="126" y="33" type="line"/>
      <point x="268" y="159"/>
      <point x="357" y="230"/>
      <point x="441" y="292" type="curve"/>
      <point x="380" y="344"/>
      <point x="249" y="458"/>
      <point x="144" y="580" type="curve"/>
      <point x="116" y="565" type="line"/>
      <point x="180" y="450"/>
      <point x="222" y="363"/>
      <point x="264" y="292" type="curve"/>
      <point x="233" y="240"/>
      <point x="177" y="155"/>
      <point x="100" y="54" type="curve"/>
    </contour>
    <contour>
      <point x="617" y="290" type="curve"/>
      <point x="622" y="337"/>
      <point x="631" y="392"/>
      <point x="637" y="411" type="curve"/>
      <point x="677" y="404"/>
      <point x="725" y="393"/>
      <point x="769" y="383" type="curve"/>
      <point x="772" y="364"/>
      <point x="774" y="344"/>
      <point x="776" y="325" type="curve"/>
      <point x="723" y="312"/>
      <point x="663" y="299"/>
    </contour>
    <contour>
      <point x="1192" y="4" type="curve"/>
      <point x="809" y="31"/>
      <point x="685" y="49"/>
      <point x="534" y="88" type="curve"/>
      <point x="541" y="238"/>
      <point x="548" y="342"/>
      <point x="559" y="423" type="curve"/>
      <point x="574" y="422"/>
      <point x="598" y="419"/>
      <point x="627" y="413" type="curve"/>
      <point x="624" y="413"/>
      <point x="620" y="413"/>
      <point x="617" y="413" type="curve" smooth="yes"/>
      <point x="604" y="413"/>
      <point x="592" y="414"/>
      <point x="579" y="415" type="curve"/>
      <point x="586" y="398"/>
      <point x="594" y="338"/>
      <point x="601" y="287" type="curve"/>
      <point x="583" y="284"/>
      <point x="567" y="282"/>
      <point x="557" y="282" type="curve" smooth="yes"/>
      <point x="555" y="282"/>
      <point x="553" y="282"/>
      <point x="551" y="282" type="curve"/>
      <point x="569" y="251"/>
      <point x="583" y="221"/>
      <point x="589" y="182" type="curve"/>
      <point x="611" y="203"/>
      <point x="702" y="257"/>
      <point x="778" y="300" type="curve"/>
      <point x="785" y="227"/>
      <point x="790" y="153"/>
      <point x="793" y="87" type="curve"/>
      <point x="815" y="87" type="line"/>
      <point x="826" y="203"/>
      <point x="837" y="332"/>
      <point x="854" y="439" type="curve"/>
      <point x="857" y="425"/>
      <point x="859" y="411"/>
      <point x="859" y="397" type="curve" smooth="yes"/>
      <point x="859" y="377"/>
      <point x="856" y="357"/>
      <point x="853" y="338" type="curve"/>
      <point x="875" y="347"/>
      <point x="975" y="358"/>
      <point x="1072" y="368" type="curve"/>
      <point x="1078" y="328"/>
      <point x="1083" y="285"/>
      <point x="1087" y="240" type="curve"/>
      <point x="987" y="251"/>
      <point x="875" y="265"/>
      <point x="853" y="274" type="curve"/>
      <point x="857" y="257"/>
      <point x="859" y="241"/>
      <point x="859" y="225" type="curve" smooth="yes"/>
      <point x="859" y="206"/>
      <point x="856" y="187"/>
      <point x="853" y="168" type="curve"/>
      <point x="877" y="178"/>
      <point x="989" y="190"/>
      <point x="1090" y="201" type="curve"/>
      <point x="1093" y="163"/>
      <point x="1095" y="124"/>
      <point x="1097" y="87" type="curve"/>
      <point x="1119" y="87" type="line"/>
      <point x="1130" y="205" type="line"/>
      <point x="1177" y="210" type="line"/>
      <point x="1182" y="152"/>
      <point x="1187" y="84"/>
    </contour>
    <contour>
      <point x="1065" y="413" type="curve"/>
      <point x="973" y="423"/>
      <point x="880" y="435"/>
      <point x="855" y="444" type="curve"/>
      <point x="866" y="509"/>
      <point x="879" y="566"/>
      <point x="895" y="606" type="curve"/>
      <point x="867" y="601"/>
      <point x="840" y="598"/>
      <point x="812" y="598" type="curve" smooth="yes"/>
      <point x="785" y="598"/>
      <point x="756" y="601"/>
      <point x="725" y="606" type="curve"/>
      <point x="741" y="567"/>
      <point x="754" y="497"/>
      <point x="765" y="416" type="curve"/>
      <point x="691" y="456"/>
      <point x="609" y="504"/>
      <point x="589" y="523" type="curve"/>
      <point x="584" y="492"/>
      <point x="574" y="466"/>
      <point x="561" y="441" type="curve"/>
      <point x="571" y="509"/>
      <point x="582" y="561"/>
      <point x="595" y="613" type="curve"/>
      <point x="710" y="644"/>
      <point x="803" y="664"/>
      <point x="1104" y="676" type="curve"/>
      <point x="1115" y="634"/>
      <point x="1125" y="597"/>
      <point x="1134" y="556" type="curve"/>
      <point x="1129" y="556"/>
      <point x="1123" y="556"/>
      <point x="1118" y="556" type="curve" smooth="yes"/>
      <point x="1090" y="556"/>
      <point x="1061" y="558"/>
      <point x="1029" y="564" type="curve"/>
      <point x="1043" y="529"/>
      <point x="1055" y="476"/>
    </contour>
    <contour>
      <point x="1176" y="231" type="line"/>
      <point x="1162" y="233"/>
      <point x="1149" y="234"/>
      <point x="1134" y="235" type="curve"/>
      <point x="1139" y="285"/>
      <point x="1145" y="332"/>
      <point x="1152" y="376" type="curve"/>
      <point x="1155" y="377"/>
      <point x="1159" y="377"/>
      <point x="1162" y="377" type="curve"/>
    </contour>
    <contour>
      <point x="1157" y="404" type="line"/>
      <point x="1157" y="405"/>
      <point x="1158" y="406"/>
      <point x="1158" y="408" type="curve"/>
      <point x="1158" y="404" type="line"/>
    </contour>
  </outline>
</glyph>
<glyph name="u12020" format="2">
  <advance width="1558"/>
  <unicode hex="12020"/>
  <outline>
    <contour>
      <point x="479" y="-120" type="curve"/>
      <point x="533" y="-62"/>
      <point x="1091" y="215"/>
      <point x="1316" y="322" type="curve"/>
      <point x="1326" y="214"/>
      <point x="1336" y="77"/>
      <point x="1349" y="-112" type="curve"/>
      <point x="1375" y="-112" type="line"/>
      <point x="1389" y="381"/>
      <point x="1412" y="569"/>
      <point x="1458" y="736" type="curve"/>
      <point x="1420" y="728"/>
      <point x="1383" y="724"/>
      <point x="1347" y="724" type="curve" smooth="yes"/>
      <point x="1311" y="724"/>
      <point x="1276" y="728"/>
      <point x="1242" y="736" type="curve"/>
      <point x="1274" y="621"/>
      <point x="1293" y="529"/>
      <point x="1311" y="370" type="curve"/>
      <point x="1133" y="441"/>
      <point x="886" y="548"/>
      <point x="788" y="608" type="curve"/>
      <point x="796" y="656"/>
      <point x="804" y="695"/>
      <point x="815" y="721" type="curve"/>
      <point x="787" y="716"/>
      <point x="760" y="713"/>
      <point x="732" y="713" type="curve" smooth="yes"/>
      <point x="705" y="713"/>
      <point x="676" y="716"/>
      <point x="645" y="721" type="curve"/>
      <point x="679" y="637"/>
      <point x="703" y="299"/>
      <point x="712" y="110" type="curve"/>
      <point x="655" y="89"/>
      <point x="601" y="70"/>
      <point x="556" y="54" type="curve"/>
      <point x="573" y="247"/>
      <point x="593" y="617"/>
      <point x="635" y="721" type="curve"/>
      <point x="607" y="716"/>
      <point x="580" y="713"/>
      <point x="552" y="713" type="curve" smooth="yes"/>
      <point x="525" y="713"/>
      <point x="496" y="716"/>
      <point x="465" y="721" type="curve"/>
      <point x="480" y="683"/>
      <point x="494" y="586"/>
      <point x="504" y="473" type="curve"/>
      <point x="415" y="485"/>
      <point x="310" y="502"/>
      <point x="284" y="513" type="curve"/>
      <point x="288" y="496"/>
      <point x="290" y="480"/>
      <point x="290" y="464" type="curve" smooth="yes"/>
      <point x="290" y="445"/>
      <point x="287" y="426"/>
      <point x="284" y="407" type="curve"/>
      <point x="269" y="405"/>
      <point x="254" y="403"/>
      <point x="239" y="403" type="curve" smooth="yes"/>
      <point x="223" y="403"/>
      <point x="206" y="405"/>
      <point x="189" y="409" type="curve"/>
      <point x="197" y="388"/>
      <point x="209" y="293"/>
      <point x="220" y="199" type="curve"/>
      <point x="159" y="205"/>
      <point x="112" y="212"/>
      <point x="100" y="217" type="curve"/>
      <point x="104" y="200"/>
      <point x="106" y="184"/>
      <point x="106" y="168" type="curve" smooth="yes"/>
      <point x="106" y="149"/>
      <point x="103" y="129"/>
      <point x="100" y="110" type="curve"/>
      <point x="113" y="115"/>
      <point x="164" y="122"/>
      <point x="227" y="128" type="curve"/>
      <point x="238" y="28" type="line"/>
      <point x="248" y="28" type="line"/>
      <point x="260" y="131" type="line"/>
      <point x="346" y="138" type="line"/>
      <point x="358" y="28" type="line"/>
      <point x="368" y="28" type="line"/>
      <point x="372" y="55"/>
      <point x="376" y="96"/>
      <point x="381" y="141" type="curve"/>
      <point x="528" y="155" type="line"/>
      <point x="530" y="114"/>
      <point x="531" y="77"/>
      <point x="533" y="46" type="curve"/>
      <point x="477" y="28"/>
      <point x="435" y="17"/>
      <point x="415" y="16" type="curve"/>
      <point x="442" y="-23"/>
      <point x="464" y="-64"/>
    </contour>
    <contour>
      <point x="527" y="170" type="curve"/>
      <point x="491" y="174"/>
      <point x="441" y="178"/>
      <point x="385" y="183" type="curve"/>
      <point x="395" y="282"/>
      <point x="406" y="386"/>
      <point x="416" y="409" type="curve"/>
      <point x="397" y="406"/>
      <point x="377" y="403"/>
      <point x="358" y="403" type="curve" smooth="yes"/>
      <point x="342" y="403"/>
      <point x="326" y="405"/>
      <point x="309" y="409" type="curve"/>
      <point x="318" y="387"/>
      <point x="331" y="284"/>
      <point x="341" y="187" type="curve"/>
      <point x="266" y="194" type="line"/>
      <point x="276" y="290"/>
      <point x="287" y="387"/>
      <point x="296" y="409" type="curve"/>
      <point x="313" y="415"/>
      <point x="375" y="426"/>
      <point x="507" y="444" type="curve"/>
      <point x="515" y="353"/>
      <point x="522" y="255"/>
    </contour>
    <contour>
      <point x="738" y="120" type="curve"/>
      <point x="748" y="225"/>
      <point x="757" y="363"/>
      <point x="771" y="483" type="curve"/>
      <point x="901" y="461"/>
      <point x="1138" y="394"/>
      <point x="1302" y="344" type="curve"/>
      <point x="1175" y="291"/>
      <point x="938" y="195"/>
    </contour>
  </outline>
</glyph>
<glyph name="u12021" format="2">
  <advance width="1558"/>
  <unicode hex="12021"/>
  <outline>
    <contour>
      <point x="479" y="-120" type="curve"/>
      <point x="528" y="-68"/>
      <point x="982" y="161"/>
      <point x="1237" y="285" type="curve"/>
      <point x="1248" y="180" type="line"/>
      <point x="1258" y="180" type="line"/>
      <point x="1262" y="209"/>
      <point x="1267" y="253"/>
      <point x="1272" y="301" type="curve"/>
      <point x="1288" y="309"/>
      <point x="1302" y="316"/>
      <point x="1316" y="322" type="curve"/>
      <point x="1326" y="214"/>
      <point x="1336" y="77"/>
      <point x="1349" y="-112" type="curve"/>
      <point x="1375" y="-112" type="line"/>
      <point x="1389" y="381"/>
      <point x="1412" y="569"/>
      <point x="1458" y="736" type="curve"/>
      <point x="1420" y="728"/>
      <point x="1383" y="724"/>
      <point x="1347" y="724" type="curve" smooth="yes"/>
      <point x="1311" y="724"/>
      <point x="1276" y="728"/>
      <point x="1242" y="736" type="curve"/>
      <point x="1259" y="674"/>
      <point x="1272" y="619"/>
      <point x="1284" y="557" type="curve"/>
      <point x="1273" y="556"/>
      <point x="1262" y="555"/>
      <point x="1251" y="555" type="curve" smooth="yes"/>
      <point x="1234" y="555"/>
      <point x="1217" y="557"/>
      <point x="1199" y="561" type="curve"/>
      <point x="1206" y="544"/>
      <point x="1215" y="479"/>
      <point x="1224" y="405" type="curve"/>
      <point x="1176" y="425"/>
      <point x="1126" y="446"/>
      <point x="1078" y="467" type="curve"/>
      <point x="1084" y="512"/>
      <point x="1090" y="548"/>
      <point x="1095" y="561" type="curve"/>
      <point x="1076" y="558"/>
      <point x="1056" y="555"/>
      <point x="1037" y="555" type="curve" smooth="yes"/>
      <point x="1021" y="555"/>
      <point x="1005" y="557"/>
      <point x="988" y="561" type="curve"/>
      <point x="991" y="552"/>
      <point x="996" y="530"/>
      <point x="1000" y="502" type="curve"/>
      <point x="992" y="506"/>
      <point x="983" y="509"/>
      <point x="974" y="513" type="curve"/>
      <point x="978" y="536"/>
      <point x="981" y="553"/>
      <point x="985" y="561" type="curve"/>
      <point x="966" y="558"/>
      <point x="946" y="555"/>
      <point x="927" y="555" type="curve" smooth="yes"/>
      <point x="911" y="555"/>
      <point x="895" y="557"/>
      <point x="878" y="561" type="curve"/>
      <point x="878" y="559" type="line"/>
      <point x="842" y="577"/>
      <point x="811" y="594"/>
      <point x="788" y="608" type="curve"/>
      <point x="796" y="656"/>
      <point x="804" y="695"/>
      <point x="815" y="721" type="curve"/>
      <point x="787" y="716"/>
      <point x="760" y="713"/>
      <point x="732" y="713" type="curve" smooth="yes"/>
      <point x="705" y="713"/>
      <point x="676" y="716"/>
      <point x="645" y="721" type="curve"/>
      <point x="679" y="637"/>
      <point x="703" y="299"/>
      <point x="712" y="110" type="curve"/>
      <point x="655" y="89"/>
      <point x="601" y="70"/>
      <point x="556" y="54" type="curve"/>
      <point x="573" y="247"/>
      <point x="593" y="617"/>
      <point x="635" y="721" type="curve"/>
      <point x="607" y="716"/>
      <point x="580" y="713"/>
      <point x="552" y="713" type="curve" smooth="yes"/>
      <point x="525" y="713"/>
      <point x="496" y="716"/>
      <point x="465" y="721" type="curve"/>
      <point x="480" y="683"/>
      <point x="494" y="586"/>
      <point x="504" y="473" type="curve"/>
      <point x="415" y="485"/>
      <point x="310" y="502"/>
      <point x="284" y="513" type="curve"/>
      <point x="288" y="496"/>
      <point x="290" y="480"/>
      <point x="290" y="464" type="curve" smooth="yes"/>
      <point x="290" y="445"/>
      <point x="287" y="426"/>
      <point x="284" y="407" type="curve"/>
      <point x="269" y="405"/>
      <point x="254" y="403"/>
      <point x="239" y="403" type="curve" smooth="yes"/>
      <point x="223" y="403"/>
      <point x="206" y="405"/>
      <point x="189" y="409" type="curve"/>
      <point x="197" y="388"/>
      <point x="209" y="293"/>
      <point x="220" y="199" type="curve"/>
      <point x="159" y="205"/>
      <point x="112" y="212"/>
      <point x="100" y="217" type="curve"/>
      <point x="104" y="200"/>
      <point x="106" y="184"/>
      <point x="106" y="168" type="curve" smooth="yes"/>
      <point x="106" y="149"/>
      <point x="103" y="129"/>
      <point x="100" y="110" type="curve"/>
      <point x="113" y="115"/>
      <point x="164" y="122"/>
      <point x="227" y="128" type="curve"/>
      <point x="238" y="28" type="line"/>
      <point x="248" y="28" type="line"/>
      <point x="260" y="131" type="line"/>
      <point x="346" y="138" type="line"/>
      <point x="358" y="28" type="line"/>
      <point x="368" y="28" type="line"/>
      <point x="372" y="55"/>
      <point x="376" y="96"/>
      <point x="381" y="141" type="curve"/>
      <point x="528" y="155" type="line"/>
      <point x="530" y="114"/>
      <point x="531" y="77"/>
      <point x="533" y="46" type="curve"/>
      <point x="477" y="28"/>
      <point x="435" y="17"/>
      <point x="415" y="16" type="curve"/>
      <point x="442" y="-23"/>
      <point x="464" y="-64"/>
    </contour>
    <contour>
      <point x="527" y="170" type="curve"/>
      <point x="491" y="174"/>
      <point x="441" y="178"/>
      <point x="385" y="183" type="curve"/>
      <point x="395" y="282"/>
      <point x="406" y="386"/>
      <point x="416" y="409" type="curve"/>
      <point x="397" y="406"/>
      <point x="377" y="403"/>
      <point x="358" y="403" type="curve" smooth="yes"/>
      <point x="342" y="403"/>
      <point x="326" y="405"/>
      <point x="309" y="409" type="curve"/>
      <point x="318" y="387"/>
      <point x="331" y="284"/>
      <point x="341" y="187" type="curve"/>
      <point x="266" y="194" type="line"/>
      <point x="276" y="290"/>
      <point x="287" y="387"/>
      <point x="296" y="409" type="curve"/>
      <point x="313" y="415"/>
      <point x="375" y="426"/>
      <point x="507" y="444" type="curve"/>
      <point x="515" y="353"/>
      <point x="522" y="255"/>
    </contour>
    <contour>
      <point x="738" y="120" type="curve"/>
      <point x="746" y="204"/>
      <point x="753" y="308"/>
      <point x="763" y="408" type="curve"/>
      <point x="767" y="391"/>
      <point x="772" y="358"/>
      <point x="777" y="323" type="curve"/>
      <point x="768" y="325"/>
      <point x="760" y="326"/>
      <point x="757" y="328" type="curve"/>
      <point x="759" y="320"/>
      <point x="759" y="312"/>
      <point x="759" y="305" type="curve" smooth="yes"/>
      <point x="759" y="293"/>
      <point x="758" y="281"/>
      <point x="757" y="269" type="curve"/>
      <point x="761" y="271"/>
      <point x="770" y="273"/>
      <point x="783" y="275" type="curve"/>
      <point x="787" y="236" type="line"/>
      <point x="796" y="236" type="line"/>
      <point x="800" y="278" type="line"/>
      <point x="839" y="284" type="line"/>
      <point x="840" y="266"/>
      <point x="842" y="251"/>
      <point x="843" y="240" type="curve"/>
      <point x="852" y="240" type="line"/>
      <point x="856" y="286" type="line"/>
      <point x="917" y="293" type="line"/>
      <point x="918" y="291"/>
      <point x="918" y="288"/>
      <point x="918" y="285" type="curve"/>
      <point x="894" y="280"/>
      <point x="874" y="277"/>
      <point x="864" y="277" type="curve" smooth="yes"/>
      <point x="862" y="277"/>
      <point x="861" y="277"/>
      <point x="860" y="277" type="curve"/>
      <point x="876" y="246"/>
      <point x="889" y="217"/>
      <point x="894" y="180" type="curve"/>
      <point x="841" y="159"/>
      <point x="789" y="139"/>
    </contour>
    <contour>
      <point x="908" y="185" type="line"/>
      <point x="931" y="199"/>
      <point x="978" y="223"/>
      <point x="1031" y="249" type="curve"/>
      <point x="1033" y="234" type="line"/>
    </contour>
    <contour>
      <point x="916" y="307" type="curve"/>
      <point x="858" y="313" type="line"/>
      <point x="864" y="374"/>
      <point x="870" y="444"/>
      <point x="875" y="457" type="curve"/>
      <point x="867" y="455"/>
      <point x="859" y="455"/>
      <point x="852" y="455" type="curve" smooth="yes"/>
      <point x="840" y="455"/>
      <point x="828" y="456"/>
      <point x="816" y="457" type="curve"/>
      <point x="822" y="443"/>
      <point x="830" y="375"/>
      <point x="836" y="316" type="curve"/>
      <point x="804" y="319" type="line"/>
      <point x="809" y="363"/>
      <point x="815" y="406"/>
      <point x="819" y="417" type="curve"/>
      <point x="811" y="415"/>
      <point x="804" y="415"/>
      <point x="797" y="415" type="curve" smooth="yes"/>
      <point x="785" y="415"/>
      <point x="775" y="416"/>
      <point x="764" y="417" type="curve"/>
      <point x="766" y="439"/>
      <point x="768" y="462"/>
      <point x="771" y="483" type="curve"/>
      <point x="806" y="477"/>
      <point x="850" y="468"/>
      <point x="897" y="457" type="curve"/>
      <point x="904" y="410"/>
      <point x="910" y="356"/>
    </contour>
    <contour>
      <point x="947" y="291" type="curve"/>
      <point x="953" y="339"/>
      <point x="958" y="393"/>
      <point x="964" y="440" type="curve"/>
      <point x="1011" y="428" type="line"/>
      <point x="1025" y="310" type="line"/>
      <point x="997" y="303"/>
      <point x="971" y="296"/>
    </contour>
    <contour>
      <point x="1052" y="242" type="line"/>
      <point x="1053" y="248"/>
      <point x="1054" y="254"/>
      <point x="1054" y="260" type="curve"/>
      <point x="1118" y="291"/>
      <point x="1186" y="322"/>
      <point x="1231" y="343" type="curve"/>
      <point x="1234" y="316" type="line"/>
    </contour>
    <contour>
      <point x="1061" y="318" type="curve"/>
      <point x="1071" y="411" type="line"/>
      <point x="1125" y="396"/>
      <point x="1178" y="381"/>
      <point x="1228" y="366" type="curve"/>
      <point x="1228" y="365"/>
      <point x="1228" y="364"/>
      <point x="1228" y="363" type="curve" smooth="yes"/>
      <point x="1228" y="362"/>
      <point x="1228" y="360"/>
      <point x="1229" y="359" type="curve"/>
      <point x="1186" y="350"/>
      <point x="1123" y="333"/>
    </contour>
    <contour>
      <point x="1274" y="332" type="curve"/>
      <point x="1275" y="339"/>
      <point x="1276" y="345"/>
      <point x="1276" y="352" type="curve"/>
      <point x="1302" y="344" type="line"/>
      <point x="1294" y="340"/>
      <point x="1284" y="336"/>
    </contour>
    <contour>
      <point x="1311" y="370" type="curve"/>
      <point x="1280" y="382" type="line"/>
      <point x="1284" y="426"/>
      <point x="1289" y="467"/>
      <point x="1294" y="499" type="curve"/>
      <point x="1300" y="461"/>
      <point x="1305" y="419"/>
    </contour>
  </outline>
</glyph>
